<?xml version="1.0" encoding="UTF-8" standalone="no"?>
<svg xmlns:dc="http://purl.org/dc/elements/1.1/" xmlns:cc="http://creativecommons.org/ns#" xmlns:rdf="http://www.w3.org/1999/02/22-rdf-syntax-ns#" xmlns:svg="http://www.w3.org/2000/svg" xmlns="http://www.w3.org/2000/svg" viewBox="0 0 666.66669 666.66669" height="666.66669" width="666.66669" xml:space="preserve" id="svg2" version="1.1">
  <metadata id="metadata8">
    <rdf:RDF>
      <cc:Work rdf:about="">
        <dc:format>image/svg+xml</dc:format>
        <dc:type rdf:resource="http://purl.org/dc/dcmitype/StillImage" />
      </cc:Work>
    </rdf:RDF>
  </metadata>
  <defs id="defs6" />
  <g transform="matrix(1.3333333,0,0,-1.3333333,0,666.66667)" id="g10">
    <g transform="scale(0.1)" id="g12">
      <path id="path14" style="fill:#ffffff;fill-opacity:1;fill-rule:nonzero;stroke:none" d="M 0,0 H 5000 V 5000 H 0 Z" />
      <path id="path16" style="fill:#d4bde3;fill-opacity:1;fill-rule:nonzero;stroke:none" d="m 2183.89,3345.1 c -153.7,557.57 -846.33,737.19 -1243.265,320.49 -5.699,-5.99 -11.391,-12.07 -17.086,-18.26 -569.07,-618.6 -300.238,-2143.02 887.401,-2529.4 1187.63,-386.379 2422.94,319.18 2492.33,949.9 69.4,630.72 -478.51,828.91 -1328.83,652.54 -480.4,-99.64 -694.86,277.63 -790.55,624.73" />
      <path id="path18" style="fill:#d4bde3;fill-opacity:1;fill-rule:nonzero;stroke:none" d="m 3171.85,3249.73 c -158.9,-25.87 -202.94,-166.64 -80.26,-266.52 40.56,-33.01 98.47,-60.44 180.98,-74.12 314.28,-52.14 481.05,86.91 355.08,267.2 -77.76,111.27 -298.33,99.08 -455.8,73.44" />
      <path id="path20" style="fill:#d4bde3;fill-opacity:1;fill-rule:nonzero;stroke:none" d="m 712.656,2110.26 c -78.027,140.81 -225.41,134.71 -277.965,-14.5 -17.371,-49.32 -23.621,-113.09 -8.632,-195.37 57.089,-313.43 244.308,-423.43 371.441,-243.95 78.469,110.77 -7.52,314.26 -84.844,453.82" />
      <path id="path22" style="fill:#d4bde3;fill-opacity:1;fill-rule:nonzero;stroke:none" d="m 4415.28,1994.53 c -14.64,-76.63 48.64,-130.91 120.34,-101.39 23.7,9.77 47.6,28.59 68.86,61.66 81.01,126.02 39.98,234.13 -72.81,223.03 -69.62,-6.85 -101.88,-107.36 -116.39,-183.3" />
      <path id="path24" style="fill:#d4bde3;fill-opacity:1;fill-rule:nonzero;stroke:none" d="m 4013.57,2803.18 c 76.37,-15.94 131.72,46.4 103.41,118.59 -9.35,23.86 -27.75,48.08 -60.47,69.9 -124.62,83.15 -233.4,43.97 -224.22,-68.99 5.65,-69.73 105.6,-103.71 181.28,-119.5" />
      <path id="path26" style="fill:#d4bde3;fill-opacity:1;fill-rule:nonzero;stroke:none" d="m 2157.36,3623.2 c 60.47,-49.3 138.29,-19.43 146.39,57.69 2.67,25.49 -2.52,55.47 -21.52,89.9 -72.38,131.16 -186.99,146.44 -230.83,41.93 -27.06,-64.51 46.04,-140.67 105.96,-189.52" />
      <path id="path28" style="fill:#765cb4;fill-opacity:1;fill-rule:nonzero;stroke:none" d="m 4575.58,871.262 c 26.22,-4.391 53.58,2.957 71.85,22.277 11.92,12.59 20,28.141 19.99,43.039 v 0.652 c -0.34,106.89 130.99,99.77 173.15,230.47 42.15,130.68 -124.46,141.68 -219.63,61 -68.42,-58.03 -150.54,23.04 -249.99,-44.64 -86.36,-58.72 -38.26,-203.341 -179.91,-158.13 -45.22,14.46 -85.73,0.53 -119.9,-25.12 -39.35,-29.54 -64.98,-70.931 -75.64,-115.869 l 11.28,-7.98 c 279.37,-171.231 405.26,21.598 568.8,-5.699" />
      <path id="path30" style="fill:#583c9f;fill-opacity:1;fill-rule:nonzero;stroke:none" d="m 4298.76,876.961 370.36,237.749 c 4.96,3.18 6.39,9.78 3.21,14.74 -3.18,4.96 -9.78,6.39 -14.74,3.21 L 4259.26,876.961 h 39.5" />
      <path id="path32" style="fill:#4c3297;fill-opacity:1;fill-rule:nonzero;stroke:none" d="m 4278.8,1584.27 c -15.64,233.02 -18.2,477.38 -0.86,639.4 22.66,211.67 73.91,359.02 152.34,437.95 5.2,5.22 13.66,5.25 18.89,0.05 5.23,-5.2 5.26,-13.65 0.06,-18.89 -137.11,-137.97 -186.41,-508.43 -142.85,-1072.1 l -27.58,13.59" />
      <path id="path34" style="fill:#583c9f;fill-opacity:1;fill-rule:nonzero;stroke:none" d="m 4313.86,2410.68 c 0,0 -111.64,0.18 -103.66,196.45 0,0 170.82,-48.73 103.66,-196.45" />
      <path id="path36" style="fill:#583c9f;fill-opacity:1;fill-rule:nonzero;stroke:none" d="m 4304.51,2309.71 c 0,0 -6.03,111.47 190.37,114.43 0,0 -39.15,-173.26 -190.37,-114.43" />
      <path id="path38" style="fill:#583c9f;fill-opacity:1;fill-rule:nonzero;stroke:none" d="m 4389.88,2585.02 c 0,0 -42.86,103.09 141.34,171.36 0,0 20.85,-176.4 -141.34,-171.36" />
      <path id="path40" style="fill:#583c9f;fill-opacity:1;fill-rule:nonzero;stroke:none" d="m 4279.43,2107.14 c 0,0 -105.11,-37.6 -163.99,149.81 0,0 177.23,11.92 163.99,-149.81" />
      <path id="path42" style="fill:#583c9f;fill-opacity:1;fill-rule:nonzero;stroke:none" d="m 4285.49,2002.83 c 0,0 -25.23,108.76 167.71,145.64 0,0 -8.6,-177.43 -167.71,-145.64" />
      <path id="path44" style="fill:#583c9f;fill-opacity:1;fill-rule:nonzero;stroke:none" d="m 4279.58,1859.19 c 0,0 -104.38,-39.59 -166.81,146.67 0,0 176.98,15.27 166.81,-146.67" />
      <path id="path46" style="fill:#583c9f;fill-opacity:1;fill-rule:nonzero;stroke:none" d="m 1039.82,1064.92 -30.42,1.2 -16.13,0.65 -45.704,1.82 c 0,0 -422.386,717.05 -157.777,950.89 81.461,71.99 223.871,12.31 192.391,-318.56 -29.176,-306.7 57.64,-636 57.64,-636" />
      <path id="path48" style="fill:#4c3297;fill-opacity:1;fill-rule:nonzero;stroke:none" d="m 1009.4,1066.12 -16.13,0.65 c -73.739,173.74 -110.965,360.37 -129.438,491.37 -21.941,155.55 -22.965,268.5 -22.957,269.61 -0.039,4.05 3.207,7.34 7.238,7.35 4.035,0.04 7.325,-3.22 7.356,-7.23 0.004,-1.13 1.011,-113.29 22.855,-267.93 18.586,-131.64 56.207,-319.8 131.076,-493.82" />
      <path id="path50" style="fill:#765cb4;fill-opacity:1;fill-rule:nonzero;stroke:none" d="m 1123.74,921.262 -41.32,-15.34 -21.92,-8.133 -62.086,-23.008 c 0,0 -963.9452,722.789 -740.66,1182.679 68.734,141.58 292.289,141.18 434.574,-318.47 131.914,-426.08 431.412,-817.728 431.412,-817.728" />
      <path id="path52" style="fill:#583c9f;fill-opacity:1;fill-rule:nonzero;stroke:none" d="m 1082.42,905.922 -21.92,-8.133 C 865.168,1088.86 711.43,1317.51 613.75,1482.26 c -115.996,195.62 -180.293,345.98 -180.906,347.48 -2.301,5.37 0.203,11.58 5.586,13.83 5.371,2.31 11.574,-0.2 13.851,-5.55 0.641,-1.52 64.477,-150.82 179.832,-345.29 98.184,-165.54 253.297,-396 450.307,-586.808" />
      <path id="path54" style="fill:#583c9f;fill-opacity:1;fill-rule:nonzero;stroke:none" d="m 4418.67,880.359 c -0.47,16.661 -2.43,33.493 -6.08,50.2 -34.66,158.641 59.62,188.561 183.93,238.661 124.26,50.11 139.06,198.93 51.05,322.62 -88.03,123.7 70.13,223.1 11.89,409.24 -58.23,186.16 -260.5,62.34 -304.75,-109.27 -31.79,-123.39 -193.5,-96.69 -253.37,-256.72 -52.02,-138.91 122.31,-267.21 -79.04,-330.89 -64.3,-20.31 -99.86,-69.67 -118.47,-127.44 -21.44,-66.52 -17.23,-135.522 7.24,-196.401 h 507.6" />
      <path id="path56" style="fill:#4c3297;fill-opacity:1;fill-rule:nonzero;stroke:none" d="m 4172.39,880.359 331.65,818.731 c 3.15,7.76 -0.61,16.58 -8.37,19.73 -7.75,3.14 -16.58,-0.62 -19.72,-8.37 L 4139.71,880.359 h 32.68" />
      <path id="path58" style="fill:#3e3358;fill-opacity:1;fill-rule:nonzero;stroke:none" d="m 1409.05,3355.59 c 0,0 6.97,147.4 -82.68,175.71 -139.6,44.09 -178.45,-28.31 -200,-76.15 -27.62,-61.31 -15.84,-181.57 67.45,-193.18 124.33,-17.34 207.55,52.43 215.23,93.62" />
      <path id="path60" style="fill:#3e3358;fill-opacity:1;fill-rule:nonzero;stroke:none" d="m 1499.04,2862.69 c 72.55,0 135.22,50.84 150.08,121.85 10.69,51.15 21.15,96.44 21.15,121.87 v 0.66 c 0.65,8.04 1.01,16.08 1.07,24 0.95,116.31 -70.75,328.74 -322.97,294.97 0,0 -209.27,-23.88 -233.1,-228.39 0,0 -9.91,-94.35 -16.51,-162.67 -0.12,-1.22 -0.24,-2.42 -0.36,-3.61 -9.2,-90.3 61.81,-168.68 152.57,-168.68 h 248.07" />
      <path id="path62" style="fill:#583c9f;fill-opacity:1;fill-rule:nonzero;stroke:none" d="m 1798.47,2619.59 c 0,0 44.6,-353.31 95.54,-534.69 0,0 72.38,33.71 167.11,79.47 102.72,49.63 250.39,140.17 250.39,140.17 l 37.32,-89.91 c 0,0 -381.45,-360.01 -507.8,-380.39 -126.35,-20.38 -203.79,432.04 -203.79,432.04 l 161.23,353.31" />
      <path id="path64" style="fill:#f6876f;fill-opacity:1;fill-rule:nonzero;stroke:none" d="m 2303.69,2294 c 0,0 -10.48,50.2 11.98,84.16 22.46,33.98 56.66,97.58 96.82,110.85 33.59,11.11 -15.98,-45.59 -17.46,-81.58 0,0 49.97,6.27 86.02,17.98 31.7,10.29 94.43,23.14 123.52,28.87 7.96,1.57 13.09,-8.48 6.94,-13.8 -9.91,-8.6 -30.64,-19.41 -73.51,-29.74 0,0 104.48,19.79 115.32,3.78 10.84,-15.99 -120.24,-38.33 -120.24,-38.33 0,0 101.71,6.02 104.35,-9.94 1.61,-9.72 -103.76,-31.96 -103.76,-31.96 0,0 96.15,-2.58 72.9,-17.76 -6.78,-4.42 -192.93,-25.37 -257.74,-101.9 0,0 -43.6,45.07 -45.14,79.37" />
      <path id="path66" style="fill:#583c9f;fill-opacity:1;fill-rule:nonzero;stroke:none" d="m 1155.26,2689.18 c 0,0 -213.405,-62.93 -397.178,-104.4 0,0 -4.769,79.7 -9.582,184.8 -5.219,113.96 4.172,286.92 4.172,286.92 l -96.832,-9.95 c 0,0 -135.215,-506.78 -93.035,-627.61 42.175,-120.84 577.765,48.42 577.765,48.42 l 14.69,221.82" />
      <path id="path68" style="fill:#f6876f;fill-opacity:1;fill-rule:nonzero;stroke:none" d="m 747.125,3044.6 c 0,0 49.141,14.66 68.336,50.58 19.195,35.92 72.227,108.25 39.496,135.03 -11.949,9.78 -20.562,-32.89 -51.512,-51.3 0,0 -18.25,46.93 -25.101,84.21 -6.024,32.79 -24.567,94.07 -33.364,122.38 -2.414,7.76 -13.687,7.48 -15.445,-0.45 -2.84,-12.81 -2.488,-36.19 8.82,-78.81 0,0 -32.304,101.31 -51.539,103.24 -19.234,1.92 23.481,-124.01 23.481,-124.01 0,0 -43.09,92.32 -58.383,87.06 -9.312,-3.2 21.246,-106.47 21.246,-106.47 0,0 -48.015,83.35 -50.305,55.68 -0.664,-8.06 69.469,-181.77 32.985,-275.19 0,0 60.383,-16.91 91.285,-1.95" />
      <path id="path70" style="fill:#765cb4;fill-opacity:1;fill-rule:nonzero;stroke:none" d="m 1790.49,1250.69 1.7,-7.55 c -166.18,-112.51 -787.75,-35.68 -787.75,-35.68 1.06,13.04 2.45,26.67 4.27,40.78 1.93,15.72 4.34,32.01 7.11,48.84 7.51,45.25 17.58,94.18 28.89,144.52 3.63,15.85 7.27,31.94 11.1,48.1 11.23,48.04 23.16,96.77 34.46,144.24 3.91,16.31 7.75,32.4 11.46,48.4 5.18,22.21 10.08,44.07 14.78,65.25 6.13,28.17 11.58,55.24 16.16,80.73 3.09,17.15 5.77,33.59 7.83,49.2 2.37,16.52 3.99,32.13 4.98,46.59 -9.88,36.51 -19.09,72.29 -27.67,106.97 -4.27,17.67 -8.45,34.95 -12.56,52.02 -12.76,54.64 -23.99,106.66 -33.79,155.38 -3.48,17.7 -6.91,34.93 -10.04,51.73 -10.86,57.46 -19.64,109.46 -26.71,154.83 -2.73,18.09 -5.3,34.97 -7.55,50.9 -2.49,17.42 -4.62,33.55 -6.48,48.17 -8.34,64.33 -11.22,100.81 -11.22,100.81 1.46,1.18 3,2.25 4.58,3.4 18.85,13.39 48.33,26 81.09,37.18 34.58,11.86 72.83,22.17 106.54,30.32 5.1,1.22 10.12,2.4 15.02,3.55 44.3,10.35 77.41,16.36 77.41,16.36 150.72,-31.57 193.72,-11.26 193.72,-11.26 l 76.62,-22.6 9.01,-3.17 55.84,-19.6 2.26,-0.83 100.13,-35.25 66.79,-23.43 -25.93,-119.54 -11.29,-52.21 -34.15,-157.35 -11.22,-52.01 -33.99,-156.81 -11.18,-51.49 -28.14,-129.94 5.61,-24.81 10.99,-48.17 17.43,-76.59 15.84,-69.27 10.91,-48.02 32.8,-144.43 10.94,-47.75 32.53,-142.77 10.87,-47.74" />
      <path id="path72" style="fill:#f6876f;fill-opacity:1;fill-rule:nonzero;stroke:none" d="m 1573.45,2698.7 c -16.04,-94.21 -61.72,-188.98 -156.68,-199.22 -114.72,-12.41 -174.2,131.49 -200.08,219.89 44.3,10.35 90.21,20.47 90.21,20.47 150.72,-31.57 179.8,-12.34 179.8,-12.34 l 77.74,-25.63 9.01,-3.17" />
      <path id="path74" style="fill:#ffffff;fill-opacity:1;fill-rule:nonzero;stroke:none" d="m 1405.11,2578.62 c -120.23,0 -148.98,148.49 -149.26,150.02 -0.59,3.22 1.54,6.31 4.75,6.9 3.23,0.58 6.31,-1.54 6.91,-4.75 1.1,-5.97 28.37,-146.08 144.58,-140.14 101.71,5.15 107.7,118.03 107.9,122.83 0.14,3.27 2.86,5.83 6.17,5.67 3.27,-0.14 5.81,-2.9 5.68,-6.16 -0.06,-1.29 -6.59,-128.49 -119.15,-134.18 -2.56,-0.13 -5.09,-0.19 -7.58,-0.19" />
      <path id="path76" style="fill:#583c9f;fill-opacity:1;fill-rule:nonzero;stroke:none" d="m 1189.43,2619.57 c 0,-16.22 -13.14,-29.35 -29.35,-29.35 -16.21,0 -29.35,13.13 -29.35,29.35 0,16.21 13.14,29.34 29.35,29.34 16.21,0 29.35,-13.13 29.35,-29.34" />
      <path id="path78" style="fill:#583c9f;fill-opacity:1;fill-rule:nonzero;stroke:none" d="m 1130.64,2476.37 c 0,-16.21 -13.14,-29.35 -29.34,-29.35 -16.21,0 -29.35,13.14 -29.35,29.35 0,16.2 13.14,29.34 29.35,29.34 16.2,0 29.34,-13.14 29.34,-29.34" />
      <path id="path80" style="fill:#583c9f;fill-opacity:1;fill-rule:nonzero;stroke:none" d="m 1318.04,2408.66 c 0,-16.2 -13.14,-29.34 -29.35,-29.34 -16.21,0 -29.35,13.14 -29.35,29.34 0,16.21 13.14,29.36 29.35,29.36 16.21,0 29.35,-13.15 29.35,-29.36" />
      <path id="path82" style="fill:#583c9f;fill-opacity:1;fill-rule:nonzero;stroke:none" d="m 1187.33,2328.61 c 6.02,-15.05 -1.31,-32.13 -16.36,-38.14 -15.06,-6.01 -32.13,1.32 -38.14,16.37 -6.01,15.04 1.31,32.12 16.36,38.14 15.05,6.01 32.13,-1.32 38.14,-16.37" />
      <path id="path84" style="fill:#583c9f;fill-opacity:1;fill-rule:nonzero;stroke:none" d="m 1441.74,2274.4 c 0,-16.2 -13.14,-29.34 -29.35,-29.34 -16.2,0 -29.35,13.14 -29.35,29.34 0,16.22 13.15,29.36 29.35,29.36 16.21,0 29.35,-13.14 29.35,-29.36" />
      <path id="path86" style="fill:#583c9f;fill-opacity:1;fill-rule:nonzero;stroke:none" d="m 1628.92,2213.94 c 0,-16.22 -13.14,-29.36 -29.35,-29.36 -16.21,0 -29.35,13.14 -29.35,29.36 0,16.2 13.14,29.34 29.35,29.34 16.21,0 29.35,-13.14 29.35,-29.34" />
      <path id="path88" style="fill:#583c9f;fill-opacity:1;fill-rule:nonzero;stroke:none" d="m 1666.58,2590.22 c 0,-16.21 -13.14,-29.35 -29.34,-29.35 -16.21,0 -29.35,13.14 -29.35,29.35 0,16.21 13.14,29.35 29.35,29.35 16.2,0 29.34,-13.14 29.34,-29.35" />
      <path id="path90" style="fill:#583c9f;fill-opacity:1;fill-rule:nonzero;stroke:none" d="m 1453.61,2086.99 c 0,-16.2 -13.14,-29.34 -29.34,-29.34 -16.21,0 -29.35,13.14 -29.35,29.34 0,16.21 13.14,29.36 29.35,29.36 16.2,0 29.34,-13.15 29.34,-29.36" />
      <path id="path92" style="fill:#583c9f;fill-opacity:1;fill-rule:nonzero;stroke:none" d="m 1272.81,1996 c 0,-16.21 -13.14,-29.35 -29.35,-29.35 -16.2,0 -29.34,13.14 -29.34,29.35 0,16.21 13.14,29.34 29.34,29.34 16.21,0 29.35,-13.13 29.35,-29.34" />
      <path id="path94" style="fill:#583c9f;fill-opacity:1;fill-rule:nonzero;stroke:none" d="m 1251.75,2161.72 c 0,-16.21 -13.14,-29.35 -29.35,-29.35 -16.21,0 -29.35,13.14 -29.35,29.35 0,16.21 13.14,29.34 29.35,29.34 16.21,0 29.35,-13.13 29.35,-29.34" />
      <path id="path96" style="fill:#583c9f;fill-opacity:1;fill-rule:nonzero;stroke:none" d="m 1540.88,2401 c 0,-16.21 -13.14,-29.36 -29.35,-29.36 -16.21,0 -29.35,13.15 -29.35,29.36 0,16.2 13.14,29.34 29.35,29.34 16.21,0 29.35,-13.14 29.35,-29.34" />
      <path id="path98" style="fill:#583c9f;fill-opacity:1;fill-rule:nonzero;stroke:none" d="m 1703.14,2438.02 c 0,-16.21 -13.14,-29.36 -29.35,-29.36 -16.21,0 -29.34,13.15 -29.34,29.36 0,16.21 13.13,29.34 29.34,29.34 16.21,0 29.35,-13.13 29.35,-29.34" />
      <path id="path100" style="fill:#583c9f;fill-opacity:1;fill-rule:nonzero;stroke:none" d="m 1599.57,2038.44 c 0,-16.2 -13.13,-29.35 -29.35,-29.35 -16.2,0 -29.34,13.15 -29.34,29.35 0,16.21 13.14,29.35 29.34,29.35 16.22,0 29.35,-13.14 29.35,-29.35" />
      <path id="path102" style="fill:#583c9f;fill-opacity:1;fill-rule:nonzero;stroke:none" d="m 1607.45,1806.24 c 0,-16.21 -13.14,-29.36 -29.35,-29.36 -16.21,0 -29.35,13.15 -29.35,29.36 0,16.21 13.14,29.35 29.35,29.35 16.21,0 29.35,-13.14 29.35,-29.35" />
      <path id="path104" style="fill:#583c9f;fill-opacity:1;fill-rule:nonzero;stroke:none" d="m 1458.07,1903.12 c 6.01,-15.05 -1.32,-32.13 -16.37,-38.14 -15.05,-6.02 -32.13,1.31 -38.14,16.37 -6.02,15.05 1.31,32.13 16.36,38.13 15.06,6.02 32.13,-1.31 38.15,-16.36" />
      <path id="path106" style="fill:#583c9f;fill-opacity:1;fill-rule:nonzero;stroke:none" d="m 1258.27,1817.13 c 6.01,-15.06 -1.32,-32.13 -16.37,-38.15 -15.05,-6.01 -32.12,1.32 -38.14,16.37 -6.01,15.05 1.32,32.13 16.37,38.14 15.05,6.01 32.13,-1.31 38.14,-16.36" />
      <path id="path108" style="fill:#765cb4;fill-opacity:1;fill-rule:nonzero;stroke:none" d="m 1852.67,880.57 -6.08,36.571 -23.68,141.829 -8.12,48.6 -22.61,135.57 -41.1,-1.85 -544.91,-24.72 -201.72,-9.1 -12.97,-105.44 -6.07,-49.12 -17.906,-145.648 -3.289,-26.692 h 888.455" />
      <path id="path110" style="fill:#3e3358;fill-opacity:1;fill-rule:nonzero;stroke:none" d="m 1852.64,880.57 -5.57,33.039 -0.46,3.473 -3.93,23.348 -3.93,23.121 -15.95,95.479 -4.63,28.21 -3.46,20.35 -0.47,3 -20.57,123.69 -1.39,8.79 -1.85,7.62 -1.62,6.7 -9.24,40.93 -18.27,79.99 -5.32,22.88 -9.01,40 -10.87,47.86 -7.4,32.82 -5.32,22.9 -20.11,88.54 -7.4,32.36 -3.46,15.73 -1.62,7.16 -14.11,62.19 c -221.47,-65.42 -456.13,-26.58 -560.17,-3.23 -4.63,-21.04 -9.71,-43 -14.8,-65.2 -1.15,-4.85 -2.31,-9.7 -3.46,-14.56 -1.85,-7.63 -3.7,-15.26 -5.55,-22.89 -0.7,-3.7 -1.62,-7.16 -2.55,-10.87 -8.55,-36.29 -17.57,-73.28 -26.35,-110.04 -1.85,-7.63 -3.47,-15.26 -5.32,-22.66 -0.93,-3.93 -1.85,-7.63 -2.77,-11.55 -3.7,-16.2 -7.4,-32.38 -11.1,-48.1 -4.62,-21.03 -9.02,-41.61 -13.18,-61.95 -1.62,-7.63 -3.24,-15.03 -4.62,-22.43 -4.16,-20.58 -7.86,-40.69 -11.1,-60.11 -2.78,-16.88 -5.08,-33.06 -6.94,-49.02 -0.69,-4.85 -1.15,-9.7 -1.85,-14.32 -0.69,-7.86 -1.61,-15.5 -2.31,-23.13 0,-1.15 -0.23,-2.08 -0.23,-3.23 l -12.942,-105.43 -2.083,-16.41 -2.773,-22.89 -1.156,-9.7 -14.336,-115.37 -2.774,-23.121 -0.921,-7.398 -3.207,-26.571 h 888.452" />
      <path id="path112" style="fill:#f25349;fill-opacity:1;fill-rule:nonzero;stroke:none" d="m 1584.62,3092.99 c 0,0 36.02,45.64 62.82,7.9 26.78,-37.74 -11.09,-149.22 -76.68,-122.01 l 13.86,114.11" />
      <path id="path114" style="fill:#e43342;fill-opacity:1;fill-rule:nonzero;stroke:none" d="m 1585.08,3013.33 c 2.42,0 4.65,1.52 5.34,3.85 10.16,34.41 47.69,48.37 48.07,48.5 2.85,1.04 4.29,4.08 3.2,6.8 -1.07,2.71 -4.27,4.08 -7.13,3.06 -1.75,-0.63 -43.11,-15.89 -54.81,-55.52 -0.83,-2.8 0.88,-5.7 3.83,-6.49 l 1.5,-0.2" />
      <path id="path116" style="fill:#e43342;fill-opacity:1;fill-rule:nonzero;stroke:none" d="m 1622.96,3030.67 c 1.03,0 2.07,0.27 3,0.84 2.57,1.58 3.31,4.83 1.66,7.28 -0.28,0.4 -6.92,10.03 -20.81,15.93 -2.78,1.19 -6.07,0 -7.32,-2.65 -1.25,-2.66 0,-5.77 2.8,-6.96 10.74,-4.57 15.96,-11.96 16.01,-12.02 1.06,-1.57 2.84,-2.42 4.66,-2.42" />
      <path id="path118" style="fill:#ffffff;fill-opacity:1;fill-rule:nonzero;stroke:none" d="m 1568.39,2979.6 c -6.19,-6.9 -10,-15.99 -10,-25.96 0,-21.53 17.52,-39.05 39.05,-39.05 21.53,0 39.05,17.52 39.05,39.05 0,12.41 -5.81,23.46 -14.86,30.61 -4.54,3.58 -9.88,6.19 -15.72,7.49 -0.98,2.64 -0.5,5.12 1.41,7.4 7.47,-1.64 14.26,-5.04 19.93,-9.78 10.25,-8.52 16.76,-21.38 16.76,-35.72 0,-25.69 -20.88,-46.57 -46.57,-46.57 -25.67,0 -46.57,20.88 -46.57,46.57 0,11.07 3.93,21.19 10.41,29.18 2.37,-1.08 4.74,-2.16 7.11,-3.22" />
      <path id="path120" style="fill:#f6876f;fill-opacity:1;fill-rule:nonzero;stroke:none" d="m 1306.9,2859.8 v -136.75 c 0,0 63.56,-49.05 113.14,-53.31 49.54,-4.32 66.66,54.14 66.66,54.14 v 127.27 l -179.8,8.65" />
      <path id="path122" style="fill:#f25349;fill-opacity:1;fill-rule:nonzero;stroke:none" d="m 1306.9,2846.4 v -54.55 c 33.27,-36.93 92.34,-50.01 179.79,-37.1 l 0.01,83 -179.8,8.65" />
      <path id="path124" style="fill:#f6876f;fill-opacity:1;fill-rule:nonzero;stroke:none" d="m 1606.27,3041 c -1.58,-13.2 -3.44,-26.64 -5.82,-40.02 -15.7,-88.92 -71.95,-184.98 -142.98,-201.1 -153.37,-34.81 -217.06,85.65 -241.58,174.52 -2.71,9.87 2.37,21.18 0.23,32.87 -5.09,27.69 -16.28,59.15 -18.82,90.17 -1.75,21.51 -2.99,42.71 -3.9,61.88 -2.48,54.04 28.82,103.7 77.74,123.1 70.51,28.04 177.57,50.25 278.98,-9.23 37.45,-21.97 60.95,-62.63 61.8,-107.15 0.62,-34.01 -0.23,-78.47 -5.65,-125.04" />
      <path id="path126" style="fill:#f25349;fill-opacity:1;fill-rule:nonzero;stroke:none" d="m 1411.77,2972.19 c -2.85,0 -5.38,2.06 -5.87,4.97 -0.54,3.25 1.64,6.32 4.89,6.86 l 20.46,3.44 -28.18,75.06 c -1.16,3.08 0.4,6.52 3.47,7.68 3.08,1.14 6.52,-0.41 7.67,-3.49 l 33.28,-88.6 -34.73,-5.83 -0.99,-0.09" />
      <path id="path128" style="fill:#3e3358;fill-opacity:1;fill-rule:nonzero;stroke:none" d="m 1485.16,3071.52 c 0,-13.13 6.76,-23.77 15.1,-23.77 8.35,0 15.11,10.64 15.11,23.77 0,13.12 -6.76,23.76 -15.11,23.76 -8.34,0 -15.1,-10.64 -15.1,-23.76" />
      <path id="path130" style="fill:#3e3358;fill-opacity:1;fill-rule:nonzero;stroke:none" d="m 1318.17,3071.52 c 0,-13.13 6.76,-23.77 15.11,-23.77 8.34,0 15.1,10.64 15.1,23.77 0,13.12 -6.76,23.76 -15.1,23.76 -8.35,0 -15.11,-10.64 -15.11,-23.76" />
      <path id="path132" style="fill:#3e3358;fill-opacity:1;fill-rule:nonzero;stroke:none" d="m 1544.68,3133.84 c -12.15,2.37 -36.71,6.28 -62.86,5.36 -6.89,-0.24 -12.41,-5.44 -11.45,-10.91 l 0.02,-0.14 c 0.76,-4.38 5.44,-7.32 10.95,-6.9 17.83,1.34 64.46,1.05 86.17,-5.41 0.61,3.14 -1.5,6.48 -4.56,9.4 -4.64,4.43 -11.17,7.22 -18.27,8.6" />
      <path id="path134" style="fill:#3e3358;fill-opacity:1;fill-rule:nonzero;stroke:none" d="m 1301.8,3130.99 c 12.11,2.53 36.62,6.77 62.78,6.21 6.89,-0.15 12.48,-5.26 11.61,-10.75 l -0.03,-0.14 c -0.7,-4.39 -5.34,-7.39 -10.85,-7.05 -17.85,1.1 -64.48,0.17 -86.09,-6.59 -0.65,3.14 1.41,6.5 4.43,9.46 4.58,4.49 11.07,7.37 18.15,8.86" />
      <path id="path136" style="fill:#ffffff;fill-opacity:1;fill-rule:nonzero;stroke:none" d="m 1485.16,2936.72 c -4.42,-20.88 -19.09,-59.3 -68.54,-59.3 -49.56,0 -63.46,35.11 -68.24,59.3 h 136.78" />
      <path id="path138" style="fill:#f25349;fill-opacity:1;fill-rule:nonzero;stroke:none" d="m 1417.33,2841.51 c 14.27,0 26.87,7.69 27.4,8.02 2.74,1.7 3.59,5.29 1.9,8.04 -1.7,2.74 -5.28,3.59 -8.03,1.9 -0.11,-0.06 -10.38,-6.27 -21.27,-6.27 -11.78,0 -22.33,6.23 -22.43,6.3 -2.77,1.66 -6.36,0.76 -8.02,-2 -1.66,-2.75 -0.78,-6.33 1.98,-8 0.54,-0.33 13.36,-7.99 28.47,-7.99" />
      <path id="path140" style="fill:#3e3358;fill-opacity:1;fill-rule:nonzero;stroke:none" d="m 1612.48,3054.96 c -1.44,-1.2 -2.81,-0.78 -4.11,1.56 -20.26,35.71 -1.22,106.96 -61.17,134.28 -45.66,20.83 -62.05,63.56 -62.05,63.56 -10.44,-17.87 -37.64,-34.26 -37.64,-34.26 0,0 -68.96,-40.86 -140.62,-68.47 -21.29,-8.21 -36.46,-16.54 -47.09,-23.69 l 1.28,-0.36 c 0,0 -19.84,-32.23 -5.33,-82.34 14.52,-50.07 -4.15,-132.72 -36.38,-151.79 0.57,1.41 24.75,58.55 11.08,105.17 -7.87,26.73 -7.79,69.26 -15.26,94.74 -8.26,5.69 -27.36,15.29 -33.82,19.13 -1.85,21.92 -3.17,43.53 -4.11,63.06 -2.62,55.09 30.36,105.71 81.95,125.51 74.31,28.57 187.16,51.19 294.07,-9.43 39.48,-22.39 64.26,-63.84 65.17,-109.22 0.65,-34.65 -0.26,-79.97 -5.97,-127.45" />
      <path id="path142" style="fill:#f6876f;fill-opacity:1;fill-rule:nonzero;stroke:none" d="m 1215.19,3093.36 c 0,0 -41.89,50.83 -66.61,14.18 -24.72,-36.65 11.78,-149.01 72.3,-122.58 l -5.69,108.4" />
      <path id="path144" style="fill:#ffffff;fill-opacity:1;fill-rule:nonzero;stroke:none" d="m 1216.88,2983.14 c 4.33,-8.2 5.82,-17.94 3.4,-27.61 -5.22,-20.89 -26.47,-33.64 -47.36,-28.41 -20.89,5.22 -33.63,26.47 -28.41,47.36 3.01,12.04 11.34,21.35 21.85,26.09 5.27,2.37 11.08,3.6 17.06,3.45 1.04,2.23 1.57,4.65 0.44,7.51 -7.64,0.24 -15.06,-1.42 -21.71,-4.65 -12.01,-5.77 -21.45,-16.67 -24.93,-30.57 -6.23,-24.93 8.95,-50.25 33.87,-56.49 24.91,-6.22 50.25,8.96 56.49,33.88 2.68,10.74 1.33,21.51 -3.02,30.83 -2.56,-0.47 -5.12,-0.94 -7.68,-1.39" />
      <path id="path146" style="fill:#f25349;fill-opacity:1;fill-rule:nonzero;stroke:none" d="m 1206.11,3022.51 c -2.23,0 -4.28,1.48 -4.92,3.74 -9.38,33.42 -44,46.97 -44.35,47.1 -2.64,1.01 -3.96,3.96 -2.96,6.6 1,2.64 3.95,3.97 6.58,2.97 1.62,-0.61 39.78,-15.42 50.58,-53.91 0.76,-2.72 -0.82,-5.54 -3.54,-6.3 l -1.39,-0.2" />
      <path id="path148" style="fill:#f25349;fill-opacity:1;fill-rule:nonzero;stroke:none" d="m 1171.16,3039.35 c -0.95,0 -1.9,0.26 -2.76,0.82 -2.37,1.53 -3.06,4.69 -1.53,7.07 0.25,0.39 6.38,9.73 19.19,15.47 2.57,1.16 5.61,0 6.76,-2.58 1.15,-2.58 0,-5.6 -2.58,-6.76 -9.91,-4.43 -14.73,-11.6 -14.77,-11.67 -0.98,-1.52 -2.62,-2.35 -4.31,-2.35" />
      <path id="path150" style="fill:#f6876f;fill-opacity:1;fill-rule:nonzero;stroke:none" d="m 3434.02,1989.68 c -97.48,-69.97 -250,-117.98 -250,-117.98 l -31.23,112.31 -24.35,87.63 -17.2,61.77 -174.8,0.12 c 9.47,-32.76 19.24,-66.23 29.07,-99.18 12.61,-42.51 25.19,-84.14 37.15,-122.52 16.86,-54.02 32.43,-101.52 44.97,-135.45 2.93,-7.92 6.33,-16.55 10.14,-25.75 23.36,-63.11 42.23,-131.56 131.41,-88.61 78.5,37.8 184.96,90.22 238.15,125.01 l 6.69,202.65" />
      <path id="path152" style="fill:#f25349;fill-opacity:1;fill-rule:nonzero;stroke:none" d="m 2965.51,2034.35 c 12.62,-42.5 25.18,-84.14 37.15,-122.51 71.35,7.55 120.75,42.92 150.14,72.17 l -24.35,87.63 -162.94,-37.29" />
      <path id="path154" style="fill:#4c3498;fill-opacity:1;fill-rule:nonzero;stroke:none" d="m 2928.4,2647.38 c 0,0 182.35,-434.89 260.78,-575.79 0,0 -109.91,-93.45 -216.97,-95.99 0,0 -61.69,477.47 -43.81,671.78" />
      <path id="path156" style="fill:#765cb4;fill-opacity:1;fill-rule:nonzero;stroke:none" d="m 2501.45,880.25 c 1.84,30.441 3.56,59.41 5.14,86.262 6.46,109.778 10.61,184.708 10.61,184.708 l -43,1.92 -24.23,1.1 -292.29,12.99 c 0,0 -5.32,-83.8 -11.59,-206.871 -1.29,-25.179 -2.61,-52.019 -3.94,-80.109 h 359.3" />
      <path id="path158" style="fill:#583c9f;fill-opacity:1;fill-rule:nonzero;stroke:none" d="m 2474.2,1153.14 43,-1.92 c 0,0 -4.15,-74.93 -10.61,-184.708 -112.3,-9.364 -234.91,-13.172 -360.5,-6.153 6.27,123.071 11.59,206.871 11.59,206.871 l 292.29,-12.99 24.23,-1.1" />
      <path id="path160" style="fill:#583c9f;fill-opacity:1;fill-rule:nonzero;stroke:none" d="m 2458.85,880.25 c 6.78,117.27 12.35,217.73 15.37,272.88 l -24.23,1.1 c -3.04,-55.41 -8.62,-156.32 -15.42,-273.98 h 24.28" />
      <path id="path162" style="fill:#765cb4;fill-opacity:1;fill-rule:nonzero;stroke:none" d="m 2595.65,880.25 h 359.29 c -1.32,28.09 -2.65,54.93 -3.93,80.109 -6.26,123.071 -11.59,206.871 -11.59,206.871 l -292.29,-12.99 -24.23,-1.1 -43,-1.92 c 0,0 4.15,-74.93 10.61,-184.708 1.58,-26.852 3.31,-55.821 5.14,-86.262" />
      <path id="path164" style="fill:#583c9f;fill-opacity:1;fill-rule:nonzero;stroke:none" d="m 2622.9,1153.14 -43,-1.92 c 0,0 4.15,-74.93 10.61,-184.708 112.3,-9.364 234.91,-13.172 360.5,-6.153 -6.26,123.071 -11.59,206.871 -11.59,206.871 l -292.29,-12.99 -24.23,-1.1" />
      <path id="path166" style="fill:#583c9f;fill-opacity:1;fill-rule:nonzero;stroke:none" d="m 2662.53,880.25 c -6.8,117.66 -12.38,218.57 -15.41,273.98 l -24.24,-1.1 c 3.02,-55.15 8.58,-155.61 15.37,-272.88 h 24.28" />
      <path id="path168" style="fill:#583c9f;fill-opacity:1;fill-rule:nonzero;stroke:none" d="m 2094.24,1375.63 c -0.04,-6.02 0,-11.96 0,-17.81 0.14,-106.89 0.66,-189.73 1.19,-230.41 103.25,-27.97 206.49,-46.04 309.78,-54.39 4.71,-0.35 9.33,-0.71 14.03,-1.06 2.51,-0.17 5.01,-0.35 7.52,-0.49 5.54,-0.39 11.13,-0.74 16.62,-1 6.16,-0.4 12.27,-0.7 18.47,-1.02 70.27,-3.25 140.53,-1.98 210.85,3.78 14.19,1.19 28.32,2.56 42.51,4.09 0.93,0.09 1.81,0.18 2.73,0.27 3.61,0.4 7.22,0.84 10.87,1.28 2.2,0.26 4.39,0.52 6.54,0.79 81.75,9.75 163.5,25.72 245.28,47.75 0.22,18.47 0.31,45.86 0.31,80.38 0,6.42 0,13.02 -0.04,19.92 v 0.04 c -0.05,49.39 -0.35,110.85 -0.88,180.34 -0.05,5.93 -0.09,11.91 -0.14,17.97 -0.39,46.26 -0.88,95.82 -1.49,147.49 -0.09,5.98 -0.13,11.96 -0.22,17.98 -0.66,52.99 -1.45,108.04 -2.38,163.93 -0.57,34.13 -1.18,68.55 -1.88,103.03 -0.71,34.91 -1.46,69.87 -2.29,104.61 -0.17,7.56 -0.35,15.12 -0.58,22.69 -7.99,328.52 -21.85,630.47 -44.76,664.15 -15.87,23.31 -52.24,50.7 -95.07,78.32 -5.22,3.34 -10.55,6.73 -15.96,10.11 -18.25,11.39 -167.09,61.96 -186,73.08 l -157.33,11 c -0.97,-0.58 -151.4,-51.32 -152.36,-51.85 -6.47,-3.69 -13.02,-7.43 -19.48,-11.17 -55.71,-32.14 -110.68,-66 -142.34,-95.15 -4.62,-4.22 -8.75,-8.36 -12.27,-12.4 -2.81,-3.21 -5.32,-6.33 -7.34,-9.41 -1.89,-2.77 -3.74,-7.44 -5.5,-13.81 -19.04,-69.17 -29.02,-341 -33.99,-636.76 -0.35,-21.2 -0.66,-42.53 -0.97,-63.89 -0.13,-9.37 -0.26,-18.78 -0.39,-28.19 -0.14,-6.46 -0.22,-12.96 -0.27,-19.43 -0.04,-3.26 -0.09,-6.46 -0.13,-9.72 -0.22,-16.09 -0.4,-32.14 -0.53,-48.1 -0.13,-11.84 -0.26,-23.61 -0.39,-35.4 -1.41,-148.98 -1.85,-293.64 -1.72,-411.54" />
      <path id="path170" style="fill:#f6876f;fill-opacity:1;fill-rule:nonzero;stroke:none" d="m 1812.9,953.219 c -3.87,-41.989 47.27,-19.219 32.8,65.871 -14.43,85.09 26.56,162.12 44.24,159.66 17.72,-2.5 -14.65,-92.91 1.1,-125.5 15.69,-32.58 36.01,30.74 56.24,69.13 20.97,39.89 19.74,126.91 10.2,189 -9.55,62.13 103.02,439.36 103.59,548.68 l 13.72,46.35 50.22,169.68 78.62,265.73 c 0,0 -47.09,201.12 -126.51,183.84 0,0 -42.03,-140.09 -86.97,-298.08 -7.61,-26.83 -15.3,-54.18 -22.91,-81.44 -32.01,-114.55 -62.09,-227.64 -76.07,-294.74 -36.94,-177.17 -39.8,-545.43 -39.8,-545.43 0,0 -65.16,-135.31 -66.7,-195.5 -1.63,-64.2 32.05,-115.259 28.23,-157.251" />
      <path id="path172" style="fill:#f25349;fill-opacity:1;fill-rule:nonzero;stroke:none" d="m 1967.24,2146.14 107.55,-239.73 50.22,169.68 -134.86,151.49 c -7.61,-26.83 -15.3,-54.18 -22.91,-81.44" />
      <path id="path174" style="fill:#583c9f;fill-opacity:1;fill-rule:nonzero;stroke:none" d="m 1961.9,2217.55 c 47.19,-80.91 95.17,-161.38 142.96,-241.98 15.74,52.72 32.05,103.34 47.36,149.86 l 0.13,0.35 c 6.11,18.59 12.09,36.53 17.81,53.69 l 0.31,0.88 c 1.98,6.02 3.91,11.95 5.89,17.77 v 0.03 c 22.82,69 40.5,123.83 45.55,155.8 13.64,86.05 -23.52,254.64 -75.85,287.89 -1.36,-3.04 -5.49,6.33 -7.95,0.61 -9.19,-21.24 -50,-73.7 -70.19,-124.79 -2.59,-6.51 -5.23,-13.28 -7.95,-20.18 -29.25,-75.16 -64.99,-172.9 -98.07,-279.93" />
      <path id="path176" style="fill:#4c3498;fill-opacity:1;fill-rule:nonzero;stroke:none" d="m 2543.63,2665.12 c 68.13,0 116.16,62.17 118.17,64.81 2.87,3.77 2.33,9.31 -1.19,12.37 -3.53,3.07 -8.71,2.49 -11.57,-1.27 -0.62,-0.82 -45.34,-58.32 -105.41,-58.32 -59.36,0 -95.56,65.08 -95.92,65.74 -2.29,4.19 -7.33,5.61 -11.24,3.17 -3.92,-2.44 -5.25,-7.81 -2.98,-12.01 1.65,-3.04 41.2,-74.49 110.14,-74.49" />
      <path id="path178" style="fill:#4c3498;fill-opacity:1;fill-rule:nonzero;stroke:none" d="m 2831.69,2069.51 c 1.26,0 2.54,0.31 3.74,0.96 4.08,2.22 5.72,7.55 3.65,11.92 l -29.71,62.79 c -2.07,4.37 -7.06,6.12 -11.15,3.9 -4.08,-2.21 -5.72,-7.55 -3.65,-11.91 l 29.72,-62.8 c 1.45,-3.08 4.37,-4.86 7.4,-4.86" />
      <path id="path180" style="fill:#4c3498;fill-opacity:1;fill-rule:nonzero;stroke:none" d="m 2893.61,2120.95 c 1.07,-0.71 2.31,-1.16 3.65,-1.3 4.56,-0.43 8.58,3.17 8.99,8.06 l 5.82,70.08 c 0.41,4.88 -2.96,9.19 -7.52,9.62 -4.56,0.44 -8.59,-3.17 -8.99,-8.04 l -5.82,-70.1 c -0.3,-3.45 1.3,-6.6 3.87,-8.32" />
      <path id="path182" style="fill:#4c3498;fill-opacity:1;fill-rule:nonzero;stroke:none" d="m 2733.98,2229.64 c 3.99,0 7.5,3.07 8.18,7.42 l 10.73,69.43 c 0.74,4.83 -2.31,9.4 -6.83,10.2 -4.54,0.79 -8.78,-2.47 -9.54,-7.31 l -10.73,-69.43 c -0.74,-4.83 2.32,-9.39 6.84,-10.19 l 1.35,-0.12" />
      <path id="path184" style="fill:#4c3498;fill-opacity:1;fill-rule:nonzero;stroke:none" d="m 2467.06,2203.8 c 1.44,0 2.89,0.4 4.21,1.24 3.94,2.49 5.25,7.93 2.91,12.14 l -33.51,60.55 c -2.33,4.22 -7.42,5.62 -11.36,3.12 -3.94,-2.5 -5.24,-7.93 -2.91,-12.15 l 33.52,-60.56 c 1.54,-2.79 4.3,-4.34 7.14,-4.34" />
      <path id="path186" style="fill:#4c3498;fill-opacity:1;fill-rule:nonzero;stroke:none" d="m 2794.97,2475.21 c 1.54,0 3.11,0.45 4.49,1.42 l 55.26,38.22 c 3.84,2.66 4.95,8.14 2.46,12.26 -2.49,4.11 -7.62,5.29 -11.47,2.63 l -55.25,-38.22 c -3.84,-2.66 -4.94,-8.14 -2.45,-12.25 1.58,-2.63 4.25,-4.06 6.96,-4.06" />
      <path id="path188" style="fill:#4c3498;fill-opacity:1;fill-rule:nonzero;stroke:none" d="m 2548.85,1911.06 c 1.26,0 2.54,0.31 3.74,0.96 4.08,2.21 5.71,7.55 3.65,11.92 l -29.72,62.79 c -2.07,4.36 -7.05,6.11 -11.14,3.9 -4.08,-2.2 -5.72,-7.54 -3.65,-11.91 l 29.72,-62.79 c 1.45,-3.09 4.37,-4.87 7.4,-4.87" />
      <path id="path190" style="fill:#4c3498;fill-opacity:1;fill-rule:nonzero;stroke:none" d="m 2679.39,2427.97 c 2.77,0 5.46,1.47 7.05,4.16 2.42,4.15 1.25,9.63 -2.64,12.23 l -55.77,37.34 c -3.88,2.59 -9,1.35 -11.43,-2.81 -2.43,-4.15 -1.25,-9.63 2.63,-12.23 l 55.77,-37.34 c 1.37,-0.91 2.89,-1.35 4.39,-1.35" />
      <path id="path192" style="fill:#4c3498;fill-opacity:1;fill-rule:nonzero;stroke:none" d="m 2812.04,2689.06 c -0.13,-1.72 0.21,-3.39 0.95,-4.79 1.27,-2.6 3.78,-4.45 6.74,-4.67 4.56,-0.35 8.51,3.35 8.83,8.23 l 2.64,40.41 c -5.22,3.34 -10.53,6.73 -15.96,10.11 l -3.2,-49.29" />
      <path id="path194" style="fill:#4c3498;fill-opacity:1;fill-rule:nonzero;stroke:none" d="m 2886.39,2303.8 c 2.76,0 5.46,1.47 7.03,4.16 2.43,4.15 1.26,9.63 -2.63,12.23 l -55.77,37.34 c -3.88,2.59 -8.99,1.35 -11.43,-2.81 -2.43,-4.15 -1.25,-9.63 2.63,-12.23 l 55.77,-37.34 c 1.37,-0.91 2.89,-1.35 4.4,-1.35" />
      <path id="path196" style="fill:#4c3498;fill-opacity:1;fill-rule:nonzero;stroke:none" d="m 2441.62,2610.21 c 1.57,0 3.15,0.46 4.56,1.46 3.82,2.69 4.87,8.19 2.36,12.28 l -31.81,51.62 c -2.51,4.09 -7.66,5.23 -11.48,2.53 -3.82,-2.7 -4.88,-8.2 -2.36,-12.29 l 31.8,-51.62 c 1.59,-2.58 4.24,-3.98 6.93,-3.98" />
      <path id="path198" style="fill:#4c3498;fill-opacity:1;fill-rule:nonzero;stroke:none" d="m 2413.11,1718.54 c 2.18,0 4.35,0.9 5.98,2.72 l 45.57,50.76 c 3.17,3.54 3.06,9.15 -0.24,12.54 -3.3,3.4 -8.55,3.28 -11.72,-0.25 l -45.57,-50.77 c -3.17,-3.53 -3.06,-9.15 0.24,-12.53 1.61,-1.66 3.67,-2.47 5.74,-2.47" />
      <path id="path200" style="fill:#4c3498;fill-opacity:1;fill-rule:nonzero;stroke:none" d="m 2580.57,1729.08 c 2.17,0 4.34,0.92 5.97,2.74 l 45.58,50.76 c 3.17,3.53 3.06,9.15 -0.24,12.54 -3.32,3.39 -8.55,3.27 -11.72,-0.27 l -45.57,-50.76 c -3.17,-3.52 -3.07,-9.14 0.23,-12.53 1.62,-1.66 3.68,-2.48 5.75,-2.48" />
      <path id="path202" style="fill:#4c3498;fill-opacity:1;fill-rule:nonzero;stroke:none" d="m 2700.96,1385.95 c 0.76,2.17 0.72,4.67 -0.3,6.94 l -28.44,63.46 c -1.99,4.41 -6.94,6.28 -11.06,4.16 -4.13,-2.12 -5.87,-7.41 -3.89,-11.83 l 28.44,-63.46 c 1.99,-4.42 6.94,-6.27 11.07,-4.16 2.01,1.03 3.44,2.82 4.18,4.89" />
      <path id="path204" style="fill:#4c3498;fill-opacity:1;fill-rule:nonzero;stroke:none" d="m 2220.42,1176.56 c 0.76,2.18 0.72,4.68 -0.29,6.95 l -28.46,63.45 c -1.97,4.43 -6.92,6.28 -11.05,4.16 -4.14,-2.12 -5.87,-7.4 -3.89,-11.82 l 28.45,-63.46 c 1.97,-4.41 6.92,-6.28 11.06,-4.16 2.01,1.03 3.45,2.81 4.18,4.88" />
      <path id="path206" style="fill:#4c3498;fill-opacity:1;fill-rule:nonzero;stroke:none" d="m 2426.77,1071.46 c 5.54,-0.4 11.1,-0.75 16.6,-1.01 l 5.8,39.53 c 0.7,4.83 -2.38,9.37 -6.9,10.11 -4.53,0.75 -8.76,-2.55 -9.46,-7.38 l -6.04,-41.25" />
      <path id="path208" style="fill:#4c3498;fill-opacity:1;fill-rule:nonzero;stroke:none" d="m 2360.58,1190.93 c 1.79,1.33 3.08,3.41 3.44,5.9 l 10.18,69.52 c 0.72,4.84 -2.38,9.37 -6.9,10.13 -4.53,0.76 -8.76,-2.54 -9.47,-7.39 l -10.19,-69.52 c -0.71,-4.84 2.39,-9.37 6.91,-10.14 2.2,-0.37 4.34,0.23 6.03,1.5" />
      <path id="path210" style="fill:#4c3498;fill-opacity:1;fill-rule:nonzero;stroke:none" d="m 2760.66,1772.26 c 1.42,0 2.85,0.39 4.15,1.19 3.97,2.45 5.32,7.88 3.02,12.12 l -32.96,60.9 c -2.29,4.24 -7.36,5.68 -11.33,3.23 -3.96,-2.44 -5.32,-7.87 -3.02,-12.11 l 32.97,-60.91 c 1.53,-2.84 4.31,-4.42 7.17,-4.42" />
      <path id="path212" style="fill:#4c3498;fill-opacity:1;fill-rule:nonzero;stroke:none" d="m 2663.88,1924.49 c 3,0 5.9,1.75 7.37,4.81 l 30.17,62.54 c 2.1,4.34 0.5,9.69 -3.57,11.94 -4.05,2.26 -9.06,0.54 -11.17,-3.82 l -30.17,-62.54 c -2.1,-4.34 -0.49,-9.7 3.57,-11.94 1.22,-0.68 2.52,-0.99 3.8,-0.99" />
      <path id="path214" style="fill:#4c3498;fill-opacity:1;fill-rule:nonzero;stroke:none" d="m 2926.01,1933.66 c 0.86,-1.09 1.97,-1.93 3.12,-2.46 2.79,-1.23 6.08,-0.79 8.55,1.41 l 33.92,30.48 c -0.16,7.55 -0.33,15.11 -0.54,22.68 l -44.07,-39.58 c -3.49,-3.16 -3.94,-8.75 -0.98,-12.53" />
      <path id="path216" style="fill:#4c3498;fill-opacity:1;fill-rule:nonzero;stroke:none" d="m 2664.31,2588 c 3,0 5.9,1.75 7.38,4.8 l 30.17,62.54 c 2.1,4.35 0.49,9.7 -3.58,11.94 -4.05,2.25 -9.06,0.54 -11.16,-3.81 l -30.17,-62.54 c -2.11,-4.35 -0.5,-9.7 3.57,-11.95 1.21,-0.66 2.51,-0.98 3.79,-0.98" />
      <path id="path218" style="fill:#4c3498;fill-opacity:1;fill-rule:nonzero;stroke:none" d="m 2470.96,2358.88 1.58,0.15 c 4.5,0.94 7.44,5.59 6.57,10.39 l -12.48,69.1 c -0.86,4.81 -5.22,7.94 -9.71,7.03 -4.5,-0.93 -7.44,-5.59 -6.57,-10.39 l 12.48,-69.1 c 0.76,-4.24 4.24,-7.18 8.13,-7.18" />
      <path id="path220" style="fill:#4c3498;fill-opacity:1;fill-rule:nonzero;stroke:none" d="m 2578.6,2298.21 1.59,0.16 c 4.5,0.93 7.44,5.58 6.57,10.38 l -12.48,69.1 c -0.86,4.82 -5.23,7.94 -9.71,7.02 -4.5,-0.92 -7.44,-5.57 -6.57,-10.38 l 12.48,-69.1 c 0.76,-4.24 4.24,-7.18 8.12,-7.18" />
      <path id="path222" style="fill:#4c3498;fill-opacity:1;fill-rule:nonzero;stroke:none" d="m 2501.49,2526.18 c 2.74,0 5.43,1.45 7.01,4.11 l 35.26,59.41 c 2.45,4.14 1.31,9.62 -2.56,12.24 -3.88,2.63 -8.98,1.4 -11.44,-2.73 l -35.26,-59.41 c -2.46,-4.14 -1.32,-9.62 2.55,-12.24 1.38,-0.94 2.92,-1.38 4.44,-1.38" />
      <path id="path224" style="fill:#4c3498;fill-opacity:1;fill-rule:nonzero;stroke:none" d="m 2824.95,1913.51 c 2.27,2.58 2.95,6.49 1.44,9.88 l -28.34,63.51 c -1.98,4.42 -6.92,6.29 -11.06,4.18 -4.14,-2.11 -5.89,-7.4 -3.9,-11.81 l 28.33,-63.52 c 1.97,-4.41 6.92,-6.29 11.05,-4.18 0.97,0.49 1.8,1.15 2.48,1.94" />
      <path id="path226" style="fill:#4c3498;fill-opacity:1;fill-rule:nonzero;stroke:none" d="m 2611.64,2097.77 c 3.31,0 6.45,2.14 7.73,5.65 l 23.97,65.53 c 1.67,4.56 -0.43,9.7 -4.7,11.48 -4.26,1.79 -9.07,-0.46 -10.74,-5.02 l -23.97,-65.54 c -1.67,-4.56 0.43,-9.69 4.69,-11.48 1,-0.42 2.01,-0.62 3.02,-0.62" />
      <path id="path228" style="fill:#4c3498;fill-opacity:1;fill-rule:nonzero;stroke:none" d="m 2348.18,1693.02 c 1.26,0 2.54,0.3 3.74,0.95 4.09,2.21 5.72,7.54 3.65,11.92 l -29.71,62.79 c -2.06,4.37 -7.05,6.11 -11.14,3.9 -4.09,-2.21 -5.72,-7.54 -3.66,-11.92 l 29.72,-62.78 c 1.46,-3.09 4.38,-4.86 7.4,-4.86" />
      <path id="path230" style="fill:#4c3498;fill-opacity:1;fill-rule:nonzero;stroke:none" d="m 2784.82,1241.74 c 0.01,-1.35 0.32,-2.72 0.94,-4 2.1,-4.34 7.11,-6.04 11.17,-3.78 l 58.42,32.37 c 4.07,2.24 5.67,7.6 3.56,11.95 -2.11,4.35 -7.12,6.05 -11.19,3.79 l -58.41,-32.37 c -2.88,-1.58 -4.52,-4.73 -4.49,-7.96" />
      <path id="path232" style="fill:#4c3498;fill-opacity:1;fill-rule:nonzero;stroke:none" d="m 2943.44,1201.48 c 0,-1.36 0.28,-2.72 0.91,-4 2.09,-4.35 7.11,-6.02 11.18,-3.78 l 25.4,14.07 c 0,6.42 0,13.02 -0.04,19.93 l -32.97,-18.26 c -2.88,-1.58 -4.52,-4.74 -4.48,-7.96" />
      <path id="path234" style="fill:#4c3498;fill-opacity:1;fill-rule:nonzero;stroke:none" d="m 2697.95,1123.21 19.98,-45.64 c 3.62,0.4 7.24,0.84 10.9,1.28 2.18,0.26 4.35,0.52 6.53,0.79 l -22.4,51.09 c -1.93,4.45 -6.87,6.38 -11.03,4.27 -4.15,-2.07 -5.95,-7.34 -3.98,-11.79" />
      <path id="path236" style="fill:#4c3498;fill-opacity:1;fill-rule:nonzero;stroke:none" d="m 2240.36,1853.13 c 3.99,0 7.5,3.08 8.17,7.43 l 10.73,69.43 c 0.75,4.83 -2.31,9.39 -6.83,10.2 -4.53,0.79 -8.78,-2.48 -9.53,-7.31 l -10.73,-69.43 c -0.75,-4.84 2.31,-9.4 6.82,-10.2 l 1.37,-0.12" />
      <path id="path238" style="fill:#4c3498;fill-opacity:1;fill-rule:nonzero;stroke:none" d="m 2233.52,2365.44 c 1.43,0 2.89,0.4 4.21,1.24 3.94,2.49 5.25,7.93 2.91,12.15 l -33.52,60.54 c -2.33,4.22 -7.41,5.62 -11.35,3.12 -3.94,-2.49 -5.25,-7.93 -2.91,-12.15 l 33.51,-60.55 c 1.55,-2.8 4.31,-4.35 7.15,-4.35" />
      <path id="path240" style="fill:#4c3498;fill-opacity:1;fill-rule:nonzero;stroke:none" d="m 2341.28,2119.31 c 1.55,0 3.1,0.46 4.5,1.42 l 55.25,38.22 c 3.84,2.66 4.95,8.15 2.46,12.26 -2.49,4.11 -7.62,5.28 -11.46,2.63 l -55.25,-38.22 c -3.85,-2.66 -4.95,-8.14 -2.47,-12.26 1.59,-2.62 4.25,-4.05 6.97,-4.05" />
      <path id="path242" style="fill:#4c3498;fill-opacity:1;fill-rule:nonzero;stroke:none" d="m 2926.27,1706.51 c 1.26,0 2.54,0.31 3.74,0.96 4.08,2.21 5.72,7.54 3.65,11.91 l -29.71,62.79 c -2.07,4.37 -7.05,6.12 -11.14,3.9 -4.09,-2.2 -5.72,-7.53 -3.65,-11.91 l 29.71,-62.79 c 1.45,-3.09 4.37,-4.86 7.4,-4.86" />
      <path id="path244" style="fill:#4c3498;fill-opacity:1;fill-rule:nonzero;stroke:none" d="m 2247.15,2023.93 c 2.76,0 5.46,1.47 7.03,4.16 2.43,4.16 1.25,9.62 -2.62,12.22 l -55.77,37.35 c -3.89,2.58 -9,1.34 -11.43,-2.82 -2.43,-4.15 -1.25,-9.62 2.62,-12.22 l 55.77,-37.34 c 1.37,-0.91 2.89,-1.35 4.4,-1.35" />
      <path id="path246" style="fill:#4c3498;fill-opacity:1;fill-rule:nonzero;stroke:none" d="m 2380.85,1935.11 c 2.03,-2 4.95,-2.88 7.81,-2.05 4.42,1.29 7.02,6.16 5.83,10.89 l -17.27,67.9 c -1.21,4.72 -5.75,7.52 -10.17,6.24 -4.43,-1.29 -7.03,-6.17 -5.83,-10.89 l 17.26,-67.91 c 0.43,-1.66 1.27,-3.09 2.37,-4.18" />
      <path id="path248" style="fill:#4c3498;fill-opacity:1;fill-rule:nonzero;stroke:none" d="m 2145.47,2651.86 14.43,-23.39 c 1.6,-2.55 4.24,-3.96 6.95,-3.96 1.56,0 3.12,0.44 4.52,1.45 3.83,2.68 4.89,8.18 2.38,12.27 l -16.03,26.03 c -4.6,-4.22 -8.72,-8.36 -12.25,-12.4" />
      <path id="path250" style="fill:#4c3498;fill-opacity:1;fill-rule:nonzero;stroke:none" d="m 2082.4,2497.48 15.33,-24.89 c 1.61,-2.6 4.24,-4.01 6.95,-4.01 1.57,0 3.13,0.49 4.57,1.46 3.82,2.72 4.85,8.22 2.34,12.3 l -21.75,35.32 c -2.42,-6.51 -4.89,-13.28 -7.44,-20.18" />
      <path id="path252" style="fill:#4c3498;fill-opacity:1;fill-rule:nonzero;stroke:none" d="m 2799.55,1487.28 c 2.18,0 4.35,0.9 5.98,2.72 l 45.56,50.76 c 3.18,3.54 3.07,9.15 -0.23,12.54 -3.3,3.4 -8.56,3.28 -11.73,-0.25 l -45.57,-50.76 c -3.17,-3.54 -3.06,-9.16 0.25,-12.54 1.6,-1.65 3.67,-2.47 5.74,-2.47" />
      <path id="path254" style="fill:#4c3498;fill-opacity:1;fill-rule:nonzero;stroke:none" d="m 2496.34,1309.79 c 2.18,0 4.35,0.92 5.98,2.74 l 45.57,50.76 c 3.17,3.54 3.07,9.14 -0.23,12.54 -3.3,3.4 -8.56,3.28 -11.73,-0.26 l -45.57,-50.77 c -3.17,-3.53 -3.06,-9.14 0.24,-12.52 1.61,-1.66 3.68,-2.49 5.74,-2.49" />
      <path id="path256" style="fill:#4c3498;fill-opacity:1;fill-rule:nonzero;stroke:none" d="m 2412.08,1380.29 c 1.37,1.81 2.07,4.19 1.77,6.69 l -8.22,69.83 c -0.57,4.85 -4.71,8.3 -9.25,7.68 -4.55,-0.6 -7.77,-5.04 -7.19,-9.9 l 8.22,-69.82 c 0.56,-4.87 4.71,-8.31 9.26,-7.69 2.21,0.29 4.11,1.49 5.41,3.21" />
      <path id="path258" style="fill:#4c3498;fill-opacity:1;fill-rule:nonzero;stroke:none" d="m 2584.78,1183.5 c 2.17,0 4.34,0.91 5.97,2.73 l 45.57,50.76 c 3.17,3.54 3.06,9.14 -0.24,12.53 -3.3,3.41 -8.55,3.28 -11.72,-0.25 l -45.57,-50.76 c -3.17,-3.54 -3.07,-9.14 0.24,-12.54 1.6,-1.65 3.68,-2.47 5.75,-2.47" />
      <path id="path260" style="fill:#4c3498;fill-opacity:1;fill-rule:nonzero;stroke:none" d="m 2094.24,1375.62 c -0.04,-6.03 0,-11.97 0,-17.82 l 51.43,-4.61 c 4.57,-0.45 8.6,3.21 8.97,8.09 0.41,4.88 -3,9.15 -7.57,9.59 l -52.83,4.75" />
      <path id="path262" style="fill:#4c3498;fill-opacity:1;fill-rule:nonzero;stroke:none" d="m 2696.62,1594.02 c 2.18,0 4.35,0.92 5.98,2.73 l 45.56,50.77 c 3.18,3.52 3.07,9.14 -0.23,12.53 -3.31,3.4 -8.55,3.28 -11.72,-0.26 l -45.58,-50.76 c -3.17,-3.53 -3.05,-9.15 0.25,-12.54 1.6,-1.65 3.67,-2.47 5.74,-2.47" />
      <path id="path264" style="fill:#4c3498;fill-opacity:1;fill-rule:nonzero;stroke:none" d="m 2477.38,1616.08 c 0.14,-2.32 1.14,-4.59 2.94,-6.2 l 50.36,-45.29 c 3.51,-3.15 8.73,-2.67 11.68,1.08 2.95,3.75 2.49,9.34 -1.01,12.49 l -50.36,45.3 c -3.5,3.15 -8.73,2.66 -11.68,-1.09 -1.44,-1.82 -2.07,-4.09 -1.93,-6.29" />
      <path id="path266" style="fill:#4c3498;fill-opacity:1;fill-rule:nonzero;stroke:none" d="m 2237.43,1366.95 c 1.41,0 2.84,0.39 4.15,1.2 3.96,2.46 5.31,7.88 3.02,12.11 l -32.96,60.91 c -2.3,4.24 -7.36,5.69 -11.33,3.23 -3.97,-2.45 -5.32,-7.88 -3.02,-12.11 l 32.96,-60.91 c 1.53,-2.84 4.32,-4.43 7.18,-4.43" />
      <path id="path268" style="fill:#4c3498;fill-opacity:1;fill-rule:nonzero;stroke:none" d="m 2180.37,1547.99 c 3,0 5.9,1.75 7.37,4.8 l 30.17,62.54 c 2.1,4.35 0.5,9.7 -3.56,11.95 -4.06,2.25 -9.07,0.53 -11.18,-3.81 l -30.16,-62.54 c -2.1,-4.36 -0.5,-9.71 3.57,-11.96 1.21,-0.66 2.51,-0.98 3.79,-0.98" />
      <path id="path270" style="fill:#4c3498;fill-opacity:1;fill-rule:nonzero;stroke:none" d="m 2270.35,2258.07 c 3.01,0 5.9,1.74 7.38,4.8 l 30.16,62.54 c 2.11,4.36 0.5,9.71 -3.56,11.94 -4.06,2.25 -9.07,0.55 -11.17,-3.81 l -30.17,-62.53 c -2.1,-4.36 -0.5,-9.71 3.57,-11.96 1.21,-0.66 2.51,-0.98 3.79,-0.98" />
      <path id="path272" style="fill:#4c3498;fill-opacity:1;fill-rule:nonzero;stroke:none" d="m 2237.41,2520.52 1.58,0.16 c 4.5,0.93 7.44,5.58 6.57,10.39 l -12.47,69.09 c -0.87,4.82 -5.23,7.95 -9.72,7.03 -4.49,-0.93 -7.43,-5.58 -6.57,-10.39 l 12.48,-69.09 c 0.77,-4.25 4.24,-7.19 8.13,-7.19" />
      <path id="path274" style="fill:#4c3498;fill-opacity:1;fill-rule:nonzero;stroke:none" d="m 2085.89,2282.09 1.59,0.16 c 4.49,0.93 7.43,5.58 6.57,10.39 l -12.48,69.09 c -0.87,4.81 -5.23,7.95 -9.71,7.03 -4.5,-0.94 -7.44,-5.59 -6.58,-10.39 l 12.48,-69.09 c 0.77,-4.25 4.24,-7.19 8.13,-7.19" />
      <path id="path276" style="fill:#4c3498;fill-opacity:1;fill-rule:nonzero;stroke:none" d="m 2345.06,2459.85 1.58,0.16 c 4.5,0.93 7.44,5.59 6.57,10.39 l -12.48,69.09 c -0.86,4.82 -5.22,7.94 -9.71,7.03 -4.5,-0.93 -7.44,-5.58 -6.57,-10.39 l 12.48,-69.09 c 0.77,-4.25 4.24,-7.19 8.13,-7.19" />
      <path id="path278" style="fill:#4c3498;fill-opacity:1;fill-rule:nonzero;stroke:none" d="m 2295.65,2700.54 c 1.61,-0.4 3.17,-0.27 4.61,0.26 2.59,0.97 4.69,3.3 5.35,6.33 l 13.93,63.46 c -6.45,-3.7 -12.99,-7.44 -19.49,-11.18 l -10.56,-48.19 c -1.07,-4.79 1.69,-9.54 6.16,-10.68" />
      <path id="path280" style="fill:#4c3498;fill-opacity:1;fill-rule:nonzero;stroke:none" d="m 2105.97,2175.26 c 2.74,0 5.42,1.46 7,4.11 l 35.27,59.42 c 2.45,4.13 1.31,9.62 -2.56,12.24 -3.88,2.62 -8.99,1.39 -11.45,-2.74 l -35.26,-59.4 c -2.45,-4.14 -1.31,-9.62 2.56,-12.25 1.38,-0.94 2.92,-1.38 4.44,-1.38" />
      <path id="path282" style="fill:#4c3498;fill-opacity:1;fill-rule:nonzero;stroke:none" d="m 2341.45,1537 c 2.26,2.59 2.94,6.5 1.43,9.89 l -28.34,63.51 c -1.97,4.41 -6.92,6.29 -11.05,4.18 -4.15,-2.11 -5.89,-7.4 -3.91,-11.82 l 28.33,-63.51 c 1.97,-4.42 6.92,-6.29 11.05,-4.18 0.97,0.49 1.8,1.15 2.49,1.93" />
      <path id="path284" style="fill:#4c3498;fill-opacity:1;fill-rule:nonzero;stroke:none" d="m 2924.65,1417.66 55.38,-9.59 c -0.04,5.93 -0.09,11.91 -0.17,17.98 l -52.55,9.15 c -4.52,0.75 -8.78,-2.51 -9.49,-7.35 -0.74,-4.83 2.31,-9.4 6.83,-10.19" />
      <path id="path286" style="fill:#4c3498;fill-opacity:1;fill-rule:nonzero;stroke:none" d="m 2941.5,1579.91 36.88,-6.37 c -0.08,5.97 -0.12,11.95 -0.21,17.97 l -33.99,5.9 c -4.52,0.79 -8.76,-2.51 -9.5,-7.34 -0.74,-4.85 2.3,-9.37 6.82,-10.16" />
      <path id="path288" style="fill:#4c3498;fill-opacity:1;fill-rule:nonzero;stroke:none" d="m 2128.13,1721.27 c 3.32,0 6.45,2.14 7.72,5.64 l 23.98,65.53 c 1.67,4.56 -0.43,9.71 -4.69,11.49 -4.27,1.79 -9.08,-0.46 -10.75,-5.02 l -23.97,-65.53 c -1.67,-4.56 0.43,-9.71 4.7,-11.5 0.99,-0.41 2.01,-0.61 3.01,-0.61" />
      <path id="path290" style="fill:#4c3498;fill-opacity:1;fill-rule:nonzero;stroke:none" d="m 2097.67,1928.01 c 15.57,64.33 35.14,135.83 54.53,197.43 l 0.13,0.35 c 5.98,19.04 11.96,37.12 17.81,53.69 l 0.3,0.88 c 1.81,5.24 3.66,10.29 5.46,15.22 l 0.44,2.54 v 0.05 c 0,2.95 -1.85,5.72 -4.79,6.82 -3.83,1.37 -8.05,-0.58 -9.42,-4.39 -19.87,-54.18 -43.35,-132.19 -63.49,-208.7 -0.35,-21.2 -0.66,-42.53 -0.97,-63.89" />
      <path id="path292" style="fill:#3e3358;fill-opacity:1;fill-rule:nonzero;stroke:none" d="m 2335.42,3170.02 c 0,0 -57.74,63.64 -35.95,137.66 21.78,74.02 81.4,73.21 81.4,73.21 0,0 34.78,78.74 94.01,81.33 59.23,2.6 115.06,107.79 168.97,79.23 53.89,-28.58 -5.84,-90.91 -5.84,-90.91 0,0 92.34,97.39 122.79,68.83 30.45,-28.57 -42.27,-105.2 -42.27,-105.2 0,0 77.58,54.55 103.07,33.77 25.49,-20.78 -60.8,-110.39 -60.8,-110.39 0,0 55.83,-100.65 -0.36,-145.78 l -425.02,-21.75" />
      <path id="path294" style="fill:#f25349;fill-opacity:1;fill-rule:nonzero;stroke:none" d="m 2738.8,3148.72 c 0,0 36.92,49.22 64.37,8.52 27.46,-40.71 -11.35,-160.93 -78.57,-131.59 l 14.2,123.07" />
      <path id="path296" style="fill:#e43342;fill-opacity:1;fill-rule:nonzero;stroke:none" d="m 2739.28,3062.81 c 2.48,0 4.76,1.64 5.47,4.15 10.42,37.11 48.86,52.16 49.25,52.31 2.93,1.12 4.41,4.4 3.29,7.32 -1.11,2.93 -4.39,4.41 -7.31,3.3 -1.8,-0.68 -44.18,-17.12 -56.17,-59.87 -0.85,-3.02 0.92,-6.15 3.93,-7 l 1.54,-0.21" />
      <path id="path298" style="fill:#e43342;fill-opacity:1;fill-rule:nonzero;stroke:none" d="m 2778.1,3081.5 c 1.05,0 2.11,0.3 3.06,0.91 2.64,1.7 3.4,5.21 1.7,7.85 -0.28,0.44 -7.08,10.82 -21.32,17.19 -2.84,1.28 -6.22,0 -7.5,-2.87 -1.28,-2.86 0,-6.22 2.87,-7.5 11,-4.93 16.35,-12.89 16.4,-12.97 1.09,-1.68 2.92,-2.61 4.79,-2.61" />
      <path id="path300" style="fill:#f25349;fill-opacity:1;fill-rule:nonzero;stroke:none" d="m 2358.33,3148.72 c 0,0 -36.92,49.22 -64.37,8.52 -27.46,-40.71 11.35,-160.93 78.56,-131.59 l -14.19,123.07" />
      <path id="path302" style="fill:#e43342;fill-opacity:1;fill-rule:nonzero;stroke:none" d="m 2357.85,3062.81 c -2.48,0 -4.76,1.64 -5.47,4.15 -10.41,37.11 -48.86,52.16 -49.25,52.31 -2.93,1.12 -4.4,4.4 -3.3,7.32 1.12,2.93 4.39,4.41 7.32,3.3 1.8,-0.68 44.17,-17.12 56.17,-59.87 0.85,-3.02 -0.91,-6.15 -3.94,-7 l -1.53,-0.21" />
      <path id="path304" style="fill:#e43342;fill-opacity:1;fill-rule:nonzero;stroke:none" d="m 2319.03,3081.5 c -1.05,0 -2.12,0.3 -3.07,0.91 -2.63,1.7 -3.39,5.21 -1.7,7.85 0.29,0.44 7.09,10.82 21.32,17.19 2.85,1.28 6.22,0 7.5,-2.87 1.29,-2.86 0,-6.22 -2.86,-7.5 -11.01,-4.93 -16.36,-12.89 -16.41,-12.97 -1.08,-1.68 -2.91,-2.61 -4.78,-2.61" />
      <path id="path306" style="fill:#f6876f;fill-opacity:1;fill-rule:nonzero;stroke:none" d="m 2457.68,2923.68 v -119.56 c 0,0 35.66,-60.89 83.87,-65.03 48.18,-4.21 90.99,52.42 90.99,52.42 v 123.77 l -174.86,8.4" />
      <path id="path308" style="fill:#f25349;fill-opacity:1;fill-rule:nonzero;stroke:none" d="m 2457.68,2923.68 v -53.05 c 32.36,-35.9 89.82,-44.87 174.86,-32.31 v 76.96 l -174.86,8.4" />
      <path id="path310" style="fill:#f6876f;fill-opacity:1;fill-rule:nonzero;stroke:none" d="m 2331.65,3230.72 c 2.19,-46.47 6.61,-104.58 15.49,-151 v -0.14 l 0.09,-0.44 0.05,-0.09 c 2.18,-11.34 4.63,-22 7.31,-31.6 1.61,-5.62 3.35,-11.52 5.32,-17.54 28.34,-88.91 93.99,-217.59 259.01,-158.72 69.49,24.77 105.69,96.54 124.12,174.39 1.07,4.64 2.1,9.23 3,13.65 0.62,2.95 1.2,5.8 1.73,8.62 l 0.8,4.15 0.27,1.52 0.05,0.26 c 10.89,59.86 12.54,120.38 11.74,163.63 -0.85,44.1 -24.96,84.45 -63.34,106.18 -103.95,58.96 -213.71,36.96 -285.97,9.2 -50.17,-19.24 -82.26,-68.47 -79.67,-122.07" />
      <path id="path312" style="fill:#3e3358;fill-opacity:1;fill-rule:nonzero;stroke:none" d="m 2552.23,3009.07 c 117.79,15.89 99.26,-47.54 99.26,-47.54 -13.07,-11.92 -25.03,-20.62 -33.07,-25.13 -25.71,-14.32 -51.02,-19.77 -69.36,-18.88 -18.07,0.76 -23.02,-2.94 -68.73,21.78 -8.08,4.33 -16.25,10.76 -24.24,18.39 h -0.05 v 0.04 c -1.96,12.42 -21.91,71.64 96.19,51.34 z m -205.14,70.65 0.05,-0.14 0.09,-0.44 0.05,-0.09 c 1.06,-3.88 6.87,-25.17 12.63,-49.14 28.34,-88.91 93.99,-217.59 259.01,-158.72 69.49,24.77 105.69,96.54 124.12,174.39 1.07,4.64 2.1,9.23 3,13.65 0.62,2.95 1.2,5.8 1.73,8.62 l 0.8,4.15 0.27,1.52 0.05,0.26 -24.28,4.92 c -4.65,-22.99 -14.91,-44.64 -27.5,-63.88 -20.53,49.19 -124.71,16.52 -124.71,16.52 l -0.49,-0.18 c -6.33,-1.97 -12.85,-2.99 -19.41,-2.99 -6.74,0 -13.44,1.07 -19.95,3.17 0,0 -102.93,34.1 -124.26,-12.81 -21.34,33.03 -35.8,62.97 -35.8,62.97 l -25.35,-1.78 h -0.05" />
      <path id="path314" style="fill:#3e3358;fill-opacity:1;fill-rule:nonzero;stroke:none" d="m 2445.5,3144.26 c 0,-12.77 6.58,-23.11 14.69,-23.11 8.11,0 14.69,10.34 14.69,23.11 0,12.76 -6.58,23.11 -14.69,23.11 -8.11,0 -14.69,-10.35 -14.69,-23.11" />
      <path id="path316" style="fill:#3e3358;fill-opacity:1;fill-rule:nonzero;stroke:none" d="m 2629.15,3144.26 c 0,-12.77 6.58,-23.11 14.7,-23.11 8.11,0 14.69,10.34 14.69,23.11 0,12.76 -6.58,23.11 -14.69,23.11 -8.12,0 -14.7,-10.35 -14.7,-23.11" />
      <path id="path318" style="fill:#3e3358;fill-opacity:1;fill-rule:nonzero;stroke:none" d="m 2407.88,3222.18 c 0,0 60.71,23.99 107.45,3.8 l -4.67,-26 c 0,0 -68.6,5.8 -103.17,-8.21 -3.1,10.01 -3.55,20.12 0.39,30.41" />
      <path id="path320" style="fill:#3e3358;fill-opacity:1;fill-rule:nonzero;stroke:none" d="m 2696.53,3222.06 c 0,0 -61.15,24.17 -108.24,3.83 l 4.71,-26.19 c 0,0 69.12,5.84 103.93,-8.27 3.13,10.08 3.59,20.27 -0.4,30.63" />
      <path id="path322" style="fill:#f25349;fill-opacity:1;fill-rule:nonzero;stroke:none" d="m 2546.59,3040.98 c -9.58,0 -19.09,3.72 -20.55,4.33 -2.91,1.18 -4.3,4.49 -3.11,7.4 1.17,2.9 4.5,4.3 7.39,3.12 5.14,-2.09 17.45,-5.36 22.79,-2.16 1.03,0.62 2.44,1.84 2.79,5.29 2.06,19.83 -3.38,86.32 -3.43,86.99 -0.26,3.12 2.07,5.87 5.2,6.12 3.13,0.27 5.87,-2.07 6.12,-5.19 0.22,-2.78 5.58,-68.21 3.41,-89.09 -0.81,-7.86 -4.93,-11.88 -8.25,-13.87 -3.65,-2.18 -8.01,-2.94 -12.36,-2.94" />
      <path id="path324" style="fill:#ffffff;fill-opacity:1;fill-rule:nonzero;stroke:none" d="m 2619,2997.71 c -4.31,-21.69 -18.64,-61.61 -66.93,-61.61 -48.39,0 -61.97,36.48 -66.63,61.61 H 2619" />
      <path id="path326" style="fill:#3e3358;fill-opacity:1;fill-rule:nonzero;stroke:none" d="m 2331.63,3230.74 c 2.22,-46.47 6.65,-104.57 15.51,-151.03 l 25.38,1.79 c 0,0 -6.15,39.24 -8.98,64.8 -2.85,25.56 -7.67,73.33 14.14,79.3 21.75,5.9 8.99,60.4 39.26,84.03 30.28,23.69 97.99,30.18 142.64,2.69 44.64,-27.43 94.95,2.08 115.52,-2.69 20.61,-4.71 48.55,-33.11 41,-59.63 -7.61,-26.47 15.11,-42.61 20.62,-70.04 5.51,-27.44 -12.1,-101.27 -12.1,-101.27 l 24.26,-4.89 c 10.91,59.87 12.55,120.36 11.75,163.58 -0.84,44.13 -24.94,84.47 -63.33,106.21 -104,58.96 -213.73,36.98 -285.98,9.21 -50.15,-19.26 -82.25,-68.5 -79.69,-122.06" />
      <path id="path328" style="fill:#583c9f;fill-opacity:1;fill-rule:nonzero;stroke:none" d="m 3376.83,1951.36 c -15.44,-140.82 -107.39,-455.42 -171.05,-517.05 -82.87,-80.23 -355.62,-249.13 -497.69,-335.74 -25.64,-15.62 94.75,-119.648 94.75,-119.648 0,0 377.22,161.298 521.28,288.478 40.75,35.98 123.5,149.46 216.92,365.61 28.32,65.53 96.95,197.71 93.39,283.88 -4.1,99.19 -161.68,82.87 -257.6,34.47" />
      <path id="path330" style="fill:#f6876f;fill-opacity:1;fill-rule:nonzero;stroke:none" d="m 3082.48,1142.44 c 0,0 -102.6,-38.96 -138.95,-81.82 -36.37,-42.86 -84.42,-79.222 -72.73,-96.1 11.69,-16.879 64.93,32.46 64.93,32.46 0,0 14.6,-54.25 66.23,-60.101 51.64,-5.84 149.35,95.171 149.35,95.171 l -68.83,110.39" />
      <path id="path332" style="fill:#765cb4;fill-opacity:1;fill-rule:nonzero;stroke:none" d="m 4095.21,1558.17 c 0.03,-8.91 -0.04,-19.45 -0.2,-31.4 -0.16,-11.9 -0.41,-25.17 -0.78,-39.69 -0.28,-9.95 -0.6,-20.47 -0.96,-31.5 -0.34,-9.3 -0.7,-18.94 -1.09,-28.94 -0.44,-10.2 -0.91,-20.72 -1.43,-31.58 -7.14,-147.48 -24.41,-351.11 -62.39,-514.361 h -798.19 c 26.62,118.653 67.35,305.781 99.65,548.591 1.36,10.21 2.71,20.51 4.04,30.93 1.32,10.42 2.61,20.94 3.91,31.54 0.71,5.63 1.38,11.33 2.06,17.01 0.54,4.7 1.09,9.37 1.61,14 1.48,13.09 2.83,25.97 4.03,38.6 1,10.54 1.94,20.91 2.83,31.14 13.68,163.24 8.85,285.58 28.52,358.85 22.91,85.3 290.02,183.08 290.02,183.08 l 167.34,-8.75 c 0,0 159.56,-52.1 244.85,-126.98 85.34,-74.91 13.98,-298.41 16.06,-425.32 0.08,-4.37 0.11,-9.45 0.12,-15.22" />
      <path id="path334" style="fill:#d4bde3;fill-opacity:1;fill-rule:nonzero;stroke:none" d="m 4095.01,1526.77 c -72.57,-8.8 -148.28,-12.29 -222.57,-12.29 -243.29,0 -471.68,37.2 -526.97,46.89 1,10.54 1.94,20.91 2.83,31.14 64.26,-11.38 436.12,-72.88 746.91,-34.34 0.03,-8.91 -0.04,-19.45 -0.2,-31.4" />
      <path id="path336" style="fill:#d4bde3;fill-opacity:1;fill-rule:nonzero;stroke:none" d="m 4094.23,1487.08 c -0.28,-9.95 -0.6,-20.47 -0.96,-31.5 -72.05,-8.66 -147.14,-12.05 -220.83,-12.05 -257.03,0 -497.42,41.5 -534.67,48.23 0.71,5.63 1.38,11.33 2.06,17.01 0.54,4.7 1.09,9.37 1.61,14 36.99,-6.75 427.99,-75.74 752.79,-35.69" />
      <path id="path338" style="fill:#d4bde3;fill-opacity:1;fill-rule:nonzero;stroke:none" d="m 4092.18,1426.64 c -0.44,-10.2 -0.91,-20.72 -1.43,-31.58 -74.96,-9.53 -153.46,-13.25 -230.41,-13.25 -248.86,0 -482.07,38.88 -530.52,47.48 1.36,10.21 2.71,20.51 4.04,30.93 57.6,-10.26 441.73,-75.01 758.32,-33.58" />
      <path id="path340" style="fill:#583c9f;fill-opacity:1;fill-rule:nonzero;stroke:none" d="m 3715.11,1973.9 c 83.21,0 159.98,88.44 163.3,92.33 2.11,2.46 1.82,6.16 -0.64,8.27 -2.45,2.12 -6.16,1.83 -8.28,-0.63 -0.8,-0.94 -81.19,-93.57 -161.55,-87.98 -3.21,0.23 -6.04,-2.22 -6.26,-5.45 -0.22,-3.23 2.22,-6.04 5.45,-6.27 2.66,-0.19 5.33,-0.27 7.98,-0.27" />
      <path id="path342" style="fill:#583c9f;fill-opacity:1;fill-rule:nonzero;stroke:none" d="m 3787.26,979.23 c 2.94,0 5.46,2.211 5.82,5.192 0.37,3.226 -1.95,6.137 -5.17,6.508 -214.94,24.74 -303.97,396.79 -304.85,400.55 -0.74,3.16 -3.89,5.12 -7.05,4.39 -3.16,-0.74 -5.12,-3.9 -4.39,-7.05 3.64,-15.67 91.87,-383.88 314.95,-409.55 l 0.69,-0.04" />
      <path id="path344" style="fill:#583c9f;fill-opacity:1;fill-rule:nonzero;stroke:none" d="m 3701.66,1091.81 c 1.97,0 3.9,0.99 5,2.79 1.7,2.76 0.85,6.38 -1.91,8.08 -114.33,70.48 -131.32,174.38 -131.49,175.43 -0.48,3.19 -3.45,5.43 -6.68,4.92 -3.2,-0.49 -5.41,-3.48 -4.92,-6.67 0.66,-4.48 17.74,-110.2 136.92,-183.67 0.96,-0.6 2.03,-0.88 3.08,-0.88" />
      <path id="path346" style="fill:#3e3358;fill-opacity:1;fill-rule:nonzero;stroke:none" d="m 3532.94,2521.2 c 0,-130.05 105.42,-235.47 235.47,-235.47 130.04,0 235.47,105.42 235.47,235.47 0,130.05 -105.43,235.47 -235.47,235.47 -130.05,0 -235.47,-105.42 -235.47,-235.47" />
      <path id="path348" style="fill:#3e3358;fill-opacity:1;fill-rule:nonzero;stroke:none" d="m 3536.79,2563.42 c 0,0 -66.68,18.41 -57.89,83.12 7.49,55.09 72.18,19.38 66.5,62.42 -5.69,43.06 -18.33,82.19 37.35,92.96 48.72,9.41 49.54,-23.98 113.51,24.46 75.57,57.21 133.61,-75.28 201.06,-79.26 99.48,-5.87 112.04,-62.12 121.82,-107.13 9.79,-45.01 -28.51,-76.57 -28.51,-76.57 h -453.84" />
      <path id="path350" style="fill:#f25349;fill-opacity:1;fill-rule:nonzero;stroke:none" d="m 3572.5,2455.31 c 0,0 -37.29,49.73 -65.03,8.61 -27.73,-41.13 11.48,-162.58 79.38,-132.93 l -14.35,124.32" />
      <path id="path352" style="fill:#e43342;fill-opacity:1;fill-rule:nonzero;stroke:none" d="m 3572.02,2368.52 c -2.51,0 -4.81,1.66 -5.53,4.19 -10.52,37.5 -49.36,52.7 -49.76,52.85 -2.95,1.13 -4.44,4.44 -3.32,7.4 1.12,2.96 4.43,4.44 7.39,3.33 1.82,-0.68 44.63,-17.3 56.75,-60.48 0.85,-3.06 -0.93,-6.22 -3.99,-7.08 l -1.54,-0.21" />
      <path id="path354" style="fill:#e43342;fill-opacity:1;fill-rule:nonzero;stroke:none" d="m 3532.8,2387.4 c -1.06,0 -2.14,0.31 -3.09,0.92 -2.68,1.72 -3.44,5.26 -1.72,7.93 0.28,0.44 7.16,10.93 21.53,17.36 2.88,1.3 6.29,0 7.58,-2.89 1.3,-2.9 0,-6.29 -2.89,-7.59 -11.12,-4.97 -16.52,-13.01 -16.57,-13.09 -1.11,-1.71 -2.95,-2.64 -4.84,-2.64" />
      <path id="path356" style="fill:#f6876f;fill-opacity:1;fill-rule:nonzero;stroke:none" d="m 3843.02,2227.96 v -120.78 c 0,0 -49.66,-53.23 -98.37,-57.42 -48.66,-4.25 -78.27,53.56 -78.27,53.56 v 116.15 l 176.64,8.49" />
      <path id="path358" style="fill:#f25349;fill-opacity:1;fill-rule:nonzero;stroke:none" d="m 3843.02,2227.96 v -53.59 c -32.69,-36.27 -90.73,-45.34 -176.64,-32.65 v 77.75 l 176.64,8.49" />
      <path id="path360" style="fill:#f6876f;fill-opacity:1;fill-rule:nonzero;stroke:none" d="m 3970.37,2538.17 c -2.24,-46.94 -6.72,-105.64 -15.67,-152.57 -2.24,-11.71 -4.76,-22.73 -7.57,-32.6 -25.42,-89.01 -89,-241.63 -267,-178.06 -78.62,28.06 -115.05,115.63 -131.29,204.68 -11.02,60.49 -12.68,121.6 -11.88,165.26 0.86,44.59 25.2,85.33 63.99,107.3 105.06,59.56 215.93,37.36 288.91,9.3 50.67,-19.45 83.09,-69.2 80.51,-123.31" />
      <path id="path362" style="fill:#3e3358;fill-opacity:1;fill-rule:nonzero;stroke:none" d="m 3767.22,2452.85 c 0,8.11 6.58,14.66 14.65,14.66 h 88.09 c 8.11,0 14.66,-6.55 14.66,-14.66 v -11.26 c 0,-16.28 -6.34,-31.83 -17.42,-42.61 -11.06,-10.74 -23.57,-16.31 -37.18,-16.63 h -2.11 c -16.07,0 -31.21,6.24 -42.69,17.64 -11.6,11.53 -18,26.91 -18,43.34 z m -10.39,0 v -9.52 c 0,-19.2 7.48,-37.21 21.09,-50.72 13.41,-13.33 31.14,-20.65 49.99,-20.65 h 2.32 c 16.35,0.35 31.22,6.94 44.23,19.57 13.07,12.76 20.55,30.98 20.55,50.06 v 11.26 c 0,3.13 -0.59,6.11 -1.66,8.87 -1.25,3.36 -3.19,6.35 -5.68,8.84 -4.54,4.54 -10.78,7.34 -17.71,7.34 h -88.09 c -9.98,0 -18.57,-5.82 -22.58,-14.28 -1.5,-3.07 -2.37,-6.5 -2.43,-10.1 l -0.03,-0.67" />
      <path id="path364" style="fill:#3e3358;fill-opacity:1;fill-rule:nonzero;stroke:none" d="m 3590.82,2452.85 c 0,8.11 6.58,14.66 14.65,14.66 h 88.13 c 8.07,0 14.65,-6.55 14.65,-14.66 v -11.26 c 0,-16.28 -6.37,-31.83 -17.42,-42.61 -11.05,-10.74 -23.55,-16.31 -37.17,-16.63 h -2.15 c -16.07,0 -31.22,6.24 -42.64,17.64 -11.64,11.53 -18.05,26.91 -18.05,43.34 z m -10.4,0 v -9.52 c 0,-19.2 7.52,-37.21 21.1,-50.72 13.41,-13.33 31.15,-20.65 49.99,-20.65 h 2.36 c 16.32,0.35 31.21,6.94 44.2,19.57 13.06,12.76 20.57,30.98 20.57,50.06 v 11.26 l -0.03,0.49 c -0.04,3.4 -0.8,6.65 -2.12,9.6 -3.87,8.83 -12.67,14.96 -22.89,14.96 h -88.13 c -7.73,0 -14.65,-3.53 -19.26,-9.04 -2.22,-2.71 -3.92,-5.85 -4.81,-9.29 -0.67,-2.15 -0.98,-4.39 -0.98,-6.72" />
      <path id="path366" style="fill:#3e3358;fill-opacity:1;fill-rule:nonzero;stroke:none" d="m 3957.8,2482.11 c -29.92,1.29 -51.3,-7.34 -59.74,-11.55 -2.36,-1.15 -8.66,-5.25 -8.93,-5.41 l 4.95,-8.82 c 0.07,0.03 6.96,4.15 9.66,5.4 8.29,3.87 26.69,11.62 54.06,10.01 v 10.37" />
      <path id="path368" style="fill:#3e3358;fill-opacity:1;fill-rule:nonzero;stroke:none" d="m 3763.8,2452.46 3.42,9.83 c -0.62,0.21 -15.21,5.22 -31.23,5.22 -17.06,0 -28.05,-5.23 -28.51,-5.46 l 4.54,-9.34 c 0.08,0.02 9.44,4.41 23.97,4.41 14.22,0 27.67,-4.61 27.81,-4.66" />
      <path id="path370" style="fill:#3e3358;fill-opacity:1;fill-rule:nonzero;stroke:none" d="m 3544.03,2479.6 v -10.42 c 21.53,-1.78 41.41,-11.39 41.69,-11.51 l 4.57,9.32 c -1.17,0.59 -22.52,10.88 -46.26,12.61" />
      <path id="path372" style="fill:#3e3358;fill-opacity:1;fill-rule:nonzero;stroke:none" d="m 3661.97,2439.54 c 0,-12.89 -6.64,-23.34 -14.83,-23.34 -8.2,0 -14.85,10.45 -14.85,23.34 0,12.9 6.65,23.35 14.85,23.35 8.19,0 14.83,-10.45 14.83,-23.35" />
      <path id="path374" style="fill:#3e3358;fill-opacity:1;fill-rule:nonzero;stroke:none" d="m 3835.78,2439.54 c 0,-12.89 -6.64,-23.34 -14.84,-23.34 -8.2,0 -14.84,10.45 -14.84,23.34 0,12.9 6.64,23.35 14.84,23.35 8.2,0 14.84,-10.45 14.84,-23.35" />
      <path id="path376" style="fill:#3e3358;fill-opacity:1;fill-rule:nonzero;stroke:none" d="m 3598.86,2511.24 c 0,0 61.78,24.41 109.35,3.86 l -3.97,-22.08 c 0,0 -51.53,11.5 -101.96,-7.32 -3.16,10.19 -7.44,15.07 -3.42,25.54" />
      <path id="path378" style="fill:#3e3358;fill-opacity:1;fill-rule:nonzero;stroke:none" d="m 3881.58,2511.24 c 0,0 -61.79,24.41 -109.35,3.86 l 3.97,-22.08 c 0,0 51.51,11.5 101.96,-7.32 3.16,10.19 7.44,15.07 3.42,25.54" />
      <path id="path380" style="fill:#f25349;fill-opacity:1;fill-rule:nonzero;stroke:none" d="m 3743.14,2341.71 c 9.69,0 19.29,3.76 20.78,4.36 2.93,1.21 4.33,4.55 3.14,7.48 -1.19,2.93 -4.55,4.35 -7.48,3.15 -5.19,-2.1 -17.62,-5.4 -23.02,-2.17 -1.03,0.63 -2.46,1.86 -2.82,5.34 -2.07,20.04 3.42,87.2 3.47,87.88 0.26,3.16 -2.09,5.93 -5.25,6.19 -3.17,0.27 -5.92,-2.09 -6.19,-5.25 -0.22,-2.8 -5.62,-68.91 -3.45,-90 0.83,-7.94 4.99,-12 8.35,-14.01 3.68,-2.2 8.09,-2.97 12.47,-2.97" />
      <path id="path382" style="fill:#ffffff;fill-opacity:1;fill-rule:nonzero;stroke:none" d="m 3672.02,2312.57 c 4.69,-23.6 20.27,-67 72.78,-67 52.64,0 67.41,39.66 72.48,67 h -145.26" />
      <path id="path384" style="fill:#f25349;fill-opacity:1;fill-rule:nonzero;stroke:none" d="m 3744.09,2215.61 c 14.86,0 27.45,7.52 27.98,7.84 2.71,1.64 3.57,5.17 1.93,7.88 -1.64,2.71 -5.16,3.58 -7.88,1.94 -0.09,-0.06 -10.46,-6.19 -22.03,-6.19 -10.61,0 -20.78,6.1 -20.88,6.16 -2.69,1.66 -6.23,0.83 -7.89,-1.86 -1.67,-2.7 -0.84,-6.23 1.87,-7.9 0.52,-0.33 12.89,-7.87 26.9,-7.87" />
      <path id="path386" style="fill:#3e3358;fill-opacity:1;fill-rule:nonzero;stroke:none" d="m 3566.6,2417.03 c -4.33,23.66 -8.62,54.2 -5.51,69.86 5.59,27.71 28.54,44 20.89,70.71 -7.65,26.82 20.59,55.52 41.41,60.29 20.76,4.82 69.35,-5.53 117.18,17.18 45.64,21.7 125,6.18 137.94,-23.12 15.64,-35.47 -5.65,-38.83 37.06,-77.18 17,-15.29 -3.18,-54.99 -6.07,-80.82 -1.29,-11.88 -1.48,-17.68 -1,-30.44 l 0.16,-6.48 h 51.12 c 5.63,40.05 8.85,84.21 10.61,121.15 2.59,54.12 -29.88,103.83 -80.53,123.3 -73,28.06 -183.82,50.29 -288.94,-9.3 -38.76,-21.99 -63.12,-62.7 -63.94,-107.29 -0.65,-34.63 0.27,-80.26 6.18,-127.86 h 23.44" />
      <path id="path388" style="fill:#f6876f;fill-opacity:1;fill-rule:nonzero;stroke:none" d="m 3937.12,2394.95 c -0.16,13.36 0.79,26.74 3.12,39.89 3.2,18.01 8.42,34.34 26.84,41.85 14.82,6.03 30.64,6.15 41.91,-10.55 27.74,-41.13 -3.15,-169.09 -71.05,-139.45 l -0.82,68.26" />
      <path id="path390" style="fill:#f25349;fill-opacity:1;fill-rule:nonzero;stroke:none" d="m 3951.06,2363.96 c 2.47,0.49 4.4,2.57 4.59,5.2 2.98,38.83 38.11,61.34 38.46,61.56 2.68,1.69 3.5,5.23 1.82,7.91 -1.68,2.68 -5.23,3.5 -7.9,1.82 -1.65,-1.03 -40.38,-25.7 -43.81,-70.42 -0.25,-3.16 2.12,-5.91 5.28,-6.15 l 1.56,0.08" />
      <path id="path392" style="fill:#f25349;fill-opacity:1;fill-rule:nonzero;stroke:none" d="m 3985.82,2390.17 c 1.05,0.2 2.04,0.7 2.86,1.5 2.28,2.21 2.34,5.84 0.14,8.12 -0.37,0.37 -9.16,9.31 -24.52,12.8 -3.08,0.71 -6.17,-1.23 -6.87,-4.32 -0.7,-3.08 1.23,-6.16 4.32,-6.86 11.88,-2.71 18.76,-9.54 18.82,-9.61 1.41,-1.46 3.4,-2.01 5.25,-1.63" />
      <path id="path394" style="fill:#583c9f;fill-opacity:1;fill-rule:nonzero;stroke:none" d="m 4045.11,2024.91 c -83.87,-127.11 -404.83,-566.57 -477.25,-617.62 -94.27,-66.46 -351.26,-160.96 -498.81,-259.49 -50.12,-33.47 68.31,-128.2 68.31,-128.2 0,0 359.66,101.1 521.64,204.51 45.82,29.25 236.41,220.16 357.91,389.49 41.63,58 109.35,138.58 119.13,224.27 11.28,98.62 -19.7,151.4 -90.93,187.04" />
      <path id="path396" style="fill:#292346;fill-opacity:1;fill-rule:nonzero;stroke:none" d="m 3408.96,880.699 h -999.83 c -12.78,0 -23.13,10.352 -23.13,23.141 v 79.672 c 0,12.769 10.35,23.128 23.13,23.128 h 999.83 c 12.79,0 23.14,-10.359 23.14,-23.128 V 903.84 c 0,-12.789 -10.35,-23.141 -23.14,-23.141" />
      <path id="path398" style="fill:#3e3358;fill-opacity:1;fill-rule:nonzero;stroke:none" d="m 2386.22,880.699 -196.64,736.391 c -11.04,41.36 20.13,81.95 62.93,81.95 h 432.69 c 29.18,0 54.82,-19.42 62.71,-47.53 l 216.52,-770.811 h -578.21" />
      <path id="path400" style="fill:#292346;fill-opacity:1;fill-rule:nonzero;stroke:none" d="m 2747.94,1651.5 214.73,-764.461 h 49.43 L 2797.38,1651.5 c -7.95,28.12 -33.53,47.56 -62.73,47.56 h -49.45 c 29.2,0 54.79,-19.44 62.74,-47.56" />
      <path id="path402" style="fill:#58426e;fill-opacity:1;fill-rule:nonzero;stroke:none" d="m 2636.7,1256.9 c 11.24,-48.57 -19.02,-87.94 -67.6,-87.94 -48.57,0 -97.06,39.37 -108.29,87.94 -11.24,48.57 19.02,87.94 67.59,87.94 48.57,0 97.06,-39.37 108.3,-87.94" />
      <path id="path404" style="fill:#583c9f;fill-opacity:1;fill-rule:nonzero;stroke:none" d="m 3977.47,3704.3 c -24.99,0 -45.32,-20.34 -45.32,-45.32 0,-24.99 20.33,-45.32 45.32,-45.32 24.98,0 45.31,20.33 45.31,45.32 0,24.98 -20.33,45.32 -45.31,45.32 z m 0,-111.36 c -36.42,0 -66.03,29.63 -66.03,66.04 0,36.41 29.61,66.03 66.03,66.03 36.41,0 66.03,-29.62 66.03,-66.03 0,-36.41 -29.62,-66.04 -66.03,-66.04" />
      <path id="path406" style="fill:#765cb4;fill-opacity:1;fill-rule:nonzero;stroke:none" d="m 4215.19,3472.63 c -24.99,0 -45.33,-20.33 -45.33,-45.32 0,-24.98 20.34,-45.31 45.33,-45.31 24.98,0 45.31,20.33 45.31,45.31 0,24.99 -20.33,45.32 -45.31,45.32 z m 0,-111.35 c -36.42,0 -66.04,29.62 -66.04,66.03 0,36.42 29.62,66.04 66.04,66.04 36.4,0 66.02,-29.62 66.02,-66.04 0,-36.41 -29.62,-66.03 -66.02,-66.03" />
      <path id="path408" style="fill:#583c9f;fill-opacity:1;fill-rule:nonzero;stroke:none" d="m 4296.77,3146.7 c -5.73,0 -10.36,4.64 -10.36,10.36 v 45.68 c 0,5.72 4.63,10.36 10.36,10.36 5.72,0 10.36,-4.64 10.36,-10.36 v -45.68 c 0,-5.72 -4.64,-10.36 -10.36,-10.36" />
      <path id="path410" style="fill:#583c9f;fill-opacity:1;fill-rule:nonzero;stroke:none" d="m 4296.77,3066.77 c -5.73,0 -10.36,4.64 -10.36,10.35 v 45.68 c 0,5.73 4.63,10.36 10.36,10.36 5.72,0 10.36,-4.63 10.36,-10.36 v -45.68 c 0,-5.71 -4.64,-10.35 -10.36,-10.35" />
      <path id="path412" style="fill:#583c9f;fill-opacity:1;fill-rule:nonzero;stroke:none" d="m 4360.89,3129.58 h -41.04 c -5.72,0 -10.36,4.63 -10.36,10.35 0,5.72 4.64,10.36 10.36,10.36 h 41.04 c 5.71,0 10.35,-4.64 10.35,-10.36 0,-5.72 -4.64,-10.35 -10.35,-10.35" />
      <path id="path414" style="fill:#583c9f;fill-opacity:1;fill-rule:nonzero;stroke:none" d="m 4273.68,3129.58 h -41.03 c -5.72,0 -10.36,4.63 -10.36,10.35 0,5.72 4.64,10.36 10.36,10.36 h 41.03 c 5.72,0 10.36,-4.64 10.36,-10.36 0,-5.72 -4.64,-10.35 -10.36,-10.35" />
      <path id="path416" style="fill:#4c3297;fill-opacity:1;fill-rule:nonzero;stroke:none" d="m 3932.15,3402.66 c -5.72,0 -10.36,4.63 -10.36,10.36 v 45.68 c 0,5.72 4.64,10.36 10.36,10.36 5.72,0 10.36,-4.64 10.36,-10.36 v -45.68 c 0,-5.73 -4.64,-10.36 -10.36,-10.36" />
      <path id="path418" style="fill:#4c3297;fill-opacity:1;fill-rule:nonzero;stroke:none" d="m 3932.15,3322.72 c -5.72,0 -10.36,4.64 -10.36,10.36 v 45.68 c 0,5.72 4.64,10.36 10.36,10.36 5.72,0 10.36,-4.64 10.36,-10.36 v -45.68 c 0,-5.72 -4.64,-10.36 -10.36,-10.36" />
      <path id="path420" style="fill:#4c3297;fill-opacity:1;fill-rule:nonzero;stroke:none" d="m 3996.27,3385.53 h -41.04 c -5.72,0 -10.36,4.64 -10.36,10.36 0,5.72 4.64,10.36 10.36,10.36 h 41.04 c 5.71,0 10.35,-4.64 10.35,-10.36 0,-5.72 -4.64,-10.36 -10.35,-10.36" />
      <path id="path422" style="fill:#4c3297;fill-opacity:1;fill-rule:nonzero;stroke:none" d="m 3909.06,3385.53 h -41.02 c -5.73,0 -10.36,4.64 -10.36,10.36 0,5.72 4.63,10.36 10.36,10.36 h 41.02 c 5.73,0 10.36,-4.64 10.36,-10.36 0,-5.72 -4.63,-10.36 -10.36,-10.36" />
      <path id="path424" style="fill:#583c9f;fill-opacity:1;fill-rule:nonzero;stroke:none" d="m 933.676,3896.12 c 0,-24.99 20.332,-45.32 45.316,-45.32 24.988,0 45.318,20.33 45.318,45.32 0,24.99 -20.33,45.32 -45.318,45.32 -24.984,0 -45.316,-20.33 -45.316,-45.32 z m -20.711,0 c 0,36.41 29.617,66.03 66.027,66.03 36.418,0 66.038,-29.62 66.038,-66.03 0,-36.41 -29.62,-66.04 -66.038,-66.04 -36.41,0 -66.027,29.63 -66.027,66.04" />
      <path id="path426" style="fill:#765cb4;fill-opacity:1;fill-rule:nonzero;stroke:none" d="m 668.496,3644.42 c 0,-24.98 20.328,-45.31 45.317,-45.31 24.988,0 45.312,20.33 45.312,45.31 0,24.99 -20.324,45.32 -45.312,45.32 -24.989,0 -45.317,-20.33 -45.317,-45.32 z m -20.719,0 c 0,36.41 29.625,66.04 66.036,66.04 36.406,0 66.031,-29.63 66.031,-66.04 0,-36.41 -29.625,-66.03 -66.031,-66.03 -36.411,0 -66.036,29.62 -66.036,66.03" />
      <path id="path428" style="fill:#583c9f;fill-opacity:1;fill-rule:nonzero;stroke:none" d="m 510.492,3551.76 c 5.719,0 10.36,4.64 10.36,10.36 v 45.68 c 0,5.72 -4.641,10.35 -10.36,10.35 -5.719,0 -10.355,-4.63 -10.355,-10.35 v -45.68 c 0,-5.72 4.636,-10.36 10.355,-10.36" />
      <path id="path430" style="fill:#583c9f;fill-opacity:1;fill-rule:nonzero;stroke:none" d="m 510.492,3471.82 c 5.719,0 10.36,4.64 10.36,10.36 v 45.68 c 0,5.72 -4.641,10.36 -10.36,10.36 -5.719,0 -10.355,-4.64 -10.355,-10.36 v -45.68 c 0,-5.72 4.636,-10.36 10.355,-10.36" />
      <path id="path432" style="fill:#583c9f;fill-opacity:1;fill-rule:nonzero;stroke:none" d="m 446.379,3534.63 h 41.031 c 5.719,0 10.36,4.64 10.36,10.36 0,5.72 -4.641,10.36 -10.36,10.36 h -41.031 c -5.719,0 -10.359,-4.64 -10.359,-10.36 0,-5.72 4.64,-10.36 10.359,-10.36" />
      <path id="path434" style="fill:#583c9f;fill-opacity:1;fill-rule:nonzero;stroke:none" d="m 533.574,3534.63 h 41.035 c 5.719,0 10.356,4.64 10.356,10.36 0,5.72 -4.637,10.36 -10.356,10.36 h -41.035 c -5.719,0 -10.355,-4.64 -10.355,-10.36 0,-5.72 4.636,-10.36 10.355,-10.36" />
      <path id="path436" style="fill:#4c3297;fill-opacity:1;fill-rule:nonzero;stroke:none" d="m 749.164,3902.89 c 5.719,0 10.356,4.63 10.356,10.36 v 45.68 c 0,5.72 -4.637,10.36 -10.356,10.36 -5.719,0 -10.355,-4.64 -10.355,-10.36 v -45.68 c 0,-5.73 4.636,-10.36 10.355,-10.36" />
      <path id="path438" style="fill:#4c3297;fill-opacity:1;fill-rule:nonzero;stroke:none" d="m 749.164,3822.95 c 5.719,0 10.356,4.64 10.356,10.36 v 45.68 c 0,5.72 -4.637,10.36 -10.356,10.36 -5.719,0 -10.355,-4.64 -10.355,-10.36 v -45.68 c 0,-5.72 4.636,-10.36 10.355,-10.36" />
      <path id="path440" style="fill:#4c3297;fill-opacity:1;fill-rule:nonzero;stroke:none" d="m 685.051,3885.76 h 41.035 c 5.715,0 10.355,4.64 10.355,10.36 0,5.72 -4.64,10.35 -10.355,10.35 h -41.035 c -5.719,0 -10.36,-4.63 -10.36,-10.35 0,-5.72 4.641,-10.36 10.36,-10.36" />
      <path id="path442" style="fill:#4c3297;fill-opacity:1;fill-rule:nonzero;stroke:none" d="m 772.25,3885.76 h 41.031 c 5.723,0 10.364,4.64 10.364,10.36 0,5.72 -4.641,10.35 -10.364,10.35 H 772.25 c -5.723,0 -10.359,-4.63 -10.359,-10.35 0,-5.72 4.636,-10.36 10.359,-10.36" />
      <path id="path444" style="fill:#765cb4;fill-opacity:1;fill-rule:nonzero;stroke:none" d="m 3460.3,3826.02 v -201.08 c 0,-26.58 -21.57,-48.14 -48.14,-48.14 h -365.09 l -110.22,-39.54 c -11.32,-4.07 -22.15,7.06 -17.82,18.25 l 41.7,107.67 v 162.84 c 0,26.57 21.56,48.14 48.17,48.14 h 403.26 c 26.57,0 48.14,-21.57 48.14,-48.14" />
      <path id="path446" style="fill:#a585c9;fill-opacity:1;fill-rule:nonzero;stroke:none" d="M 3383.33,3769.13 H 3048.4 c -7.34,0 -13.28,5.94 -13.28,13.28 0,7.34 5.94,13.29 13.28,13.29 h 334.93 c 7.34,0 13.29,-5.95 13.29,-13.29 0,-7.34 -5.95,-13.28 -13.29,-13.28" />
      <path id="path448" style="fill:#a585c9;fill-opacity:1;fill-rule:nonzero;stroke:none" d="M 3383.33,3715.63 H 3048.4 c -7.34,0 -13.28,5.94 -13.28,13.28 0,7.33 5.94,13.28 13.28,13.28 h 334.93 c 7.34,0 13.29,-5.95 13.29,-13.28 0,-7.34 -5.95,-13.28 -13.29,-13.28" />
      <path id="path450" style="fill:#a585c9;fill-opacity:1;fill-rule:nonzero;stroke:none" d="M 3383.33,3662.12 H 3048.4 c -7.34,0 -13.28,5.95 -13.28,13.28 0,7.34 5.94,13.29 13.28,13.29 h 334.93 c 7.34,0 13.29,-5.95 13.29,-13.29 0,-7.33 -5.95,-13.28 -13.29,-13.28" />
      <path id="path452" style="fill:#4c3297;fill-opacity:1;fill-rule:nonzero;stroke:none" d="m 4537.22,805.5 v -7.191 c 0,-41.438 -33.62,-75.059 -75.09,-75.059 H 567.781 c -41.468,0 -75.062,33.621 -75.062,75.059 v 7.191 c 0,41.449 33.594,75.07 75.062,75.07 H 4462.13 c 41.47,0 75.09,-33.621 75.09,-75.07" />
      <path id="path454" style="fill:#583c9f;fill-opacity:1;fill-rule:nonzero;stroke:none" d="m 4537.22,805.5 v -3.602 H 492.719 v 3.602 c 0,41.449 33.594,75.07 75.062,75.07 H 4462.13 c 41.47,0 75.09,-33.621 75.09,-75.07" />
  
    </g>
  </g>
</svg>