<svg width="128" height="112" viewBox="0 0 128 112" fill="none" xmlns="http://www.w3.org/2000/svg">
<path d="M0.0135417 109.181L3.49445 86.2564C9.87789 86.8732 15.0832 85.8634 19.1105 83.2273C23.1361 80.7254 25.9786 76.9999 27.638 72.0509C29.1625 67.2346 29.499 61.5976 28.6473 55.1398L0.690529 54.7919L1.37253 -0.000107691L55.6886 0.675971L55.0066 55.4679C54.7659 74.8063 50.124 89.3888 41.0807 99.2155C32.0358 109.177 18.3467 112.498 0.0135417 109.181ZM72.3019 110.081L75.7828 87.1562C82.1663 87.7729 87.3716 86.7632 91.3989 84.127C95.4245 81.6252 98.267 77.8997 99.9263 72.9507C101.451 68.1344 101.787 62.4973 100.936 56.0396L72.9789 55.6916L73.6609 0.899674L127.977 1.57575L127.295 56.3677C127.054 75.7061 122.412 90.2886 113.369 100.115C104.324 110.076 90.6351 113.398 72.3019 110.081Z" fill="#F3F5FA"/>
</svg>
