<svg width="1440" height="925" viewBox="0 0 1440 925" fill="none" xmlns="http://www.w3.org/2000/svg">
<g opacity="0.2">
<path d="M-12.4035 298.904C40.2551 345.939 186.093 438.471 348.176 432.318C550.78 424.627 337.898 162.931 599.426 235.214C860.954 307.497 847.963 502.96 1117.41 365.313C1386.86 227.667 1347.26 613.072 1555.15 596.765" stroke="#29AAE3"/>
<path d="M-3.08341 337.382C49.5752 384.417 195.413 476.949 357.496 470.796C560.101 463.104 347.218 201.408 608.746 273.692C870.274 345.975 857.283 541.437 1126.73 403.791C1396.18 266.145 1356.58 651.55 1564.47 635.242" stroke="#29AAE3"/>
<path d="M6.23666 375.86C58.8952 422.895 204.733 515.427 366.816 509.274C569.421 501.582 356.538 239.886 618.066 312.169C879.594 384.453 866.604 579.915 1136.05 442.269C1405.5 304.622 1365.9 690.028 1573.79 673.72" stroke="#29AAE3"/>
<path d="M15.5567 414.337C68.2153 461.372 214.053 553.905 376.137 547.751C578.741 540.06 365.858 278.364 627.386 350.647C888.914 422.93 875.924 618.393 1145.37 480.747C1414.82 343.1 1375.22 728.506 1583.11 712.198" stroke="#29AAE3"/>
</g>
</svg>
