<svg width="82" height="134" viewBox="0 0 82 134" fill="none" xmlns="http://www.w3.org/2000/svg">
<path d="M2.31035 4.62069C3.58631 4.62069 4.62069 3.58631 4.62069 2.31035C4.62069 1.03438 3.58631 0 2.31035 0C1.03438 0 0 1.03438 0 2.31035C0 3.58631 1.03438 4.62069 2.31035 4.62069Z" fill="#2C3686"/>
<path d="M13.0916 4.62069C14.3676 4.62069 15.4019 3.58631 15.4019 2.31035C15.4019 1.03438 14.3676 0 13.0916 0C11.8156 0 10.7812 1.03438 10.7812 2.31035C10.7812 3.58631 11.8156 4.62069 13.0916 4.62069Z" fill="#2C3686"/>
<path d="M23.8738 4.62069C25.1498 4.62069 26.1842 3.58631 26.1842 2.31035C26.1842 1.03438 25.1498 0 23.8738 0C22.5979 0 21.5635 1.03438 21.5635 2.31035C21.5635 3.58631 22.5979 4.62069 23.8738 4.62069Z" fill="#2C3686"/>
<path d="M34.6551 4.62069C35.931 4.62069 36.9654 3.58631 36.9654 2.31035C36.9654 1.03438 35.931 0 34.6551 0C33.3791 0 32.3447 1.03438 32.3447 2.31035C32.3447 3.58631 33.3791 4.62069 34.6551 4.62069Z" fill="#2C3686"/>
<path d="M45.4373 4.62069C46.7133 4.62069 47.7476 3.58631 47.7476 2.31035C47.7476 1.03438 46.7133 0 45.4373 0C44.1613 0 43.127 1.03438 43.127 2.31035C43.127 3.58631 44.1613 4.62069 45.4373 4.62069Z" fill="#2C3686"/>
<path d="M56.2185 4.62069C57.4945 4.62069 58.5289 3.58631 58.5289 2.31035C58.5289 1.03438 57.4945 0 56.2185 0C54.9426 0 53.9082 1.03438 53.9082 2.31035C53.9082 3.58631 54.9426 4.62069 56.2185 4.62069Z" fill="#2C3686"/>
<path d="M66.9998 4.62069C68.2758 4.62069 69.3101 3.58631 69.3101 2.31035C69.3101 1.03438 68.2758 0 66.9998 0C65.7238 0 64.6895 1.03438 64.6895 2.31035C64.6895 3.58631 65.7238 4.62069 66.9998 4.62069Z" fill="#2C3686"/>
<path d="M77.782 4.62069C79.058 4.62069 80.0924 3.58631 80.0924 2.31035C80.0924 1.03438 79.058 0 77.782 0C76.5061 0 75.4717 1.03438 75.4717 2.31035C75.4717 3.58631 76.5061 4.62069 77.782 4.62069Z" fill="#2C3686"/>
<path d="M2.31035 15.4024C3.58631 15.4024 4.62069 14.3681 4.62069 13.0921C4.62069 11.8161 3.58631 10.7817 2.31035 10.7817C1.03438 10.7817 0 11.8161 0 13.0921C0 14.3681 1.03438 15.4024 2.31035 15.4024Z" fill="#2C3686"/>
<path d="M13.0916 15.4024C14.3676 15.4024 15.4019 14.3681 15.4019 13.0921C15.4019 11.8161 14.3676 10.7817 13.0916 10.7817C11.8156 10.7817 10.7812 11.8161 10.7812 13.0921C10.7812 14.3681 11.8156 15.4024 13.0916 15.4024Z" fill="#2C3686"/>
<path d="M23.8738 15.4024C25.1498 15.4024 26.1842 14.3681 26.1842 13.0921C26.1842 11.8161 25.1498 10.7817 23.8738 10.7817C22.5979 10.7817 21.5635 11.8161 21.5635 13.0921C21.5635 14.3681 22.5979 15.4024 23.8738 15.4024Z" fill="#2C3686"/>
<path d="M34.6551 15.4024C35.931 15.4024 36.9654 14.3681 36.9654 13.0921C36.9654 11.8161 35.931 10.7817 34.6551 10.7817C33.3791 10.7817 32.3447 11.8161 32.3447 13.0921C32.3447 14.3681 33.3791 15.4024 34.6551 15.4024Z" fill="#2C3686"/>
<path d="M45.4373 15.4024C46.7133 15.4024 47.7476 14.3681 47.7476 13.0921C47.7476 11.8161 46.7133 10.7817 45.4373 10.7817C44.1613 10.7817 43.127 11.8161 43.127 13.0921C43.127 14.3681 44.1613 15.4024 45.4373 15.4024Z" fill="#2C3686"/>
<path d="M56.2185 15.4024C57.4945 15.4024 58.5289 14.3681 58.5289 13.0921C58.5289 11.8161 57.4945 10.7817 56.2185 10.7817C54.9426 10.7817 53.9082 11.8161 53.9082 13.0921C53.9082 14.3681 54.9426 15.4024 56.2185 15.4024Z" fill="#2C3686"/>
<path d="M66.9998 15.4024C68.2758 15.4024 69.3101 14.3681 69.3101 13.0921C69.3101 11.8161 68.2758 10.7817 66.9998 10.7817C65.7238 10.7817 64.6895 11.8161 64.6895 13.0921C64.6895 14.3681 65.7238 15.4024 66.9998 15.4024Z" fill="#2C3686"/>
<path d="M77.782 15.4024C79.058 15.4024 80.0924 14.3681 80.0924 13.0921C80.0924 11.8161 79.058 10.7817 77.782 10.7817C76.5061 10.7817 75.4717 11.8161 75.4717 13.0921C75.4717 14.3681 76.5061 15.4024 77.782 15.4024Z" fill="#2C3686"/>
<path d="M2.31035 26.1839C3.58631 26.1839 4.62069 25.1495 4.62069 23.8736C4.62069 22.5976 3.58631 21.5632 2.31035 21.5632C1.03438 21.5632 0 22.5976 0 23.8736C0 25.1495 1.03438 26.1839 2.31035 26.1839Z" fill="#2C3686"/>
<path d="M13.0916 26.1839C14.3676 26.1839 15.4019 25.1495 15.4019 23.8736C15.4019 22.5976 14.3676 21.5632 13.0916 21.5632C11.8156 21.5632 10.7812 22.5976 10.7812 23.8736C10.7812 25.1495 11.8156 26.1839 13.0916 26.1839Z" fill="#2C3686"/>
<path d="M23.8738 26.1839C25.1498 26.1839 26.1842 25.1495 26.1842 23.8736C26.1842 22.5976 25.1498 21.5632 23.8738 21.5632C22.5979 21.5632 21.5635 22.5976 21.5635 23.8736C21.5635 25.1495 22.5979 26.1839 23.8738 26.1839Z" fill="#2C3686"/>
<path d="M34.6551 26.1839C35.931 26.1839 36.9654 25.1495 36.9654 23.8736C36.9654 22.5976 35.931 21.5632 34.6551 21.5632C33.3791 21.5632 32.3447 22.5976 32.3447 23.8736C32.3447 25.1495 33.3791 26.1839 34.6551 26.1839Z" fill="#2C3686"/>
<path d="M45.4373 26.1839C46.7133 26.1839 47.7476 25.1495 47.7476 23.8736C47.7476 22.5976 46.7133 21.5632 45.4373 21.5632C44.1613 21.5632 43.127 22.5976 43.127 23.8736C43.127 25.1495 44.1613 26.1839 45.4373 26.1839Z" fill="#2C3686"/>
<path d="M56.2185 26.1839C57.4945 26.1839 58.5289 25.1495 58.5289 23.8736C58.5289 22.5976 57.4945 21.5632 56.2185 21.5632C54.9426 21.5632 53.9082 22.5976 53.9082 23.8736C53.9082 25.1495 54.9426 26.1839 56.2185 26.1839Z" fill="#2C3686"/>
<path d="M66.9998 26.1839C68.2758 26.1839 69.3101 25.1495 69.3101 23.8736C69.3101 22.5976 68.2758 21.5632 66.9998 21.5632C65.7238 21.5632 64.6895 22.5976 64.6895 23.8736C64.6895 25.1495 65.7238 26.1839 66.9998 26.1839Z" fill="#2C3686"/>
<path d="M77.782 26.1839C79.058 26.1839 80.0924 25.1495 80.0924 23.8736C80.0924 22.5976 79.058 21.5632 77.782 21.5632C76.5061 21.5632 75.4717 22.5976 75.4717 23.8736C75.4717 25.1495 76.5061 26.1839 77.782 26.1839Z" fill="#2C3686"/>
<path d="M2.31035 36.9657C3.58631 36.9657 4.62069 35.9313 4.62069 34.6553C4.62069 33.3793 3.58631 32.345 2.31035 32.345C1.03438 32.345 0 33.3793 0 34.6553C0 35.9313 1.03438 36.9657 2.31035 36.9657Z" fill="#2C3686"/>
<path d="M13.0916 36.9657C14.3676 36.9657 15.4019 35.9313 15.4019 34.6553C15.4019 33.3793 14.3676 32.345 13.0916 32.345C11.8156 32.345 10.7812 33.3793 10.7812 34.6553C10.7812 35.9313 11.8156 36.9657 13.0916 36.9657Z" fill="#2C3686"/>
<path d="M23.8738 36.9657C25.1498 36.9657 26.1842 35.9313 26.1842 34.6553C26.1842 33.3793 25.1498 32.345 23.8738 32.345C22.5979 32.345 21.5635 33.3793 21.5635 34.6553C21.5635 35.9313 22.5979 36.9657 23.8738 36.9657Z" fill="#2C3686"/>
<path d="M34.6551 36.9657C35.931 36.9657 36.9654 35.9313 36.9654 34.6553C36.9654 33.3793 35.931 32.345 34.6551 32.345C33.3791 32.345 32.3447 33.3793 32.3447 34.6553C32.3447 35.9313 33.3791 36.9657 34.6551 36.9657Z" fill="#2C3686"/>
<path d="M45.4373 36.9657C46.7133 36.9657 47.7476 35.9313 47.7476 34.6553C47.7476 33.3793 46.7133 32.345 45.4373 32.345C44.1613 32.345 43.127 33.3793 43.127 34.6553C43.127 35.9313 44.1613 36.9657 45.4373 36.9657Z" fill="#2C3686"/>
<path d="M56.2185 36.9657C57.4945 36.9657 58.5289 35.9313 58.5289 34.6553C58.5289 33.3793 57.4945 32.345 56.2185 32.345C54.9426 32.345 53.9082 33.3793 53.9082 34.6553C53.9082 35.9313 54.9426 36.9657 56.2185 36.9657Z" fill="#2C3686"/>
<path d="M66.9998 36.9657C68.2758 36.9657 69.3101 35.9313 69.3101 34.6553C69.3101 33.3793 68.2758 32.345 66.9998 32.345C65.7238 32.345 64.6895 33.3793 64.6895 34.6553C64.6895 35.9313 65.7238 36.9657 66.9998 36.9657Z" fill="#2C3686"/>
<path d="M77.782 36.9657C79.058 36.9657 80.0924 35.9313 80.0924 34.6553C80.0924 33.3793 79.058 32.345 77.782 32.345C76.5061 32.345 75.4717 33.3793 75.4717 34.6553C75.4717 35.9313 76.5061 36.9657 77.782 36.9657Z" fill="#2C3686"/>
<path d="M2.31035 47.7472C3.58631 47.7472 4.62069 46.7128 4.62069 45.4368C4.62069 44.1608 3.58631 43.1265 2.31035 43.1265C1.03438 43.1265 0 44.1608 0 45.4368C0 46.7128 1.03438 47.7472 2.31035 47.7472Z" fill="#2C3686"/>
<path d="M13.0916 47.7472C14.3676 47.7472 15.4019 46.7128 15.4019 45.4368C15.4019 44.1608 14.3676 43.1265 13.0916 43.1265C11.8156 43.1265 10.7812 44.1608 10.7812 45.4368C10.7812 46.7128 11.8156 47.7472 13.0916 47.7472Z" fill="#2C3686"/>
<path d="M23.8738 47.7472C25.1498 47.7472 26.1842 46.7128 26.1842 45.4368C26.1842 44.1608 25.1498 43.1265 23.8738 43.1265C22.5979 43.1265 21.5635 44.1608 21.5635 45.4368C21.5635 46.7128 22.5979 47.7472 23.8738 47.7472Z" fill="#2C3686"/>
<path d="M34.6551 47.7472C35.931 47.7472 36.9654 46.7128 36.9654 45.4368C36.9654 44.1608 35.931 43.1265 34.6551 43.1265C33.3791 43.1265 32.3447 44.1608 32.3447 45.4368C32.3447 46.7128 33.3791 47.7472 34.6551 47.7472Z" fill="#2C3686"/>
<path d="M45.4373 47.7472C46.7133 47.7472 47.7476 46.7128 47.7476 45.4368C47.7476 44.1608 46.7133 43.1265 45.4373 43.1265C44.1613 43.1265 43.127 44.1608 43.127 45.4368C43.127 46.7128 44.1613 47.7472 45.4373 47.7472Z" fill="#2C3686"/>
<path d="M56.2185 47.7472C57.4945 47.7472 58.5289 46.7128 58.5289 45.4368C58.5289 44.1608 57.4945 43.1265 56.2185 43.1265C54.9426 43.1265 53.9082 44.1608 53.9082 45.4368C53.9082 46.7128 54.9426 47.7472 56.2185 47.7472Z" fill="#2C3686"/>
<path d="M66.9998 47.7472C68.2758 47.7472 69.3101 46.7128 69.3101 45.4368C69.3101 44.1608 68.2758 43.1265 66.9998 43.1265C65.7238 43.1265 64.6895 44.1608 64.6895 45.4368C64.6895 46.7128 65.7238 47.7472 66.9998 47.7472Z" fill="#2C3686"/>
<path d="M77.782 47.7472C79.058 47.7472 80.0924 46.7128 80.0924 45.4368C80.0924 44.1608 79.058 43.1265 77.782 43.1265C76.5061 43.1265 75.4717 44.1608 75.4717 45.4368C75.4717 46.7128 76.5061 47.7472 77.782 47.7472Z" fill="#2C3686"/>
<path d="M2.31035 58.5287C3.58631 58.5287 4.62069 57.4943 4.62069 56.2183C4.62069 54.9423 3.58631 53.908 2.31035 53.908C1.03438 53.908 0 54.9423 0 56.2183C0 57.4943 1.03438 58.5287 2.31035 58.5287Z" fill="#2C3686"/>
<path d="M13.0916 58.5287C14.3676 58.5287 15.4019 57.4943 15.4019 56.2183C15.4019 54.9423 14.3676 53.908 13.0916 53.908C11.8156 53.908 10.7812 54.9423 10.7812 56.2183C10.7812 57.4943 11.8156 58.5287 13.0916 58.5287Z" fill="#2C3686"/>
<path d="M23.8738 58.5287C25.1498 58.5287 26.1842 57.4943 26.1842 56.2183C26.1842 54.9423 25.1498 53.908 23.8738 53.908C22.5979 53.908 21.5635 54.9423 21.5635 56.2183C21.5635 57.4943 22.5979 58.5287 23.8738 58.5287Z" fill="#2C3686"/>
<path d="M34.6551 58.5287C35.931 58.5287 36.9654 57.4943 36.9654 56.2183C36.9654 54.9423 35.931 53.908 34.6551 53.908C33.3791 53.908 32.3447 54.9423 32.3447 56.2183C32.3447 57.4943 33.3791 58.5287 34.6551 58.5287Z" fill="#2C3686"/>
<path d="M45.4373 58.5287C46.7133 58.5287 47.7476 57.4943 47.7476 56.2183C47.7476 54.9423 46.7133 53.908 45.4373 53.908C44.1613 53.908 43.127 54.9423 43.127 56.2183C43.127 57.4943 44.1613 58.5287 45.4373 58.5287Z" fill="#2C3686"/>
<path d="M56.2185 58.5287C57.4945 58.5287 58.5289 57.4943 58.5289 56.2183C58.5289 54.9423 57.4945 53.908 56.2185 53.908C54.9426 53.908 53.9082 54.9423 53.9082 56.2183C53.9082 57.4943 54.9426 58.5287 56.2185 58.5287Z" fill="#2C3686"/>
<path d="M66.9998 58.5287C68.2758 58.5287 69.3101 57.4943 69.3101 56.2183C69.3101 54.9423 68.2758 53.908 66.9998 53.908C65.7238 53.908 64.6895 54.9423 64.6895 56.2183C64.6895 57.4943 65.7238 58.5287 66.9998 58.5287Z" fill="#2C3686"/>
<path d="M77.782 58.5287C79.058 58.5287 80.0924 57.4943 80.0924 56.2183C80.0924 54.9423 79.058 53.908 77.782 53.908C76.5061 53.908 75.4717 54.9423 75.4717 56.2183C75.4717 57.4943 76.5061 58.5287 77.782 58.5287Z" fill="#2C3686"/>
<path d="M2.31035 69.3104C3.58631 69.3104 4.62069 68.276 4.62069 67C4.62069 65.7241 3.58631 64.6897 2.31035 64.6897C1.03438 64.6897 0 65.7241 0 67C0 68.276 1.03438 69.3104 2.31035 69.3104Z" fill="#2C3686"/>
<path d="M13.0916 69.3104C14.3676 69.3104 15.4019 68.276 15.4019 67C15.4019 65.7241 14.3676 64.6897 13.0916 64.6897C11.8156 64.6897 10.7812 65.7241 10.7812 67C10.7812 68.276 11.8156 69.3104 13.0916 69.3104Z" fill="#2C3686"/>
<path d="M23.8738 69.3104C25.1498 69.3104 26.1842 68.276 26.1842 67C26.1842 65.7241 25.1498 64.6897 23.8738 64.6897C22.5979 64.6897 21.5635 65.7241 21.5635 67C21.5635 68.276 22.5979 69.3104 23.8738 69.3104Z" fill="#2C3686"/>
<path d="M34.6551 69.3104C35.931 69.3104 36.9654 68.276 36.9654 67C36.9654 65.7241 35.931 64.6897 34.6551 64.6897C33.3791 64.6897 32.3447 65.7241 32.3447 67C32.3447 68.276 33.3791 69.3104 34.6551 69.3104Z" fill="#2C3686"/>
<path d="M45.4373 69.3104C46.7133 69.3104 47.7476 68.276 47.7476 67C47.7476 65.7241 46.7133 64.6897 45.4373 64.6897C44.1613 64.6897 43.127 65.7241 43.127 67C43.127 68.276 44.1613 69.3104 45.4373 69.3104Z" fill="#2C3686"/>
<path d="M56.2185 69.3104C57.4945 69.3104 58.5289 68.276 58.5289 67C58.5289 65.7241 57.4945 64.6897 56.2185 64.6897C54.9426 64.6897 53.9082 65.7241 53.9082 67C53.9082 68.276 54.9426 69.3104 56.2185 69.3104Z" fill="#2C3686"/>
<path d="M66.9998 69.3104C68.2758 69.3104 69.3101 68.276 69.3101 67C69.3101 65.7241 68.2758 64.6897 66.9998 64.6897C65.7238 64.6897 64.6895 65.7241 64.6895 67C64.6895 68.276 65.7238 69.3104 66.9998 69.3104Z" fill="#2C3686"/>
<path d="M77.782 69.3104C79.058 69.3104 80.0924 68.276 80.0924 67C80.0924 65.7241 79.058 64.6897 77.782 64.6897C76.5061 64.6897 75.4717 65.7241 75.4717 67C75.4717 68.276 76.5061 69.3104 77.782 69.3104Z" fill="#2C3686"/>
<path d="M2.31035 80.0919C3.58631 80.0919 4.62069 79.0575 4.62069 77.7815C4.62069 76.5056 3.58631 75.4712 2.31035 75.4712C1.03438 75.4712 0 76.5056 0 77.7815C0 79.0575 1.03438 80.0919 2.31035 80.0919Z" fill="#2C3686"/>
<path d="M13.0916 80.0919C14.3676 80.0919 15.4019 79.0575 15.4019 77.7815C15.4019 76.5056 14.3676 75.4712 13.0916 75.4712C11.8156 75.4712 10.7812 76.5056 10.7812 77.7815C10.7812 79.0575 11.8156 80.0919 13.0916 80.0919Z" fill="#2C3686"/>
<path d="M23.8738 80.0919C25.1498 80.0919 26.1842 79.0575 26.1842 77.7815C26.1842 76.5056 25.1498 75.4712 23.8738 75.4712C22.5979 75.4712 21.5635 76.5056 21.5635 77.7815C21.5635 79.0575 22.5979 80.0919 23.8738 80.0919Z" fill="#2C3686"/>
<path d="M34.6551 80.0919C35.931 80.0919 36.9654 79.0575 36.9654 77.7815C36.9654 76.5056 35.931 75.4712 34.6551 75.4712C33.3791 75.4712 32.3447 76.5056 32.3447 77.7815C32.3447 79.0575 33.3791 80.0919 34.6551 80.0919Z" fill="#2C3686"/>
<path d="M45.4373 80.0919C46.7133 80.0919 47.7476 79.0575 47.7476 77.7815C47.7476 76.5056 46.7133 75.4712 45.4373 75.4712C44.1613 75.4712 43.127 76.5056 43.127 77.7815C43.127 79.0575 44.1613 80.0919 45.4373 80.0919Z" fill="#2C3686"/>
<path d="M56.2185 80.0919C57.4945 80.0919 58.5289 79.0575 58.5289 77.7815C58.5289 76.5056 57.4945 75.4712 56.2185 75.4712C54.9426 75.4712 53.9082 76.5056 53.9082 77.7815C53.9082 79.0575 54.9426 80.0919 56.2185 80.0919Z" fill="#2C3686"/>
<path d="M66.9998 80.0919C68.2758 80.0919 69.3101 79.0575 69.3101 77.7815C69.3101 76.5056 68.2758 75.4712 66.9998 75.4712C65.7238 75.4712 64.6895 76.5056 64.6895 77.7815C64.6895 79.0575 65.7238 80.0919 66.9998 80.0919Z" fill="#2C3686"/>
<path d="M77.782 80.0919C79.058 80.0919 80.0924 79.0575 80.0924 77.7815C80.0924 76.5056 79.058 75.4712 77.782 75.4712C76.5061 75.4712 75.4717 76.5056 75.4717 77.7815C75.4717 79.0575 76.5061 80.0919 77.782 80.0919Z" fill="#2C3686"/>
<path d="M2.31035 90.8736C3.58631 90.8736 4.62069 89.8392 4.62069 88.5633C4.62069 87.2873 3.58631 86.2529 2.31035 86.2529C1.03438 86.2529 0 87.2873 0 88.5633C0 89.8392 1.03438 90.8736 2.31035 90.8736Z" fill="#2C3686"/>
<path d="M13.0916 90.8736C14.3676 90.8736 15.4019 89.8392 15.4019 88.5633C15.4019 87.2873 14.3676 86.2529 13.0916 86.2529C11.8156 86.2529 10.7812 87.2873 10.7812 88.5633C10.7812 89.8392 11.8156 90.8736 13.0916 90.8736Z" fill="#2C3686"/>
<path d="M23.8738 90.8736C25.1498 90.8736 26.1842 89.8392 26.1842 88.5633C26.1842 87.2873 25.1498 86.2529 23.8738 86.2529C22.5979 86.2529 21.5635 87.2873 21.5635 88.5633C21.5635 89.8392 22.5979 90.8736 23.8738 90.8736Z" fill="#2C3686"/>
<path d="M34.6551 90.8736C35.931 90.8736 36.9654 89.8392 36.9654 88.5633C36.9654 87.2873 35.931 86.2529 34.6551 86.2529C33.3791 86.2529 32.3447 87.2873 32.3447 88.5633C32.3447 89.8392 33.3791 90.8736 34.6551 90.8736Z" fill="#2C3686"/>
<path d="M45.4373 90.8736C46.7133 90.8736 47.7476 89.8392 47.7476 88.5633C47.7476 87.2873 46.7133 86.2529 45.4373 86.2529C44.1613 86.2529 43.127 87.2873 43.127 88.5633C43.127 89.8392 44.1613 90.8736 45.4373 90.8736Z" fill="#2C3686"/>
<path d="M56.2185 90.8736C57.4945 90.8736 58.5289 89.8392 58.5289 88.5633C58.5289 87.2873 57.4945 86.2529 56.2185 86.2529C54.9426 86.2529 53.9082 87.2873 53.9082 88.5633C53.9082 89.8392 54.9426 90.8736 56.2185 90.8736Z" fill="#2C3686"/>
<path d="M66.9998 90.8736C68.2758 90.8736 69.3101 89.8392 69.3101 88.5633C69.3101 87.2873 68.2758 86.2529 66.9998 86.2529C65.7238 86.2529 64.6895 87.2873 64.6895 88.5633C64.6895 89.8392 65.7238 90.8736 66.9998 90.8736Z" fill="#2C3686"/>
<path d="M77.782 90.8736C79.058 90.8736 80.0924 89.8392 80.0924 88.5633C80.0924 87.2873 79.058 86.2529 77.782 86.2529C76.5061 86.2529 75.4717 87.2873 75.4717 88.5633C75.4717 89.8392 76.5061 90.8736 77.782 90.8736Z" fill="#2C3686"/>
<path d="M2.31035 101.655C3.58631 101.655 4.62069 100.621 4.62069 99.345C4.62069 98.069 3.58631 97.0347 2.31035 97.0347C1.03438 97.0347 0 98.069 0 99.345C0 100.621 1.03438 101.655 2.31035 101.655Z" fill="#2C3686"/>
<path d="M13.0916 101.655C14.3676 101.655 15.4019 100.621 15.4019 99.345C15.4019 98.069 14.3676 97.0347 13.0916 97.0347C11.8156 97.0347 10.7812 98.069 10.7812 99.345C10.7812 100.621 11.8156 101.655 13.0916 101.655Z" fill="#2C3686"/>
<path d="M23.8738 101.655C25.1498 101.655 26.1842 100.621 26.1842 99.345C26.1842 98.069 25.1498 97.0347 23.8738 97.0347C22.5979 97.0347 21.5635 98.069 21.5635 99.345C21.5635 100.621 22.5979 101.655 23.8738 101.655Z" fill="#2C3686"/>
<path d="M34.6551 101.655C35.931 101.655 36.9654 100.621 36.9654 99.345C36.9654 98.069 35.931 97.0347 34.6551 97.0347C33.3791 97.0347 32.3447 98.069 32.3447 99.345C32.3447 100.621 33.3791 101.655 34.6551 101.655Z" fill="#2C3686"/>
<path d="M45.4373 101.655C46.7133 101.655 47.7476 100.621 47.7476 99.345C47.7476 98.069 46.7133 97.0347 45.4373 97.0347C44.1613 97.0347 43.127 98.069 43.127 99.345C43.127 100.621 44.1613 101.655 45.4373 101.655Z" fill="#2C3686"/>
<path d="M56.2185 101.655C57.4945 101.655 58.5289 100.621 58.5289 99.345C58.5289 98.069 57.4945 97.0347 56.2185 97.0347C54.9426 97.0347 53.9082 98.069 53.9082 99.345C53.9082 100.621 54.9426 101.655 56.2185 101.655Z" fill="#2C3686"/>
<path d="M66.9998 101.655C68.2758 101.655 69.3101 100.621 69.3101 99.345C69.3101 98.069 68.2758 97.0347 66.9998 97.0347C65.7238 97.0347 64.6895 98.069 64.6895 99.345C64.6895 100.621 65.7238 101.655 66.9998 101.655Z" fill="#2C3686"/>
<path d="M77.782 101.655C79.058 101.655 80.0924 100.621 80.0924 99.345C80.0924 98.069 79.058 97.0347 77.782 97.0347C76.5061 97.0347 75.4717 98.069 75.4717 99.345C75.4717 100.621 76.5061 101.655 77.782 101.655Z" fill="#2C3686"/>
<path d="M2.31035 112.437C3.58631 112.437 4.62069 111.402 4.62069 110.127C4.62069 108.851 3.58631 107.816 2.31035 107.816C1.03438 107.816 0 108.851 0 110.127C0 111.402 1.03438 112.437 2.31035 112.437Z" fill="#2C3686"/>
<path d="M13.0916 112.437C14.3676 112.437 15.4019 111.402 15.4019 110.127C15.4019 108.851 14.3676 107.816 13.0916 107.816C11.8156 107.816 10.7812 108.851 10.7812 110.127C10.7812 111.402 11.8156 112.437 13.0916 112.437Z" fill="#2C3686"/>
<path d="M23.8738 112.437C25.1498 112.437 26.1842 111.402 26.1842 110.127C26.1842 108.851 25.1498 107.816 23.8738 107.816C22.5979 107.816 21.5635 108.851 21.5635 110.127C21.5635 111.402 22.5979 112.437 23.8738 112.437Z" fill="#2C3686"/>
<path d="M34.6551 112.437C35.931 112.437 36.9654 111.402 36.9654 110.127C36.9654 108.851 35.931 107.816 34.6551 107.816C33.3791 107.816 32.3447 108.851 32.3447 110.127C32.3447 111.402 33.3791 112.437 34.6551 112.437Z" fill="#2C3686"/>
<path d="M45.4373 112.437C46.7133 112.437 47.7476 111.402 47.7476 110.127C47.7476 108.851 46.7133 107.816 45.4373 107.816C44.1613 107.816 43.127 108.851 43.127 110.127C43.127 111.402 44.1613 112.437 45.4373 112.437Z" fill="#2C3686"/>
<path d="M56.2185 112.437C57.4945 112.437 58.5289 111.402 58.5289 110.127C58.5289 108.851 57.4945 107.816 56.2185 107.816C54.9426 107.816 53.9082 108.851 53.9082 110.127C53.9082 111.402 54.9426 112.437 56.2185 112.437Z" fill="#2C3686"/>
<path d="M66.9998 112.437C68.2758 112.437 69.3101 111.402 69.3101 110.127C69.3101 108.851 68.2758 107.816 66.9998 107.816C65.7238 107.816 64.6895 108.851 64.6895 110.127C64.6895 111.402 65.7238 112.437 66.9998 112.437Z" fill="#2C3686"/>
<path d="M77.782 112.437C79.058 112.437 80.0924 111.402 80.0924 110.127C80.0924 108.851 79.058 107.816 77.782 107.816C76.5061 107.816 75.4717 108.851 75.4717 110.127C75.4717 111.402 76.5061 112.437 77.782 112.437Z" fill="#2C3686"/>
<path d="M2.31035 123.219C3.58631 123.219 4.62069 122.184 4.62069 120.908C4.62069 119.632 3.58631 118.598 2.31035 118.598C1.03438 118.598 0 119.632 0 120.908C0 122.184 1.03438 123.219 2.31035 123.219Z" fill="#2C3686"/>
<path d="M13.0916 123.219C14.3676 123.219 15.4019 122.184 15.4019 120.908C15.4019 119.632 14.3676 118.598 13.0916 118.598C11.8156 118.598 10.7812 119.632 10.7812 120.908C10.7812 122.184 11.8156 123.219 13.0916 123.219Z" fill="#2C3686"/>
<path d="M23.8738 123.219C25.1498 123.219 26.1842 122.184 26.1842 120.908C26.1842 119.632 25.1498 118.598 23.8738 118.598C22.5979 118.598 21.5635 119.632 21.5635 120.908C21.5635 122.184 22.5979 123.219 23.8738 123.219Z" fill="#2C3686"/>
<path d="M34.6551 123.219C35.931 123.219 36.9654 122.184 36.9654 120.908C36.9654 119.632 35.931 118.598 34.6551 118.598C33.3791 118.598 32.3447 119.632 32.3447 120.908C32.3447 122.184 33.3791 123.219 34.6551 123.219Z" fill="#2C3686"/>
<path d="M45.4373 123.219C46.7133 123.219 47.7476 122.184 47.7476 120.908C47.7476 119.632 46.7133 118.598 45.4373 118.598C44.1613 118.598 43.127 119.632 43.127 120.908C43.127 122.184 44.1613 123.219 45.4373 123.219Z" fill="#2C3686"/>
<path d="M56.2185 123.219C57.4945 123.219 58.5289 122.184 58.5289 120.908C58.5289 119.632 57.4945 118.598 56.2185 118.598C54.9426 118.598 53.9082 119.632 53.9082 120.908C53.9082 122.184 54.9426 123.219 56.2185 123.219Z" fill="#2C3686"/>
<path d="M66.9998 123.219C68.2758 123.219 69.3101 122.184 69.3101 120.908C69.3101 119.632 68.2758 118.598 66.9998 118.598C65.7238 118.598 64.6895 119.632 64.6895 120.908C64.6895 122.184 65.7238 123.219 66.9998 123.219Z" fill="#2C3686"/>
<path d="M77.782 123.219C79.058 123.219 80.0924 122.184 80.0924 120.908C80.0924 119.632 79.058 118.598 77.782 118.598C76.5061 118.598 75.4717 119.632 75.4717 120.908C75.4717 122.184 76.5061 123.219 77.782 123.219Z" fill="#2C3686"/>
<path d="M2.31035 134C3.58631 134 4.62069 132.966 4.62069 131.69C4.62069 130.414 3.58631 129.379 2.31035 129.379C1.03438 129.379 0 130.414 0 131.69C0 132.966 1.03438 134 2.31035 134Z" fill="#2C3686"/>
<path d="M13.0916 134C14.3676 134 15.4019 132.966 15.4019 131.69C15.4019 130.414 14.3676 129.379 13.0916 129.379C11.8156 129.379 10.7812 130.414 10.7812 131.69C10.7812 132.966 11.8156 134 13.0916 134Z" fill="#2C3686"/>
<path d="M23.8738 134C25.1498 134 26.1842 132.966 26.1842 131.69C26.1842 130.414 25.1498 129.379 23.8738 129.379C22.5979 129.379 21.5635 130.414 21.5635 131.69C21.5635 132.966 22.5979 134 23.8738 134Z" fill="#2C3686"/>
<path d="M34.6551 134C35.931 134 36.9654 132.966 36.9654 131.69C36.9654 130.414 35.931 129.379 34.6551 129.379C33.3791 129.379 32.3447 130.414 32.3447 131.69C32.3447 132.966 33.3791 134 34.6551 134Z" fill="#2C3686"/>
<path d="M45.4373 134C46.7133 134 47.7476 132.966 47.7476 131.69C47.7476 130.414 46.7133 129.379 45.4373 129.379C44.1613 129.379 43.127 130.414 43.127 131.69C43.127 132.966 44.1613 134 45.4373 134Z" fill="#2C3686"/>
<path d="M56.2185 134C57.4945 134 58.5289 132.966 58.5289 131.69C58.5289 130.414 57.4945 129.379 56.2185 129.379C54.9426 129.379 53.9082 130.414 53.9082 131.69C53.9082 132.966 54.9426 134 56.2185 134Z" fill="#2C3686"/>
<path d="M66.9998 134C68.2758 134 69.3101 132.966 69.3101 131.69C69.3101 130.414 68.2758 129.379 66.9998 129.379C65.7238 129.379 64.6895 130.414 64.6895 131.69C64.6895 132.966 65.7238 134 66.9998 134Z" fill="#2C3686"/>
<path d="M77.782 134C79.058 134 80.0924 132.966 80.0924 131.69C80.0924 130.414 79.058 129.379 77.782 129.379C76.5061 129.379 75.4717 130.414 75.4717 131.69C75.4717 132.966 76.5061 134 77.782 134Z" fill="#2C3686"/>
</svg>
