<svg width="726" height="707" viewBox="0 0 726 707" fill="none" xmlns="http://www.w3.org/2000/svg">
<path d="M363 601.817C518.484 601.817 644.528 594.458 644.528 585.38C644.528 576.303 518.484 568.944 363 568.944C207.516 568.944 81.4717 576.303 81.4717 585.38C81.4717 594.458 207.516 601.817 363 601.817Z" fill="#F5F5F5"/>
<path d="M485.52 585.38H496.192L510.712 505.172H500.04L485.52 585.38Z" fill="#263238"/>
<path opacity="0.2" d="M485.52 585.38H496.192L510.712 505.172H500.04L485.52 585.38Z" fill="white"/>
<path opacity="0.2" d="M485.52 585.38H493.288L507.808 505.172H500.04L485.52 585.38Z" fill="white"/>
<path d="M455.478 529.028H498.152C498.461 529.03 498.768 528.971 499.054 528.853C499.341 528.736 499.601 528.562 499.82 528.344C500.038 528.125 500.212 527.865 500.329 527.578C500.447 527.292 500.506 526.985 500.504 526.676C500.506 526.367 500.447 526.06 500.329 525.774C500.212 525.487 500.038 525.227 499.82 525.008C499.601 524.79 499.341 524.616 499.054 524.499C498.768 524.381 498.461 524.322 498.152 524.324H455.478C455.168 524.322 454.862 524.381 454.575 524.499C454.289 524.616 454.029 524.79 453.81 525.008C453.591 525.227 453.418 525.487 453.301 525.774C453.183 526.06 453.124 526.367 453.126 526.676C453.124 526.985 453.183 527.292 453.301 527.578C453.418 527.865 453.591 528.125 453.81 528.344C454.029 528.562 454.289 528.736 454.575 528.853C454.862 528.971 455.168 529.03 455.478 529.028Z" fill="#263238"/>
<path d="M450.73 555.89H493.419C494.044 555.887 494.642 555.636 495.083 555.192C495.523 554.749 495.771 554.149 495.771 553.524C495.767 552.901 495.518 552.305 495.078 551.865C494.637 551.424 494.041 551.175 493.419 551.171H450.73C450.107 551.175 449.511 551.424 449.071 551.865C448.63 552.305 448.381 552.901 448.377 553.524C448.377 554.149 448.625 554.749 449.066 555.192C449.506 555.636 450.105 555.887 450.73 555.89Z" fill="#263238"/>
<path d="M441.96 585.38H452.632L467.152 505.172H456.48L441.96 585.38Z" fill="#263238"/>
<path opacity="0.2" d="M441.96 585.38H452.632L467.152 505.172H456.48L441.96 585.38Z" fill="white"/>
<path opacity="0.2" d="M441.96 585.38H449.728L464.248 505.172H456.48L441.96 585.38Z" fill="white"/>
<path d="M541.204 585.38H530.532L516.012 505.172H526.684L541.204 585.38Z" fill="#263238"/>
<path opacity="0.4" d="M541.204 585.38H530.532L516.012 505.172H526.684L541.204 585.38Z" fill="white"/>
<path opacity="0.2" d="M538.3 585.38H530.532L516.012 505.172H523.78L538.3 585.38Z" fill="white"/>
<path d="M522.459 529.028H479.77C479.146 529.028 478.548 528.78 478.106 528.339C477.665 527.898 477.417 527.3 477.417 526.676C477.417 526.052 477.665 525.454 478.106 525.013C478.548 524.572 479.146 524.324 479.77 524.324H522.459C523.082 524.324 523.681 524.572 524.122 525.013C524.563 525.454 524.811 526.052 524.811 526.676C524.811 527.3 524.563 527.898 524.122 528.339C523.681 528.78 523.082 529.028 522.459 529.028Z" fill="#263238"/>
<path d="M527.192 555.89H484.518C484.208 555.89 483.901 555.829 483.614 555.71C483.328 555.591 483.068 555.416 482.849 555.196C482.631 554.976 482.458 554.715 482.34 554.428C482.223 554.141 482.164 553.834 482.166 553.524C482.166 552.9 482.413 552.301 482.855 551.86C483.296 551.419 483.894 551.171 484.518 551.171H527.192C527.816 551.171 528.414 551.419 528.855 551.86C529.297 552.301 529.544 552.9 529.544 553.524C529.546 553.834 529.487 554.141 529.369 554.428C529.252 554.715 529.079 554.976 528.861 555.196C528.642 555.416 528.382 555.591 528.096 555.71C527.809 555.829 527.502 555.89 527.192 555.89Z" fill="#263238"/>
<path opacity="0.2" d="M522.459 529.028H479.77C479.146 529.028 478.548 528.78 478.106 528.339C477.665 527.898 477.417 527.3 477.417 526.676C477.417 526.052 477.665 525.454 478.106 525.013C478.548 524.572 479.146 524.324 479.77 524.324H522.459C523.082 524.324 523.681 524.572 524.122 525.013C524.563 525.454 524.811 526.052 524.811 526.676C524.811 527.3 524.563 527.898 524.122 528.339C523.681 528.78 523.082 529.028 522.459 529.028Z" fill="white"/>
<path opacity="0.2" d="M527.192 555.89H484.518C484.208 555.89 483.901 555.829 483.614 555.71C483.328 555.591 483.068 555.416 482.849 555.196C482.631 554.976 482.458 554.715 482.34 554.428C482.223 554.141 482.164 553.834 482.166 553.524C482.166 552.9 482.413 552.301 482.855 551.86C483.296 551.419 483.894 551.171 484.518 551.171H527.192C527.816 551.171 528.414 551.419 528.855 551.86C529.297 552.301 529.544 552.9 529.544 553.524C529.546 553.834 529.487 554.141 529.369 554.428C529.252 554.715 529.079 554.976 528.861 555.196C528.642 555.416 528.382 555.591 528.096 555.71C527.809 555.829 527.502 555.89 527.192 555.89Z" fill="white"/>
<path d="M497.644 585.38H486.972L472.452 505.172H483.124L497.644 585.38Z" fill="#263238"/>
<path opacity="0.4" d="M497.644 585.38H486.972L472.452 505.172H483.124L497.644 585.38Z" fill="white"/>
<path opacity="0.2" d="M494.74 585.38H486.972L472.452 505.172H480.22L494.74 585.38Z" fill="white"/>
<path d="M530.837 501.339H453.75C452.796 501.339 452.022 502.112 452.022 503.067V507.263C452.022 508.217 452.796 508.991 453.75 508.991H530.837C531.791 508.991 532.564 508.217 532.564 507.263V503.067C532.564 502.112 531.791 501.339 530.837 501.339Z" fill="#263238"/>
<path opacity="0.2" d="M483.051 501.339H453.75C452.796 501.339 452.022 502.112 452.022 503.067V507.263C452.022 508.217 452.796 508.991 453.75 508.991H483.051C484.005 508.991 484.779 508.217 484.779 507.263V503.067C484.779 502.112 484.005 501.339 483.051 501.339Z" fill="white"/>
<path d="M282.196 520.926H184.694V584.335H282.196V520.926Z" fill="#29AAE3"/>
<path opacity="0.6" d="M282.196 520.926H184.694V584.335H282.196V520.926Z" fill="white"/>
<path d="M278.639 532.818H188.266V581.17H278.639V532.818Z" fill="#29AAE3"/>
<path d="M262.478 540.035H195.628V542.111H262.478V540.035Z" fill="white"/>
<path d="M227.703 546.409H195.628V548.485H227.703V546.409Z" fill="white"/>
<path d="M236.023 552.783H195.628V554.86H236.023V552.783Z" fill="white"/>
<path d="M209.858 559.143H195.628V561.219H209.858V559.143Z" fill="white"/>
<path d="M204.848 565.517H195.628V567.593H204.848V565.517Z" fill="white"/>
<path d="M402.683 585.38H323.317L336.748 479.864H389.252L402.683 585.38Z" fill="#29AAE3"/>
<path opacity="0.6" d="M402.683 585.38H323.317L332.508 513.187L336.762 479.864H389.238L395.51 529.028L402.683 585.38Z" fill="white"/>
<path opacity="0.1" d="M395.51 529.028L332.508 513.187L336.762 479.864H389.238L395.51 529.028Z" fill="black"/>
<path d="M550.119 219.68H175.881C174.623 219.68 173.377 219.928 172.216 220.409C171.054 220.891 169.998 221.597 169.109 222.487C168.221 223.377 167.516 224.434 167.036 225.597C166.556 226.759 166.31 228.005 166.312 229.263V482.608C166.312 485.146 167.32 487.579 169.115 489.374C170.909 491.168 173.343 492.177 175.881 492.177H550.119C552.657 492.177 555.091 491.168 556.885 489.374C558.68 487.579 559.688 485.146 559.688 482.608V229.292C559.694 228.032 559.45 226.783 558.972 225.617C558.494 224.451 557.79 223.391 556.901 222.498C556.012 221.605 554.955 220.896 553.791 220.412C552.627 219.929 551.379 219.68 550.119 219.68Z" fill="#29AAE3"/>
<path opacity="0.7" d="M550.119 219.68H175.881C174.623 219.68 173.377 219.928 172.216 220.409C171.054 220.891 169.998 221.597 169.109 222.487C168.221 223.377 167.516 224.434 167.036 225.597C166.556 226.759 166.31 228.005 166.312 229.263V482.608C166.312 485.146 167.32 487.579 169.115 489.374C170.909 491.168 173.343 492.177 175.881 492.177H550.119C552.657 492.177 555.091 491.168 556.885 489.374C558.68 487.579 559.688 485.146 559.688 482.608V229.292C559.694 228.032 559.45 226.783 558.972 225.617C558.494 224.451 557.79 223.391 556.901 222.498C556.012 221.605 554.955 220.896 553.791 220.412C552.627 219.929 551.379 219.68 550.119 219.68Z" fill="white"/>
<path d="M547.099 229.06H178.915V473.359H547.099V229.06Z" fill="#29AAE3"/>
<path d="M429.647 577.452H296.339C295.505 577.452 294.829 578.128 294.829 578.962V583.74C294.829 584.574 295.505 585.25 296.339 585.25H429.647C430.481 585.25 431.157 584.574 431.157 583.74V578.962C431.157 578.128 430.481 577.452 429.647 577.452Z" fill="#29AAE3"/>
<path opacity="0.7" d="M429.647 577.452H296.339C295.505 577.452 294.829 578.128 294.829 578.962V583.74C294.829 584.574 295.505 585.25 296.339 585.25H429.647C430.481 585.25 431.157 584.574 431.157 583.74V578.962C431.157 578.128 430.481 577.452 429.647 577.452Z" fill="white"/>
<path opacity="0.2" d="M547.099 229.292H178.915V265.708H547.099V229.292Z" fill="black"/>
<path opacity="0.4" d="M336.69 266.144H178.915V473.359H336.69V266.144Z" fill="white"/>
<path d="M490.427 318.997V322.627H486.797" stroke="white" stroke-miterlimit="10"/>
<path d="M479.131 322.626H360.212" stroke="white" stroke-miterlimit="10" stroke-dasharray="5.28 5.28"/>
<path d="M356.379 322.627H352.749V318.997" stroke="white" stroke-miterlimit="10"/>
<path d="M352.749 312.419V249.939" stroke="white" stroke-miterlimit="10" stroke-dasharray="4.53 4.53"/>
<path d="M352.749 246.658V243.028H356.379" stroke="white" stroke-miterlimit="10"/>
<path d="M364.045 243.028H482.964" stroke="white" stroke-miterlimit="10" stroke-dasharray="5.28 5.28"/>
<path d="M486.797 243.028H490.427V246.658" stroke="white" stroke-miterlimit="10"/>
<path d="M490.427 253.235V315.715" stroke="white" stroke-miterlimit="10" stroke-dasharray="4.53 4.53"/>
<path d="M492.736 240.719H488.133V245.322H492.736V240.719Z" fill="#29AAE3" stroke="white" stroke-miterlimit="10"/>
<path d="M492.736 320.332H488.133V324.935H492.736V320.332Z" fill="#29AAE3" stroke="white" stroke-miterlimit="10"/>
<path d="M355.043 240.719H350.44V245.322H355.043V240.719Z" fill="#29AAE3" stroke="white" stroke-miterlimit="10"/>
<path d="M355.043 320.332H350.44V324.935H355.043V320.332Z" fill="#29AAE3" stroke="white" stroke-miterlimit="10"/>
<path d="M423.897 240.719H419.294V245.322H423.897V240.719Z" fill="#29AAE3" stroke="white" stroke-miterlimit="10"/>
<path d="M423.897 320.332H419.294V324.935H423.897V320.332Z" fill="#29AAE3" stroke="white" stroke-miterlimit="10"/>
<path d="M492.736 280.519H488.133V285.121H492.736V280.519Z" fill="#29AAE3" stroke="white" stroke-miterlimit="10"/>
<path d="M355.043 280.519H350.44V285.121H355.043V280.519Z" fill="#29AAE3" stroke="white" stroke-miterlimit="10"/>
<path opacity="0.7" d="M477.926 269.759H444.225C442.709 269.759 441.48 270.988 441.48 272.504V281.52C441.48 283.036 442.709 284.265 444.225 284.265H477.926C479.441 284.265 480.67 283.036 480.67 281.52V272.504C480.67 270.988 479.441 269.759 477.926 269.759Z" fill="white"/>
<path opacity="0.7" d="M419.846 269.759H386.145C384.629 269.759 383.401 270.988 383.401 272.504V281.52C383.401 283.036 384.629 284.265 386.145 284.265H419.846C421.361 284.265 422.59 283.036 422.59 281.52V272.504C422.59 270.988 421.361 269.759 419.846 269.759Z" fill="white"/>
<path opacity="0.7" d="M345.082 446.308H311.381C309.866 446.308 308.637 447.537 308.637 449.052V458.069C308.637 459.585 309.866 460.813 311.381 460.813H345.082C346.598 460.813 347.826 459.585 347.826 458.069V449.052C347.826 447.537 346.598 446.308 345.082 446.308Z" fill="white"/>
<path d="M522.792 242.244H535.047" stroke="white" stroke-width="1.5" stroke-linecap="round" stroke-linejoin="round"/>
<path d="M522.792 248.052H535.047" stroke="white" stroke-width="1.5" stroke-linecap="round" stroke-linejoin="round"/>
<path d="M522.792 253.86H535.047" stroke="white" stroke-width="1.5" stroke-linecap="round" stroke-linejoin="round"/>
<path opacity="0.5" d="M327.368 298.262H203.875V421.755H327.368V298.262Z" fill="white"/>
<path d="M255.566 308.353V414.887" stroke="#29AAE3" stroke-miterlimit="10"/>
<path d="M308.826 414.887C294.697 414.887 281.146 409.274 271.156 399.283C261.165 389.292 255.552 375.742 255.552 361.613V361.613C255.552 347.487 261.163 333.941 271.151 323.953C281.139 313.965 294.686 308.353 308.811 308.353V308.353" stroke="#29AAE3" stroke-miterlimit="10"/>
<path d="M311.135 306.059H306.532V310.662H311.135V306.059Z" fill="white" stroke="#29AAE3" stroke-miterlimit="10"/>
<path d="M311.135 412.578H306.532V417.181H311.135V412.578Z" fill="white" stroke="#29AAE3" stroke-miterlimit="10"/>
<path d="M257.875 359.319H253.272V363.921H257.875V359.319Z" fill="white" stroke="#29AAE3" stroke-miterlimit="10"/>
<path d="M256.757 308.353C256.757 308.589 256.687 308.819 256.556 309.015C256.426 309.211 256.24 309.363 256.022 309.453C255.804 309.543 255.565 309.567 255.334 309.521C255.103 309.475 254.891 309.362 254.724 309.195C254.558 309.029 254.445 308.816 254.399 308.586C254.353 308.355 254.376 308.115 254.466 307.898C254.556 307.68 254.709 307.494 254.905 307.363C255.101 307.232 255.331 307.163 255.566 307.163C255.881 307.166 256.182 307.293 256.404 307.515C256.627 307.738 256.753 308.039 256.757 308.353Z" fill="white" stroke="#29AAE3" stroke-miterlimit="10"/>
<path d="M256.757 414.887C256.757 415.121 256.688 415.351 256.557 415.546C256.427 415.742 256.242 415.895 256.025 415.985C255.809 416.076 255.57 416.1 255.339 416.055C255.109 416.01 254.897 415.898 254.73 415.733C254.563 415.568 254.448 415.358 254.4 415.128C254.353 414.898 254.374 414.659 254.462 414.441C254.55 414.223 254.7 414.036 254.894 413.904C255.088 413.771 255.317 413.699 255.552 413.696C255.709 413.694 255.866 413.723 256.012 413.782C256.158 413.841 256.291 413.929 256.403 414.039C256.515 414.15 256.604 414.282 256.665 414.428C256.726 414.573 256.757 414.729 256.757 414.887Z" fill="white" stroke="#29AAE3" stroke-miterlimit="10"/>
<path opacity="0.7" d="M460.182 448.065H422.793C419.928 448.065 417.181 446.927 415.155 444.901C413.129 442.875 411.99 440.127 411.99 437.262C411.99 434.397 413.129 431.649 415.155 429.623C417.181 427.597 419.928 426.459 422.793 426.459H460.182C463.047 426.459 465.795 427.597 467.821 429.623C469.847 431.649 470.985 434.397 470.985 437.262C470.985 440.127 469.847 442.875 467.821 444.901C465.795 446.927 463.047 448.065 460.182 448.065Z" fill="white"/>
<path opacity="0.7" d="M493.027 355.935H377.52C376.892 355.935 376.29 355.686 375.847 355.242C375.403 354.798 375.153 354.196 375.153 353.568C375.165 352.95 375.42 352.36 375.863 351.928C376.306 351.496 376.901 351.256 377.52 351.26H493.012C493.322 351.258 493.63 351.317 493.917 351.435C494.204 351.552 494.465 351.725 494.685 351.944C494.905 352.162 495.079 352.422 495.199 352.709C495.318 352.995 495.379 353.302 495.379 353.612C495.368 354.23 495.115 354.818 494.676 355.252C494.236 355.687 493.644 355.932 493.027 355.935Z" fill="white"/>
<path opacity="0.7" d="M493.027 373.171H377.52C377.21 373.173 376.903 373.113 376.615 372.996C376.328 372.878 376.067 372.705 375.847 372.487C375.627 372.268 375.453 372.008 375.334 371.722C375.215 371.436 375.153 371.129 375.153 370.818C375.153 370.191 375.403 369.589 375.847 369.145C376.29 368.701 376.892 368.452 377.52 368.452H493.012C493.64 368.452 494.242 368.701 494.686 369.145C495.13 369.589 495.379 370.191 495.379 370.818C495.379 371.442 495.131 372.041 494.69 372.482C494.249 372.923 493.651 373.171 493.027 373.171Z" fill="white"/>
<path opacity="0.7" d="M493.026 390.464H421.08C420.455 390.464 419.855 390.217 419.411 389.776C418.968 389.335 418.717 388.737 418.713 388.112C418.713 387.484 418.962 386.882 419.406 386.438C419.85 385.994 420.452 385.745 421.08 385.745H493.012C493.64 385.745 494.242 385.994 494.686 386.438C495.129 386.882 495.379 387.484 495.379 388.112C495.375 388.734 495.126 389.33 494.686 389.771C494.245 390.211 493.649 390.46 493.026 390.464Z" fill="white"/>
<path opacity="0.4" d="M198.706 239.383H190.546V247.544H198.706V239.383Z" fill="black"/>
<path opacity="0.4" d="M212.471 239.383H208.493C207.338 239.383 206.402 240.319 206.402 241.474V245.453C206.402 246.607 207.338 247.544 208.493 247.544H212.471C213.626 247.544 214.562 246.607 214.562 245.453V241.474C214.562 240.319 213.626 239.383 212.471 239.383Z" fill="black"/>
<path opacity="0.4" d="M226.701 239.383H226.004C223.943 239.383 222.272 241.054 222.272 243.115V243.812C222.272 245.873 223.943 247.544 226.004 247.544H226.701C228.762 247.544 230.432 245.873 230.432 243.812V243.115C230.432 241.054 228.762 239.383 226.701 239.383Z" fill="black"/>
<path opacity="0.9" d="M215.549 440.558V437.378L213.923 437.233C213.691 436.2 213.278 435.217 212.703 434.329L213.749 433.065L211.498 430.815L210.235 431.86C209.346 431.286 208.363 430.873 207.331 430.641L207.186 429.014H204.006L203.846 430.641C202.814 430.874 201.831 431.287 200.942 431.86L199.679 430.815L197.428 433.065L198.474 434.329C197.888 435.211 197.474 436.196 197.254 437.233L195.613 437.378V440.558L197.254 440.718C197.475 441.754 197.888 442.739 198.474 443.622L197.428 444.899L199.679 447.135L200.942 446.09C201.825 446.675 202.81 447.089 203.846 447.31L204.006 448.95H207.186L207.331 447.31C208.367 447.09 209.353 446.676 210.235 446.09L211.498 447.135L213.749 444.899L212.703 443.622C213.283 442.736 213.696 441.752 213.923 440.718L215.549 440.558ZM205.545 443.273C204.683 443.273 203.841 443.018 203.125 442.539C202.409 442.06 201.85 441.38 201.521 440.584C201.191 439.788 201.105 438.912 201.273 438.067C201.441 437.222 201.856 436.446 202.465 435.837C203.074 435.228 203.85 434.813 204.695 434.645C205.54 434.477 206.416 434.563 207.212 434.893C208.008 435.222 208.688 435.781 209.167 436.497C209.645 437.213 209.901 438.056 209.901 438.917C209.901 440.072 209.442 441.18 208.625 441.997C207.808 442.814 206.7 443.273 205.545 443.273Z" fill="white"/>
<path opacity="0.6" d="M228.443 449.531V447.092L227.165 446.961C226.992 446.143 226.667 445.365 226.207 444.667L227.02 443.665L225.263 441.908L224.276 442.736C223.572 442.276 222.79 441.951 221.967 441.778L221.851 440.485H219.354L219.237 441.778C218.415 441.951 217.632 442.276 216.929 442.736L215.941 441.908L214.17 443.665L214.998 444.667C214.538 445.365 214.213 446.143 214.039 446.961L212.761 447.092V449.575L214.039 449.706C214.213 450.523 214.538 451.302 214.998 452L214.17 453.002L215.941 454.758L216.929 453.931C217.632 454.391 218.415 454.716 219.237 454.889L219.354 456.167H221.851L221.967 454.889C222.79 454.716 223.572 454.391 224.276 453.931L225.263 454.758L227.02 453.002L226.207 452C226.667 451.302 226.992 450.523 227.165 449.706L228.443 449.531ZM220.602 451.666C219.933 451.669 219.277 451.473 218.719 451.103C218.16 450.733 217.725 450.205 217.466 449.587C217.208 448.969 217.139 448.289 217.268 447.632C217.397 446.974 217.718 446.37 218.19 445.895C218.663 445.421 219.266 445.097 219.922 444.966C220.579 444.834 221.26 444.9 221.879 445.156C222.498 445.411 223.027 445.845 223.4 446.401C223.772 446.958 223.971 447.613 223.971 448.283C223.973 448.726 223.887 449.166 223.719 449.576C223.55 449.987 223.302 450.36 222.989 450.674C222.676 450.988 222.304 451.238 221.895 451.408C221.485 451.578 221.046 451.666 220.602 451.666Z" fill="white"/>
<path opacity="0.4" d="M215.549 456.602V454.512L214.475 454.41C214.331 453.722 214.06 453.067 213.676 452.479L214.373 451.651L212.921 450.199L212.079 450.882C211.49 450.498 210.836 450.227 210.148 450.083L210.046 449.009H207.926L207.825 450.083C207.137 450.227 206.482 450.498 205.894 450.882L205.051 450.199L203.599 451.651L204.296 452.479C203.913 453.067 203.642 453.722 203.498 454.41L202.409 454.512V456.602L203.498 456.704C203.639 457.397 203.91 458.057 204.296 458.65L203.599 459.477L205.051 460.929L205.894 460.232C206.478 460.627 207.134 460.903 207.825 461.046L207.926 462.12H210.017L210.119 461.046C210.809 460.903 211.465 460.627 212.05 460.232L212.892 460.929L214.344 459.477L213.647 458.65C214.033 458.057 214.304 457.397 214.446 456.704L215.549 456.602ZM208.972 458.388C208.415 458.374 207.875 458.196 207.419 457.876C206.963 457.557 206.611 457.11 206.408 456.591C206.205 456.073 206.159 455.506 206.276 454.962C206.394 454.417 206.669 453.919 207.068 453.531C207.466 453.142 207.971 452.879 208.518 452.776C209.065 452.672 209.631 452.733 210.144 452.949C210.657 453.165 211.095 453.528 211.403 453.992C211.711 454.456 211.876 455 211.876 455.557C211.876 455.935 211.8 456.309 211.653 456.658C211.507 457.006 211.292 457.321 211.021 457.585C210.75 457.849 210.43 458.056 210.078 458.194C209.726 458.332 209.35 458.398 208.972 458.388Z" fill="white"/>
<path d="M489.585 242.2L495.742 258.666L506.037 248.357L489.585 242.2Z" fill="#29AAE3"/>
<path d="M499.501 249.814L497.201 252.114L502.303 257.217L504.603 254.917L499.501 249.814Z" fill="#29AAE3"/>
<path opacity="0.4" d="M506.037 248.357L489.585 242.2L495.742 258.666L499.749 254.658L502.29 257.214L504.585 254.92L502.044 252.364L506.037 248.357Z" fill="white"/>
<path d="M237.344 301.05L252.837 306.858L244.72 298.741C244.42 298.914 244.071 298.983 243.727 298.939C243.384 298.894 243.064 298.738 242.818 298.494C242.518 298.194 242.349 297.787 242.349 297.362C242.349 296.937 242.518 296.53 242.818 296.229C243.118 295.929 243.526 295.76 243.95 295.76C244.375 295.76 244.783 295.929 245.083 296.229C245.327 296.475 245.483 296.795 245.527 297.139C245.572 297.482 245.503 297.831 245.33 298.131L253.447 306.248L247.639 290.755L242.498 291.888L242.31 290.044L241.337 289.071L235.645 294.763L236.618 295.735L238.476 295.924L237.344 301.05Z" fill="#263238"/>
<path opacity="0.2" d="M237.344 301.05L252.837 306.858L244.72 298.741C244.42 298.914 244.071 298.983 243.727 298.939C243.384 298.894 243.064 298.738 242.818 298.494C242.518 298.194 242.349 297.787 242.349 297.362C242.349 296.937 242.518 296.53 242.818 296.229C243.118 295.929 243.526 295.76 243.95 295.76C244.375 295.76 244.783 295.929 245.083 296.229C245.327 296.475 245.483 296.795 245.527 297.139C245.572 297.482 245.503 297.831 245.33 298.131L253.447 306.248L247.639 290.755L242.498 291.888L242.31 290.044L241.337 289.071L235.645 294.763L236.618 295.735L238.476 295.924L237.344 301.05Z" fill="white"/>
<g opacity="0.1">
<path d="M232.756 229.06L178.189 432.949V229.06H232.756Z" fill="white"/>
<path d="M294.335 229.06L228.951 473.359H183.91L249.279 229.06H294.335Z" fill="white"/>
<path d="M359.82 229.06L294.436 473.359H274.065L339.448 229.06H359.82Z" fill="white"/>
<path d="M420.122 229.06L354.738 473.359H347.449L412.833 229.06H420.122Z" fill="white"/>
</g>
<path d="M641.639 283.016C646.793 288.955 673.016 339.47 667.949 351.26C662.881 363.05 620.861 349.459 620.861 349.459L623.373 332.805C623.373 332.805 639.693 333.386 641.261 331.832C642.829 330.278 619.176 306.669 619.176 306.669L641.639 283.016Z" fill="#263238"/>
<g opacity="0.2">
<path d="M667.92 351.26C667.297 352.625 666.212 353.725 664.856 354.367L664.014 354.745H663.898C663.638 354.854 663.371 354.946 663.099 355.021C661.919 355.399 660.703 355.652 659.469 355.776L658.41 355.877C657.887 355.877 657.364 355.95 656.827 355.964H655.375C641.29 355.964 620.803 349.358 620.803 349.358L623.315 332.703C623.315 332.703 639.635 333.284 641.203 331.73C641.581 331.353 640.463 329.669 638.561 327.374C633.943 321.697 624.694 312.245 620.875 308.382L619.147 306.64L641.639 283.016C646.794 288.896 673.017 339.412 667.92 351.26Z" fill="white"/>
</g>
<path opacity="0.2" d="M664.885 354.323L664.043 354.701H663.927C663.667 354.81 663.401 354.902 663.129 354.977C661.948 355.356 660.732 355.609 659.499 355.732L658.439 355.834C657.916 355.834 657.393 355.906 656.856 355.921H655.404C641.32 355.921 620.832 349.314 620.832 349.314L623.344 332.66C623.344 332.66 641.726 334.213 643.294 332.66C643.585 332.05 641.552 329.988 638.546 327.36C633.929 321.683 624.68 312.23 620.861 308.368L631.489 297.013L639.577 296.142C639.577 296.142 657.48 325.124 664.885 354.323Z" fill="black"/>
<path d="M588.655 281.303C585.751 283.408 584.299 286.399 585.461 287.982L662.185 393.76C663.332 395.343 666.628 394.907 669.532 392.802C672.436 390.696 673.888 387.691 672.726 386.123L596.003 280.33C594.856 278.762 591.574 279.183 588.655 281.303Z" fill="#263238"/>
<path opacity="0.7" d="M596.002 280.33L672.726 386.108C673.873 387.676 672.436 390.667 669.532 392.787C666.628 394.907 663.332 395.314 662.199 393.745L585.475 287.953C585.182 287.401 585.053 286.778 585.102 286.156C585.15 285.533 585.376 284.938 585.751 284.439C586.143 283.739 586.632 283.099 587.203 282.537C587.648 282.077 588.134 281.659 588.655 281.288C591.574 279.197 594.855 278.762 596.002 280.33Z" fill="white"/>
<path opacity="0.3" d="M672.726 386.108C673.873 387.676 672.436 390.667 669.532 392.787C666.628 394.907 663.332 395.313 662.199 393.745C661.56 392.874 663.143 391.553 664.072 389.651L585.751 284.468C586.143 283.768 586.632 283.128 587.203 282.566L663.942 388.358C664.392 387.9 664.878 387.478 665.394 387.095C668.298 384.975 671.579 384.54 672.726 386.108Z" fill="black"/>
<path d="M579.159 278.369C576.705 280.983 575.863 284.177 577.286 285.528L672.683 374.84C674.135 376.176 677.256 375.131 679.71 372.503C682.164 369.875 683.006 366.695 681.583 365.33L586.187 276.017C584.764 274.696 581.613 275.756 579.159 278.369Z" fill="#29AAE3"/>
<path opacity="0.7" d="M586.187 276.032L681.583 365.344C683.035 366.666 682.164 369.875 679.71 372.503C677.256 375.131 674.106 376.162 672.683 374.84L577.286 285.528C576.897 285.038 576.654 284.449 576.584 283.827C576.515 283.206 576.622 282.577 576.894 282.014C577.155 281.253 577.516 280.53 577.969 279.865C578.328 279.351 578.726 278.866 579.159 278.413C581.613 275.756 584.764 274.696 586.187 276.032Z" fill="white"/>
<path opacity="0.3" d="M681.583 365.344C683.035 366.666 682.164 369.874 679.71 372.503C677.256 375.131 674.105 376.162 672.682 374.84C671.898 374.1 673.205 372.517 673.757 370.484L576.894 282.043C577.155 281.282 577.516 280.559 577.969 279.894L673.379 369.221C673.73 368.705 674.124 368.219 674.556 367.769C677.009 365.054 680.16 364.008 681.583 365.344Z" fill="black"/>
<path d="M602.086 563.397L594.826 563.513C587.436 528.796 582.209 485.831 578.956 453.422C578.448 448.34 577.983 443.534 577.504 439.048C577.315 436.913 577.127 434.866 576.952 432.891C576.081 423.148 575.5 415.467 575.123 410.647C574.861 407.162 574.731 405.245 574.731 405.245H601.128L600.881 411.939L600.01 434.024L599.923 436.55L599.371 451.143L598.456 475.987C607.473 510.98 602.086 563.397 602.086 563.397Z" fill="#EBB376"/>
<path d="M661.038 561.538L653.879 562.889C639.548 527.068 626.088 481.199 617.332 449.154C615.982 444.188 614.733 439.541 613.615 435.331C613.615 435.113 613.514 434.909 613.456 434.706C611.249 426.343 609.55 419.678 608.49 415.453L607.227 410.327L633.072 405.855L634.524 416.745L636.688 432.717L637.109 435.853L638.561 446.758L642.496 476.001C657.422 508.962 661.038 561.538 661.038 561.538Z" fill="#EBB376"/>
<path opacity="0.2" d="M636.76 432.746L613.615 435.331C613.615 435.113 613.514 434.91 613.456 434.706C611.249 426.343 609.55 419.678 608.49 415.453L634.626 416.745L636.76 432.746Z" fill="black"/>
<path opacity="0.2" d="M600.823 411.939L600.01 434.024L599.923 436.55L577.562 439.033C577.373 436.899 577.185 434.851 577.01 432.877C576.139 423.134 575.558 415.453 575.181 410.632L600.823 411.939Z" fill="black"/>
<path d="M580.611 587.529C581.964 586.431 583.504 585.585 585.156 585.032C585.156 585.032 590.107 580.124 592.503 565.343L598.979 563.644C600.08 563.381 601.235 563.462 602.288 563.875C603.342 564.287 604.244 565.012 604.874 565.953C605.053 566.216 605.19 566.505 605.281 566.809C605.615 568.395 605.848 570 605.978 571.615C606.34 577.02 606.374 582.441 606.079 587.849H604.903L604.439 577.685C604.264 574.215 601.607 578.28 600.852 582.041C600.097 585.802 598.485 589.722 590.906 589.911C582.049 590.041 578.375 589.693 580.611 587.529Z" fill="#263238"/>
<path d="M605.106 566.156C605.528 562.7 605.658 556.689 605.658 556.689L591.254 558.286C591.254 558.286 592.997 565.125 591.559 570.265C598.819 568.276 605.106 566.156 605.106 566.156Z" fill="#263238"/>
<path d="M639.214 587.529C640.568 586.436 642.107 585.595 643.759 585.046C643.759 585.046 648.71 580.139 651.091 565.357L657.582 563.658C658.683 563.396 659.837 563.476 660.891 563.889C661.945 564.302 662.847 565.027 663.477 565.967C663.656 566.23 663.793 566.519 663.883 566.824C664.218 568.409 664.451 570.015 664.58 571.63C664.94 577.034 664.969 582.455 664.668 587.863H663.564L663.099 577.699C662.925 574.229 660.268 578.295 659.513 582.055C658.758 585.816 657.146 589.736 649.552 589.925C640.651 590.041 636.978 589.693 639.214 587.529Z" fill="#263238"/>
<path d="M663.695 566.156C664.13 562.7 664.261 556.689 664.261 556.689L649.857 558.286C649.857 558.286 651.6 565.125 650.162 570.265C657.422 568.276 663.695 566.156 663.695 566.156Z" fill="#263238"/>
<path d="M639.257 425.617L611.858 429.116L610.798 429.247L605.165 408.599L603.713 430.728L574.353 429.189C561.285 352.421 583.631 334.286 583.631 334.286L623.46 342.301C641.494 372.967 637.21 408.599 637.21 408.599L639.257 425.617Z" fill="#29AAE3"/>
<path d="M601.535 238.643C601.535 241.663 600.199 244.102 598.631 244.102C597.062 244.102 595.639 241.663 595.639 238.643C595.639 235.622 596.975 233.183 598.631 233.183C600.286 233.183 601.535 235.622 601.535 238.643Z" stroke="#263238" stroke-width="0.5" stroke-linecap="round" stroke-linejoin="round"/>
<path d="M621.209 256.88C621.103 256.979 620.986 257.067 620.861 257.141C619.204 258.404 617.314 259.327 615.299 259.856C609.419 261.221 605.397 260.408 602.769 257.751C599.095 253.758 598.18 246.687 598.703 238.149C598.795 234.752 599.422 231.39 600.562 228.188C600.562 228.188 600.562 228.058 600.562 228.029C600.562 228 600.649 227.782 600.707 227.666C601.427 225.86 602.588 224.263 604.085 223.023C605.582 221.782 607.366 220.937 609.274 220.565C610.928 220.195 612.617 220.006 614.312 219.999C630.967 219.868 633.958 247.427 621.209 256.88Z" fill="#EBB376"/>
<path opacity="0.2" d="M620.861 257.185C619.191 258.375 617.3 259.219 615.3 259.668C609.419 261.033 605.397 260.031 602.769 257.33C606.288 258.2 609.996 257.895 613.325 256.459C614.555 256.005 615.871 255.835 617.176 255.961C618.481 256.086 619.74 256.505 620.861 257.185Z" fill="black"/>
<path d="M622.545 272.213C623.576 276.946 617.434 278.878 617.434 278.878C607.401 274.522 605.542 269.251 605.542 269.251C613.92 264.895 611.495 252.538 611.495 252.538L613.194 253.38L625.144 255.718C625.144 255.718 621.834 262.078 621.398 263.53C619.133 271.153 622.545 272.213 622.545 272.213Z" fill="#EBB376"/>
<path d="M600.547 228.116C600.547 228.116 599.632 239.732 610.711 244.799C610.711 244.799 615.459 256.923 622.443 257.083C631.983 257.315 640.376 243.768 637.08 229.96C632.767 212.042 605.629 210.59 600.547 228.116Z" fill="#263238"/>
<path d="M605.077 241.445C605.077 239.63 606.529 236.566 609.433 236.988C612.337 237.409 613.993 244.64 606.791 246.251C605.702 246.484 605.077 245.264 605.077 241.445Z" fill="#EBB376"/>
<path d="M620.861 215.716C620.861 215.716 609.738 212.899 603.582 217.385C596.394 222.613 593.665 228.014 602.13 236.407C602.13 236.407 620.817 230.352 627.032 231.63C630.664 232.362 634.229 233.397 637.689 234.722C639.04 222.38 627.075 213.189 620.861 215.716Z" fill="#263238"/>
<path d="M605.077 238.643C605.077 238.643 607.981 252.088 603.422 263.559C603.422 263.559 629.849 272.721 639.04 267.741C648.231 262.761 639.809 246.048 639.417 236.407C639.025 226.765 634.843 212.521 620.861 215.716C606.878 218.91 605.077 238.643 605.077 238.643Z" fill="#263238"/>
<path d="M595.567 237.786H606.733" stroke="#263238" stroke-width="0.5" stroke-linecap="round" stroke-linejoin="round"/>
<path opacity="0.2" d="M611.858 429.116L610.798 429.247L605.165 408.599C605.165 408.599 617.245 387.966 613.47 377.222C614.007 377.977 627.017 397.274 611.858 429.116Z" fill="black"/>
<path d="M589.236 271.167C589.236 271.167 602.522 266.434 622.545 272.213C642.568 277.992 643.323 286.515 643.323 286.515C643.323 286.515 630.633 315.279 628.629 347.848L576.444 345.902C576.444 345.902 570.215 299.932 589.236 271.167Z" fill="#263238"/>
<path opacity="0.2" d="M643.323 286.515C643.323 286.515 630.633 315.279 628.629 347.848L576.444 345.902C575.82 340.601 575.5 335.268 575.486 329.93C575.383 322.117 575.868 314.308 576.938 306.567C578.68 294.516 582.267 281.651 589.236 271.11C589.236 271.11 602.522 266.376 622.545 272.155C642.568 277.934 643.323 286.515 643.323 286.515Z" fill="white"/>
<path opacity="0.2" d="M588.51 308.586C588.51 308.586 586.347 321.828 575.442 329.988C575.339 322.175 575.825 314.366 576.894 306.625L588.51 308.586Z" fill="black"/>
<path d="M530.851 270.253L524.274 260.495C524.274 260.495 523.272 256.256 521.994 255.297C520.716 254.339 508.084 248.952 506.559 248.981C505.035 249.01 505.107 258.826 506.559 260.495C508.011 262.165 516.055 265.737 518.175 266.1C520.295 266.463 519.25 266.1 519.25 266.1L525.058 277.716L530.851 270.253Z" fill="#EBB376"/>
<path d="M589.236 271.168C575.145 277.069 561.55 284.09 548.58 292.164L527.337 263.124C527.337 263.124 521.617 264.895 519.497 274.856C519.497 274.856 530.401 316.397 544.573 320.521C558.744 324.645 588.539 308.513 588.539 308.513C588.539 308.513 597.164 286.936 589.236 271.168Z" fill="#263238"/>
<path opacity="0.2" d="M589.236 271.168C575.145 277.069 561.55 284.09 548.58 292.164L527.337 263.124C527.337 263.124 521.617 264.895 519.497 274.856C519.497 274.856 530.401 316.397 544.573 320.521C558.744 324.645 588.539 308.513 588.539 308.513C588.539 308.513 597.164 286.936 589.236 271.168Z" fill="white"/>
<path d="M602.667 269.338C602.667 269.338 607.299 302.502 621.979 303.838C636.659 305.173 643.236 280.606 640.753 277.702C638.27 274.798 619.351 269.12 602.667 269.338Z" fill="#263238"/>
<path opacity="0.3" d="M602.667 269.338C602.667 269.338 607.299 302.502 621.979 303.838C636.659 305.173 643.236 280.606 640.753 277.702C638.27 274.798 619.351 269.12 602.667 269.338Z" fill="white"/>
<path d="M80.3826 574.389H91.1419L92.0276 549.473H81.2683L80.3826 574.389Z" fill="#B97964"/>
<path d="M92.623 573.14H79.555C79.3398 573.136 79.1301 573.208 78.9628 573.344C78.7954 573.479 78.6812 573.669 78.6403 573.881L76.5204 583.449C76.4756 583.653 76.4717 583.864 76.5089 584.07C76.5461 584.276 76.6236 584.472 76.737 584.647C76.8504 584.823 76.9974 584.974 77.1696 585.092C77.3417 585.211 77.5356 585.294 77.74 585.337H78.0885C82.3138 585.264 85.3485 585.003 90.6919 585.003C93.9734 585.003 103.76 585.351 108.348 585.351C112.937 585.351 113.445 580.894 111.601 580.487C103.31 578.672 97.0807 576.131 94.4235 573.794C93.9277 573.356 93.2843 573.122 92.623 573.14Z" fill="#263238"/>
<path d="M93.3635 574.636C93.3142 574.622 93.2699 574.594 93.2364 574.555C93.2028 574.516 93.1814 574.469 93.1747 574.418C93.1656 574.37 93.1719 574.32 93.1928 574.276C93.2136 574.231 93.248 574.195 93.2909 574.171C93.6829 573.924 97.1532 571.79 98.3439 572.4C98.4783 572.462 98.5914 572.563 98.6688 572.69C98.7463 572.816 98.7848 572.963 98.7795 573.111C98.8191 573.366 98.7903 573.627 98.6958 573.866C98.6014 574.106 98.4449 574.317 98.2422 574.476C97.6411 574.896 96.9111 575.092 96.1804 575.028C95.2301 574.998 94.2857 574.867 93.3635 574.636ZM94.104 574.273C95.3595 574.698 96.7297 574.631 97.9373 574.084C98.063 573.97 98.1591 573.827 98.2173 573.668C98.2755 573.508 98.294 573.337 98.2713 573.169C98.2713 572.966 98.1841 572.864 98.1115 572.864C98.0084 572.812 97.8933 572.787 97.7776 572.792C96.4704 573.048 95.2238 573.551 94.104 574.273Z" fill="#29AAE3"/>
<path d="M93.2909 574.679C93.253 574.654 93.2223 574.619 93.2019 574.579C93.1815 574.538 93.1722 574.492 93.1747 574.447C93.1747 574.302 93.4506 571.209 94.6267 570.193C94.7709 570.063 94.9421 569.967 95.128 569.912C95.3138 569.857 95.5096 569.843 95.7012 569.873C95.8942 569.875 96.081 569.942 96.2312 570.063C96.3815 570.184 96.4863 570.353 96.5289 570.541C96.7467 571.674 94.5977 574.04 93.4797 574.65H93.3635L93.2909 574.679ZM95.0188 570.512C94.2653 571.481 93.8247 572.656 93.7555 573.881C94.8591 573.039 96.2239 571.253 96.0933 570.556C96.0933 570.556 96.0933 570.294 95.7157 570.294H95.5996C95.3856 570.292 95.1784 570.369 95.0188 570.512Z" fill="#29AAE3"/>
<path opacity="0.2" d="M81.2684 549.487H92.0277L91.563 562.337H80.8037L81.2684 549.487Z" fill="black"/>
<path d="M135.747 575.188L146.855 576.364L148.931 552.435L137.838 551.259L135.747 575.188Z" fill="#B97964"/>
<path d="M148.017 572.792H135.036C134.822 572.793 134.615 572.867 134.449 573.002C134.283 573.136 134.167 573.323 134.121 573.532L132.001 583.115C131.949 583.317 131.938 583.526 131.967 583.732C131.997 583.938 132.067 584.135 132.174 584.314C132.28 584.492 132.422 584.647 132.589 584.771C132.756 584.894 132.946 584.983 133.148 585.032H133.497C137.722 584.959 140.757 584.698 146.115 584.698C149.382 584.698 159.183 585.032 163.756 585.032C168.33 585.032 168.853 580.574 167.009 580.168C158.718 578.367 152.489 575.812 149.832 573.474C149.333 573.029 148.686 572.785 148.017 572.792Z" fill="#263238"/>
<path d="M148.757 574.287C148.708 574.274 148.664 574.246 148.63 574.207C148.597 574.168 148.575 574.12 148.568 574.07C148.558 574.02 148.565 573.968 148.589 573.922C148.613 573.877 148.652 573.842 148.699 573.823C149.077 573.576 152.547 571.441 153.738 572.066C153.872 572.124 153.986 572.222 154.064 572.347C154.141 572.471 154.18 572.616 154.173 572.763C154.209 573.018 154.179 573.278 154.088 573.519C153.997 573.76 153.846 573.974 153.65 574.142C153.039 574.55 152.307 574.739 151.574 574.679C150.624 574.65 149.679 574.518 148.757 574.287ZM149.498 573.939C150.755 574.36 152.125 574.287 153.331 573.736C153.458 573.622 153.555 573.48 153.613 573.32C153.671 573.161 153.689 572.989 153.665 572.821C153.665 572.618 153.578 572.53 153.505 572.53C153.409 572.473 153.297 572.447 153.186 572.458C151.891 572.711 150.658 573.214 149.556 573.939H149.498Z" fill="#29AAE3"/>
<path d="M148.699 574.345C148.66 574.321 148.627 574.287 148.604 574.246C148.581 574.205 148.569 574.16 148.569 574.113C148.569 573.953 148.844 570.875 150.093 569.859C150.241 569.734 150.412 569.641 150.597 569.583C150.781 569.526 150.975 569.506 151.168 569.525C151.361 569.524 151.55 569.59 151.7 569.711C151.851 569.833 151.955 570.003 151.995 570.192C152.213 571.34 150.064 573.706 148.946 574.302H148.83L148.699 574.345ZM150.413 570.163C149.659 571.127 149.219 572.297 149.149 573.518C150.253 572.69 151.618 570.889 151.487 570.192C151.487 570.192 151.487 569.931 151.11 569.931H151.008C150.789 569.937 150.578 570.019 150.413 570.163Z" fill="#29AAE3"/>
<path opacity="0.2" d="M137.838 551.259L148.932 552.435L147.843 564.777L136.749 563.601L137.838 551.259Z" fill="black"/>
<path d="M85.6679 331.005H142.775C148.191 360.64 165.179 465.489 152.939 558.969L133.613 556.573C133.613 556.573 135.399 432.558 118.352 386.689C116.392 411.228 113.996 437.335 112.036 451.23C107.07 485.425 96.4417 560.13 96.4417 560.13H76.8252C76.8252 560.13 80.8472 488.605 82.7058 455.005C84.7386 418.488 85.6679 338.497 85.6679 331.005Z" fill="#263238"/>
<path d="M155.204 563.412L131.29 559.854L132.03 553.233L156.903 556.5L155.204 563.412Z" fill="#29AAE3"/>
<path d="M98.8665 560.261H75.6636V553.335L99.7377 552.885L98.8665 560.261Z" fill="#29AAE3"/>
<path opacity="0.2" d="M118.41 386.645C121.213 394.683 123.345 402.94 124.785 411.329C126.382 389.549 119.993 366.317 119.993 366.317L118.41 386.645Z" fill="black"/>
<path d="M84.0851 340.936L82.7783 347.833C82.7783 347.833 122.723 353.002 147.567 352.857L146.695 348.124L84.0851 340.936Z" fill="#29AAE3"/>
<path d="M165.15 281.215C165.15 281.215 178.959 324.775 188.382 327.679C197.806 330.583 221.778 294.588 221.778 294.588C221.778 294.588 243.312 294.385 244.27 292.919C245.228 291.452 238.68 276.279 237.112 276.264C235.543 276.25 216.784 283.306 216.072 284.497C215.361 285.688 193.827 306.277 192.84 305.667C191.853 305.057 183.663 279.168 183.663 279.168L165.15 281.215Z" fill="#B97964"/>
<path d="M224.624 292.236C224.796 292.201 224.965 292.158 225.132 292.106L224.886 291.946C224.806 292.049 224.719 292.146 224.624 292.236Z" fill="#B97964"/>
<path d="M157.31 276.192L158.994 279.284L166.849 293.804L168.49 296.81L190.546 289.143C190.546 289.143 181.369 254.905 178.189 251.391L157.31 276.192Z" fill="#29AAE3"/>
<path opacity="0.4" d="M157.31 276.192L158.994 279.284L166.849 293.804L168.49 296.81L190.546 289.143C190.546 289.143 181.369 254.905 178.189 251.391L157.31 276.192Z" fill="white"/>
<path opacity="0.2" d="M158.994 279.284L166.849 293.804C171.713 284.265 170.305 271.197 170.305 271.197L158.994 279.284Z" fill="black"/>
<path d="M178.189 251.406C174.034 246.607 168.946 242.704 163.235 239.933C157.524 237.163 151.309 235.582 144.968 235.289C123.362 234.272 116.566 236.421 108.668 243.478C97.1242 253.787 82.7639 342.548 82.7639 342.548C103.831 348.413 125.717 350.792 147.552 349.59C147.552 349.59 147.814 324.906 155.611 308.339C164.392 289.883 171.935 270.864 178.189 251.406Z" fill="#29AAE3"/>
<path opacity="0.4" d="M82.7639 342.548C103.831 348.414 125.716 350.798 147.552 349.605C147.552 349.605 147.552 346.555 147.973 341.895C148.147 339.688 148.409 337.103 148.772 334.315C149.135 331.527 149.658 328.347 150.224 325.182C150.572 323.483 150.979 321.77 151.414 320.071C152.427 316.038 153.808 312.106 155.538 308.324C156.496 306.291 157.426 304.273 158.326 302.298C159.88 298.843 161.361 295.489 162.682 292.28C165.586 285.528 168.054 279.357 170.116 273.955C171.568 270.079 172.875 266.608 173.935 263.632C175.111 260.307 176.04 257.577 176.723 255.544C177.609 252.858 178.044 251.391 178.044 251.391C177.323 250.488 176.547 249.63 175.721 248.821C167.617 240.834 156.904 236.039 145.548 235.318H144.822C128.357 234.548 120.501 235.608 114.2 239.282C112.168 240.498 110.265 241.918 108.522 243.522C106.883 245.298 105.593 247.367 104.718 249.62C102.034 255.861 99.8307 262.297 98.1261 268.873L97.1678 272.402C95.7158 277.789 94.3509 283.524 93.0441 289.332C92.6666 290.987 92.3036 292.643 91.9406 294.283C91.4033 296.81 90.8661 299.322 90.3579 301.805C89.0511 308.063 87.875 314.132 86.844 319.592C85.392 327.433 84.2159 333.996 83.519 338.076C83.0398 340.951 82.7639 342.548 82.7639 342.548ZM146.216 236.116C147.673 236.153 149.127 236.265 150.572 236.45C156.38 237.234 165.31 241.895 165.092 244.102C164.875 246.309 161.477 251.943 152.794 250.578C149.769 250.02 146.897 248.822 144.372 247.064C139.581 243.899 136.096 239.616 135.747 238.222C135.312 236.552 140.946 235.986 146.231 236.145L146.216 236.116Z" fill="white"/>
<path d="M127.602 265.708C127.602 265.708 116.16 293.398 113.808 316.412L144.75 320.362C144.75 320.362 158.631 282.943 161.506 271.24C161.506 271.211 136.793 268.743 127.602 265.708Z" fill="#29AAE3"/>
<path opacity="0.4" d="M155.466 272.3L159.763 272.721L156.613 275.161L155.466 272.3Z" fill="white"/>
<path d="M138.622 238.294C140.96 244.974 149.658 248.023 154.217 248.458C155.896 248.723 157.615 248.429 159.111 247.621C160.606 246.813 161.795 245.536 162.493 243.986C162.493 243.986 157.281 241.387 157.803 238.469C158.173 236.684 158.904 234.994 159.952 233.503C160.495 232.651 161.086 231.832 161.724 231.049L153.375 213.146C151.516 220.899 145.81 235.797 138.622 238.294Z" fill="#B97964"/>
<path opacity="0.2" d="M153.041 221.408C149.062 230.12 154.681 236.116 157.803 238.411C158.173 236.626 158.904 234.936 159.952 233.445L153.041 221.408Z" fill="black"/>
<path d="M181.035 198.161C181.035 198.161 183.707 212.913 176.011 218.823C168.316 224.733 167.532 197.174 167.532 197.174L181.035 198.161Z" fill="#B97964"/>
<path opacity="0.4" d="M181.035 198.161C181.035 198.161 183.707 212.913 176.011 218.823C168.316 224.733 167.532 197.174 167.532 197.174L181.035 198.161Z" fill="black"/>
<path d="M153.52 231.238C155.236 233.63 157.689 235.393 160.504 236.256C163.318 237.118 166.338 237.034 169.1 236.015C172.707 234.749 175.694 232.151 177.449 228.755C177.696 228.305 177.914 227.811 178.131 227.303C181.732 218.141 182.487 195.78 172.788 196.608C164.773 197.29 156.932 194.822 152.837 201.748C151.668 203.718 150.981 205.937 150.834 208.224C149.963 218.91 148.946 225.11 153.52 231.238Z" fill="#B97964"/>
<path d="M166.414 213.509C166.239 214.351 166.646 215.121 167.212 215.208C167.778 215.295 168.33 214.641 168.461 213.756C168.592 212.87 168.214 212.144 167.662 212.071C167.111 211.999 166.544 212.638 166.414 213.509Z" fill="#263238"/>
<path d="M176.127 214.888C175.953 215.73 176.374 216.5 176.926 216.587C177.478 216.674 178.044 216.021 178.16 215.135C178.276 214.249 177.928 213.523 177.362 213.436C176.795 213.349 176.244 214.075 176.127 214.888Z" fill="#263238"/>
<path d="M172.977 214.874C173.631 217.644 174.662 220.311 176.04 222.802C175.39 223.14 174.674 223.332 173.941 223.364C173.209 223.397 172.478 223.269 171.801 222.99L172.977 214.874Z" fill="#A24E3F"/>
<path d="M163.858 209.937C163.947 209.963 164.041 209.965 164.13 209.942C164.22 209.919 164.301 209.872 164.366 209.806C164.811 209.348 165.356 209 165.958 208.788C166.56 208.576 167.203 208.507 167.837 208.586C167.969 208.613 168.107 208.586 168.22 208.513C168.334 208.44 168.415 208.326 168.446 208.194C168.461 208.129 168.463 208.062 168.451 207.997C168.439 207.931 168.414 207.869 168.377 207.813C168.341 207.757 168.293 207.71 168.238 207.673C168.182 207.636 168.12 207.611 168.054 207.599C167.265 207.483 166.46 207.555 165.704 207.807C164.947 208.059 164.26 208.485 163.698 209.051C163.604 209.148 163.552 209.279 163.552 209.414C163.552 209.549 163.604 209.68 163.698 209.777C163.744 209.837 163.798 209.891 163.858 209.937Z" fill="#263238"/>
<path d="M180.774 212.129C180.868 212.165 180.971 212.165 181.064 212.129C181.129 212.113 181.189 212.083 181.242 212.042C181.294 212.001 181.338 211.95 181.369 211.891C181.401 211.832 181.419 211.768 181.424 211.701C181.429 211.635 181.421 211.568 181.398 211.505C181.168 210.731 180.755 210.023 180.194 209.442C179.633 208.861 178.941 208.423 178.175 208.165C178.111 208.146 178.044 208.139 177.977 208.146C177.911 208.153 177.846 208.173 177.788 208.206C177.73 208.238 177.679 208.283 177.638 208.336C177.597 208.389 177.567 208.449 177.551 208.514C177.515 208.643 177.531 208.781 177.596 208.898C177.662 209.015 177.77 209.101 177.899 209.138C178.5 209.359 179.041 209.717 179.479 210.183C179.918 210.649 180.242 211.211 180.426 211.825C180.454 211.9 180.501 211.967 180.562 212.02C180.623 212.074 180.695 212.111 180.774 212.129Z" fill="#263238"/>
<path d="M165.063 223.368C165.063 223.368 166.849 227.201 170.494 227.056" stroke="#263238" stroke-width="0.5" stroke-linecap="round" stroke-linejoin="round"/>
<path d="M160.431 196.23L160.577 200.964C159.749 201.264 159.066 201.867 158.664 202.651C158.263 203.435 158.173 204.341 158.413 205.189C159.546 209.254 156.743 215.15 153.505 217.299C153.505 217.299 153.505 215.585 152.053 215.847C150.601 216.108 150.151 225.023 152.547 229.51C152.547 229.51 147.422 224.791 145.897 215.251C144.445 206.438 144.721 200.847 145.897 196.622L160.431 196.23Z" fill="#B97964"/>
<path opacity="0.4" d="M160.431 196.23L160.577 200.964C159.749 201.264 159.066 201.867 158.664 202.651C158.263 203.435 158.173 204.341 158.413 205.189C159.546 209.254 156.743 215.15 153.505 217.299C153.505 217.299 153.505 215.585 152.053 215.847C150.601 216.108 150.151 225.023 152.547 229.51C152.547 229.51 147.422 224.791 145.897 215.251C144.445 206.438 144.721 200.847 145.897 196.622L160.431 196.23Z" fill="black"/>
<path d="M145.084 201.907C150.266 202.415 155.495 202.096 160.577 200.964C175.198 198.06 181.427 203.432 181.427 203.432C182.439 202.522 183.236 201.399 183.761 200.143C184.286 198.888 184.525 197.531 184.462 196.172C184.041 191.961 178.189 191.25 178.189 191.25C178.189 191.25 176.433 186.502 172.556 185.064C168.679 183.627 164.788 187.228 164.788 187.228C164.788 187.228 159.952 182.552 154.319 183.888C152.422 184.277 150.717 185.306 149.488 186.802C148.259 188.298 147.58 190.17 147.567 192.106C147.567 192.106 140.96 192.774 141.105 196.172C141.251 199.57 145.084 201.907 145.084 201.907Z" fill="#263238"/>
<path d="M167.546 219.694C170.168 219.694 172.294 217.244 172.294 214.22C172.294 211.197 170.168 208.746 167.546 208.746C164.924 208.746 162.798 211.197 162.798 214.22C162.798 217.244 164.924 219.694 167.546 219.694Z" stroke="#263238" stroke-width="0.5" stroke-linecap="round" stroke-linejoin="round"/>
<path d="M184.23 215.033C184.099 215.942 183.71 216.795 183.108 217.489C182.507 218.183 181.719 218.689 180.838 218.948C179.957 219.207 179.02 219.207 178.139 218.949C177.257 218.69 176.469 218.184 175.867 217.491C175.266 216.797 174.876 215.945 174.745 215.036C174.613 214.127 174.746 213.2 175.127 212.364C175.508 211.528 176.12 210.82 176.893 210.322C177.665 209.825 178.563 209.56 179.482 209.559C180.834 209.663 182.091 210.297 182.98 211.321C183.869 212.346 184.318 213.68 184.23 215.033Z" stroke="#263238" stroke-width="0.5" stroke-linecap="round" stroke-linejoin="round"/>
<path d="M172.28 214.874C172.28 214.874 173.819 213.915 174.734 215.033" stroke="#263238" stroke-width="0.5" stroke-linecap="round" stroke-linejoin="round"/>
<path d="M162.798 214.22L154.478 213.102C153.388 212.962 152.286 213.259 151.415 213.93L151.052 214.22" stroke="#263238" stroke-width="0.5" stroke-linecap="round" stroke-linejoin="round"/>
<path d="M144.997 216.224C145.831 218.778 147.643 220.897 150.035 222.119C153.215 223.702 155.48 221.03 155.161 217.676C154.87 214.685 152.881 210.184 149.353 210.009C148.6 209.984 147.852 210.147 147.178 210.484C146.504 210.82 145.924 211.32 145.491 211.937C145.059 212.554 144.787 213.269 144.701 214.018C144.614 214.766 144.716 215.525 144.997 216.224Z" fill="#B97964"/>
<path opacity="0.2" d="M91.9404 294.327C105.647 288.635 116.479 265.127 116.479 265.127L108.697 260.423L98.126 268.917L97.1676 272.445C95.7156 277.832 94.3508 283.568 93.044 289.376C92.6664 291.031 92.3034 292.686 91.9404 294.327Z" fill="black"/>
<path d="M167.43 296.825L191.068 288.142L191.751 290.145L168.098 298.567L167.43 296.825Z" fill="#29AAE3"/>
<path d="M106.183 356.577L37.6621 345.712L30.9608 387.974L99.4814 398.839L106.183 356.577Z" fill="#29AAE3"/>
<path d="M61.8986 361.802L47.9739 369.018L58.98 380.184" stroke="white" stroke-width="2" stroke-linecap="round" stroke-linejoin="round"/>
<path d="M75.199 382.754L89.1091 375.537L78.1175 364.372" stroke="white" stroke-width="2" stroke-linecap="round" stroke-linejoin="round"/>
<path d="M63.8298 380.953L73.2678 363.602" stroke="white" stroke-width="2" stroke-linecap="round" stroke-linejoin="round"/>
<path d="M100.493 247.268C100.493 247.268 74.6617 273.186 71.1479 278.224C67.634 283.263 60.8967 339.121 60.8967 339.121C60.8967 339.121 59.4448 339.615 59.3576 340.82C59.2705 342.025 59.1253 357.707 59.3576 358.433C59.59 359.159 71.4673 366.492 73.2242 364.749C74.9811 363.007 77.4205 345.249 77.4205 345.249L71.1479 339.121C71.1479 339.121 78.4079 297.986 83.0107 291.321C87.6135 284.657 106.373 270.398 106.373 270.398L100.493 247.268Z" fill="#B97964"/>
<path d="M120.342 236.828C124.102 244.799 121.242 261.584 114.301 267.509C106.958 273.598 99.1946 279.164 91.0694 284.163L78.408 267.567C78.408 267.567 91.8825 254.412 100.043 246.832C105.593 241.452 112.694 237.952 120.342 236.828Z" fill="#29AAE3"/>
<path opacity="0.4" d="M120.342 236.828C124.102 244.799 121.242 261.584 114.301 267.509C106.958 273.598 99.1946 279.164 91.0694 284.163L78.408 267.567C78.408 267.567 91.8825 254.412 100.043 246.832C105.593 241.452 112.694 237.952 120.342 236.828Z" fill="white"/>
<path d="M78.408 266.507L76.8398 268.641L90.0676 285.935L91.9406 284.599L78.408 266.507Z" fill="#29AAE3"/>
</svg>
