<svg width="119" height="123" viewBox="0 0 119 123" fill="none" xmlns="http://www.w3.org/2000/svg">
<path fill-rule="evenodd" clip-rule="evenodd" d="M21.0147 76.4639C20.281 75.9298 19.8022 75.4173 19.1015 75.9581C18.3681 76.5243 18.8243 77.0623 19.1063 77.6321C19.2455 77.9136 19.489 78.2453 19.1924 78.5654C18.8858 78.8972 18.5273 78.8193 18.1614 78.6332C17.9374 78.5194 17.6902 78.2987 17.4356 78.503C17.1401 78.7405 17.3192 79.0494 17.3972 79.3342C18.0552 81.7408 19.0662 84.0022 20.3118 86.1523C21.0827 87.4825 21.9285 88.7835 23.084 89.8281C24.685 91.2751 26.6039 90.6589 27.0787 88.555C27.3593 87.3115 27.2506 86.0693 26.8155 84.8921C25.5641 81.5067 23.3775 78.7611 21.0147 76.4639ZM22.2794 73.1825C26.6006 76.709 29.9819 80.9518 32.0862 86.1581C32.6434 87.5368 32.7605 89.0002 32.7445 90.4708C32.7349 91.3787 32.0117 91.9103 31.5709 92.5944C31.4355 92.8043 30.4316 92.9752 31.3946 93.471C31.4545 93.5021 31.1593 93.8089 30.9675 93.9175C29.6941 94.6364 28.369 95.0278 26.8727 94.7664C22.6026 94.0204 19.5794 91.5763 17.433 87.9236C15.5507 84.7197 14.1438 81.3561 13.7962 77.5957C13.6206 75.6945 14.4619 74.087 15.1662 72.4857C15.7614 71.1322 17.7223 70.7558 19.2598 71.4071C20.3389 71.8643 21.3087 72.5144 22.2794 73.1825Z" fill="black"/>
<path fill-rule="evenodd" clip-rule="evenodd" d="M58.7074 14.2806C60.4532 16.5925 62.5455 17.9971 65.2463 18.3599C67.246 18.6286 68.064 17.6403 67.56 15.6647C67.1918 14.2209 66.4253 12.9707 65.5461 11.7857C64.2261 10.0062 62.603 9.76445 60.7758 10.9915C60.0409 11.485 59.9183 11.9891 60.503 12.6095C61.009 13.1464 61.3953 13.7616 60.8997 14.3872C60.3453 15.0862 59.67 14.5131 59.0605 14.2839C59.028 14.2716 58.9863 14.2818 58.7074 14.2806ZM61.3391 20.4219C57.6988 17.8614 55.5006 14.7974 54.2617 11.0322C53.9893 10.2063 53.7927 9.35765 53.8668 8.48073C53.9705 7.24914 54.9364 6.50833 56.0639 6.92633C56.6975 7.16171 56.9959 6.98516 57.4094 6.58149C59.2707 4.76413 61.9226 4.2871 64.037 5.72113C68.4186 8.69238 71.3218 12.831 72.3413 18.034C73.0816 21.8131 70.8492 23.7492 67.0294 23.018C64.7629 22.584 62.8023 21.4804 61.3391 20.4219Z" fill="black"/>
<path fill-rule="evenodd" clip-rule="evenodd" d="M53.7041 46.3799C54.4639 46.8659 55.4252 47.3098 56.3561 46.8044C57.2107 46.3406 56.995 45.3286 56.8551 44.5365C56.2807 41.2767 54.7984 38.434 52.6854 35.9137C52.1371 35.2593 51.5058 35.4385 50.8828 35.882C50.293 36.3016 50.1294 36.7382 50.5625 37.3976C50.8394 37.8194 51.1529 38.3599 50.6886 38.8408C50.284 39.2596 49.8626 38.8093 49.4554 38.7181C49.2488 38.6721 49.0493 38.4435 48.8443 38.6464C48.6627 38.8263 48.7329 39.0972 48.8266 39.2833C50.1106 41.8349 51.4162 44.3744 53.7041 46.3799ZM53.528 31.9302C56.7052 34.469 58.7723 37.8668 60.7285 41.3457C61.8878 43.4082 62.6943 45.5408 62.3609 48.0001C62.0677 50.1641 60.7367 51.4061 58.5302 51.123C55.0582 50.6769 52.0349 49.2969 49.8508 46.4329C47.9445 43.9336 46.5229 41.1964 45.8214 38.1069C45.7144 37.6343 45.651 37.0859 45.9747 36.8279C46.6784 36.2668 46.3741 35.6373 46.1631 35.1077C45.5898 33.6723 46.041 32.5173 47.0422 31.5395C48.1484 30.4593 49.4632 29.9029 51.0478 30.4094C51.9974 30.7128 52.8112 31.2374 53.528 31.9302Z" fill="black"/>
<path fill-rule="evenodd" clip-rule="evenodd" d="M79.6066 32.2657C79.6796 32.7331 79.9523 32.9503 80.1802 33.1949C80.4382 33.472 80.4516 33.8112 80.1292 33.951C79.334 34.2947 79.5542 34.8991 79.6528 35.4771C79.9182 37.0367 80.3414 38.5761 81.0203 39.9838C81.7557 41.5096 82.5029 43.1025 84.112 44.0007C85.1124 44.5593 86.1858 45.2078 87.231 44.4078C88.3018 43.588 88.1908 42.301 87.9571 41.0852C87.9431 41.0121 87.9056 40.944 87.8872 40.8713C87.1657 38.0667 85.4606 35.8115 83.6446 33.6774C82.6646 32.5262 81.2343 31.9762 79.6066 32.2657ZM83.4257 29.0009C86.2171 31.1234 88.1302 33.9469 89.9556 36.8879C91.2155 38.9175 92.0885 41.0446 92.6285 43.3436C93.1007 45.356 91.9805 47.9646 89.9604 48.8481C89.2038 49.1789 88.3805 48.738 87.6693 49.1826C87.4048 47.8744 86.2719 48.7382 85.6193 48.3652C82.9709 46.8535 80.667 45.0661 79.1987 42.2438C77.7605 39.4807 76.931 36.6284 76.8877 33.5343C76.8827 33.1899 76.7405 32.9978 76.499 32.7848C76.1653 32.4901 75.8247 32.1709 75.595 31.7962C74.2729 29.6407 74.9163 28.1051 77.384 27.559C79.6188 27.0645 81.628 27.6205 83.4257 29.0009Z" fill="black"/>
<path fill-rule="evenodd" clip-rule="evenodd" d="M47.1568 82.6907C47.6496 82.9918 48.1302 83.4544 48.7078 83.1482C49.2457 82.8629 49.1094 82.2233 49.0958 81.7094C49.0763 80.9898 48.9076 80.2882 48.6395 79.6236C47.5728 76.9805 46.0449 74.6404 44.0148 72.628C43.4996 72.1178 42.7892 71.5847 42.2661 72.0761C41.7135 72.5954 40.9451 73.3587 41.5803 74.3821C41.7573 74.6671 41.9147 74.9772 42.0122 75.2971C42.9381 78.3185 45.128 80.4464 47.1568 82.6907ZM45.3087 69.9582C48.3172 72.4453 50.8162 75.6758 52.5228 79.5166C52.7353 79.9961 52.8885 80.5017 53.1002 80.9816C53.9557 82.9226 53.5515 84.7139 52.4061 86.3781C52.0104 86.9528 51.3347 86.9432 50.6791 86.8567C48.3067 86.5433 46.3175 85.4594 44.7215 83.7275C41.5596 80.2956 39.1148 76.404 37.4747 72.0194C37.1811 71.2355 37.0664 70.4186 36.9799 69.6043C36.8826 68.6844 37.4157 68.348 38.2887 68.6935C38.5878 68.8122 38.8675 69.0432 39.2194 68.7611C40.6234 67.6365 42.0308 68.3711 43.4001 68.8324C43.9903 69.0317 44.4996 69.4702 45.3087 69.9582Z" fill="black"/>
<path fill-rule="evenodd" clip-rule="evenodd" d="M71.5505 79.9704C71.4281 78.7407 70.8097 77.9023 70.3638 76.9691C69.543 75.2534 68.3468 73.8789 67.002 72.5951C66.7782 72.3817 66.5026 72.2028 66.2019 72.4334C65.908 72.6588 66.0386 72.9817 66.1368 73.2484C66.2264 73.4904 66.5366 73.7286 66.5017 73.9249C66.3847 74.5886 67.8311 75.1299 66.64 75.8671C66.4881 75.9616 66.6397 76.2619 66.8738 76.1881C67.8945 75.8651 68.137 76.7188 68.5199 77.2866C69.2714 78.4 70.0961 79.4063 71.5505 79.9704ZM75.1183 83.6638C75.3761 82.324 74.5933 82.3826 73.9524 82.802C72.4872 83.76 71.2083 82.9589 69.975 82.435C69.1864 82.1 68.4902 81.3956 67.9241 80.7144C65.3614 77.6317 63.5435 74.1082 62.0842 70.397C61.8437 69.7862 61.9168 69.0707 61.6452 68.4363C61.5283 68.1622 61.5686 67.8251 61.8553 67.6217C62.1386 67.4208 62.3831 67.4794 62.6541 67.721C63.1597 68.171 63.7433 68.232 64.4288 68.1172C66.3155 67.8 67.6996 68.9612 68.9468 70.0438C72.1322 72.8076 74.4529 76.2403 75.9718 80.1747C76.4346 81.373 76.5327 82.6475 75.1183 83.6638Z" fill="black"/>
<path fill-rule="evenodd" clip-rule="evenodd" d="M28.8838 53.2957C28.5839 53.1872 28.2836 53.0784 27.8461 52.9198C28.2763 54.4453 28.9318 55.7378 29.8328 56.8865C30.4297 57.6473 31.5064 57.5327 32.0353 56.7159C32.5686 55.8931 32.5539 54.9876 32.237 54.1095C31.4005 51.793 29.8617 49.9152 28.149 48.2342C27.6383 47.7334 26.8138 47.2399 25.9235 47.1376C25.1547 47.0498 24.2311 45.4299 24.4904 44.6371C24.8148 43.6444 25.6735 43.6844 26.4589 43.8359C28.0065 44.1339 29.124 45.2324 30.2335 46.2057C32.7418 48.4074 34.6978 51.061 36.0274 54.1439C36.6194 55.5162 37.0611 56.9186 36.2955 58.3722C34.9906 60.8483 34.0879 61.5971 31.412 60.5459C27.8857 59.1609 24.9474 54.545 25.0024 50.722C25.0082 50.2984 25.047 49.8942 25.4525 49.6321C25.9146 49.3328 26.2528 49.6701 26.5755 49.8827C27.777 50.6741 28.3909 51.9145 29.0838 53.0898C29.0171 53.1585 28.9506 53.227 28.8838 53.2957Z" fill="black"/>
<path fill-rule="evenodd" clip-rule="evenodd" d="M95.3606 77.8277C94.902 78.5906 94.2395 78.9115 93.5311 78.4463C92.2799 77.6239 90.9557 77.075 89.886 75.761C88.0862 73.5503 86.7409 71.1835 85.7847 68.577C85.363 67.4265 84.2842 66.9886 83.7148 66.0424C83.2404 65.2544 82.8636 64.4582 82.742 63.5478C82.6632 62.958 82.6838 62.406 83.3307 62.1159C83.9376 61.8433 84.3742 61.8621 85.0415 62.3015C89.2164 65.0507 91.7105 69.1945 94.377 73.208C94.9663 74.0958 95.3129 75.0819 95.6409 76.0857C95.8606 76.7593 95.8013 77.3379 95.3606 77.8277Z" fill="black"/>
</svg>
