<svg id="Layer_1" data-name="Layer 1" xmlns="http://www.w3.org/2000/svg" viewBox="0 0 969.29 302.71"><defs><style>.cls-1{fill:#7a5cbd;}.cls-2{fill:#f4bd03;}.cls-3{fill:#ed038f;}.cls-4{fill:#47e700;}</style></defs><path class="cls-1" d="M383.2,174.63h14.92q-3.3,12.52-12.53,19.09-9.25,6.87-23.28,6.86-17,0-26.55-11-9.56-10.74-9.55-30.73,0-19.08,9.25-29.83,9.54-11,26.56-11,17.89,0,27.74,10.74a41.09,41.09,0,0,1,7.76,15.21H376.63a17.31,17.31,0,0,0-3-4.47q-3.88-4.17-11-4.18a14.54,14.54,0,0,0-10.74,4.18q-5.37,6-5.37,19.69t5.37,19.39q3.87,4.78,11.64,4.78a16.94,16.94,0,0,0,8.65-2.09,4.26,4.26,0,0,0,1.64-1l1.64-1.65a13.07,13.07,0,0,1,2.39-2.38A8.19,8.19,0,0,1,383.2,174.63Z"/><path class="cls-1" d="M404.23,96.46H415a10,10,0,0,1,7.16,2.83,9.32,9.32,0,0,1,3,7v92.79H404.23Z"/><path class="cls-1" d="M486,195.81a36.82,36.82,0,0,1-13.28,4,120.42,120.42,0,0,1-12.38.74,31.28,31.28,0,0,1-18.8-5.82q-8-5.81-8-19.24,0-12.53,7.31-17.9t18.65-7.16A17.5,17.5,0,0,0,463,150c1.39-.3,3-.54,4.77-.75q13.13-1.78,13.13-7.75c0-3-1.55-4.93-4.63-5.82a30.49,30.49,0,0,0-8.5-1.34,21.87,21.87,0,0,0-7.46,1.19,8.12,8.12,0,0,0-4.77,4.48h-20a23,23,0,0,1,8.35-15.22q8.05-6.85,23-6.86,16.71,0,25.07,5.67a19.16,19.16,0,0,1,8.65,16.7v27.16q0,11.92-4.33,18.64A26.4,26.4,0,0,1,486,195.81Zm-4.77-36.7A56.39,56.39,0,0,1,469.57,163l-6.86,1.49q-5.37,1.5-7.76,3.88a12.18,12.18,0,0,0-2.09,6.56,9.67,9.67,0,0,0,2.69,7.16c1.79,1.6,4.37,2.39,7.75,2.39q8.35,0,13.13-4.77t4.78-13.13Z"/><path class="cls-1" d="M508.27,172.83h20.29q.29,6,4.47,8.95,4.47,3,11.94,3a19.18,19.18,0,0,0,9.25-2.09,6.34,6.34,0,0,0,3.57-5.67q0-5.37-12.53-8a58.41,58.41,0,0,1-8-1.79q-15.81-3.88-21.18-9.25-6-5.37-6-14.32a23.77,23.77,0,0,1,8.65-18.8q9-6.85,23.27-6.86,15.51,0,24.77,6.86A26.33,26.33,0,0,1,576,144.19H563.17a9.48,9.48,0,0,1-8.66-5.07l-2.39-2.39q-3.57-2.68-9.84-2.68-6,0-8.95,1.79a6,6,0,0,0-2.68,5.37q0,4.77,15.51,8a29.56,29.56,0,0,0,3.13.9,11.69,11.69,0,0,0,2.54.3Q567,154.35,573,159.41q5.67,5.37,5.67,14.32,0,13.13-9.55,20.29-8.94,6.55-26.85,6.56-17,0-25.36-6.86-8.65-6.85-8.65-20Z"/><path class="cls-1" d="M586.35,172.83h20.29q.3,6,4.48,8.95,4.47,3,11.93,3a19.18,19.18,0,0,0,9.25-2.09,6.33,6.33,0,0,0,3.58-5.67q0-5.37-12.53-8a58.62,58.62,0,0,1-8.06-1.79q-15.81-3.88-21.18-9.25-6-5.37-6-14.32a23.75,23.75,0,0,1,8.66-18.8q8.94-6.85,23.27-6.86,15.51,0,24.76,6.86a26.26,26.26,0,0,1,9.25,19.39H641.25a9.46,9.46,0,0,1-8.65-5.07c-.8-.79-1.6-1.59-2.39-2.39q-3.59-2.68-9.85-2.68-6,0-9,1.79a6,6,0,0,0-2.68,5.37q0,4.77,15.51,8a29.67,29.67,0,0,0,3.14.9,11.6,11.6,0,0,0,2.53.3q15.23,3.89,21.19,8.95,5.65,5.37,5.66,14.32,0,13.13-9.54,20.29-9,6.55-26.86,6.56-17,0-25.36-6.86-8.65-6.85-8.65-20Z"/><path class="cls-2" d="M717.24,195.81a36.71,36.71,0,0,1-13.27,4,120.74,120.74,0,0,1-12.38.74,31.24,31.24,0,0,1-18.8-5.82q-8.06-5.81-8.06-19.24,0-12.53,7.31-17.9t18.65-7.16a17.5,17.5,0,0,0,3.58-.45c1.39-.3,3-.54,4.77-.75q13.13-1.78,13.13-7.75c0-3-1.54-4.93-4.62-5.82a30.61,30.61,0,0,0-8.51-1.34,21.81,21.81,0,0,0-7.45,1.19,8.11,8.11,0,0,0-4.78,4.48h-20a22.94,22.94,0,0,1,8.36-15.22q8-6.85,23-6.86,16.7,0,25.06,5.67a19.14,19.14,0,0,1,8.65,16.7v27.16q0,11.92-4.32,18.64A26.49,26.49,0,0,1,717.24,195.81Zm-4.77-36.7A56.39,56.39,0,0,1,700.83,163L694,164.48q-5.37,1.5-7.76,3.88a12.18,12.18,0,0,0-2.09,6.56,9.67,9.67,0,0,0,2.69,7.16c1.79,1.6,4.37,2.39,7.76,2.39q8.34,0,13.13-4.77c3.17-3.18,4.77-7.56,4.77-13.13Z"/><path class="cls-2" d="M793.08,194.32v-5.08a22.8,22.8,0,0,1-14.47,10.45,29.67,29.67,0,0,1-18.05-1.5q-9-3.57-15.37-13.27t-6.41-25.51q0-18.49,8.5-30t27.3-11.49a48.63,48.63,0,0,1,26.55,7.76q12.24,7.76,12.24,28.64v42.07q0,20.86-12.24,28.49a49.33,49.33,0,0,1-26.55,7.61q-27.45,0-34-25.66h21.78a16.62,16.62,0,0,0,17.15,7.6,16.08,16.08,0,0,0,9-5.81Q792.48,203.86,793.08,194.32Zm-34-34.32q0,20.59,11.93,22.83t17.6-5.52q2.7-3.28,3.88-10.29a43.41,43.41,0,0,0,.15-13.88,27.8,27.8,0,0,0-4.92-12.23q-3.88-5.37-11.34-5.37-10.14,0-13.72,7.46A38.76,38.76,0,0,0,759.07,160Z"/><path class="cls-2" d="M822.59,96.46h10.74a10.19,10.19,0,0,1,10.15,10.14v6.27H822.59Zm0,23.27h10.74a10.19,10.19,0,0,1,10.15,10.14v69.22H822.59Z"/><path class="cls-2" d="M851.74,96.46h10.74a10,10,0,0,1,7.16,2.83,9.29,9.29,0,0,1,3,7v92.79H851.74Z"/><path class="cls-2" d="M937,174.63h14.92q-3.28,12.52-12.53,19.09-9.25,6.87-23.27,6.86-17,0-26.56-11Q880,178.8,880,158.81q0-19.08,9.24-29.83,9.56-11,26.56-11,17.89,0,27.75,10.74,9.54,11,9.54,30.73v3.28a5.31,5.31,0,0,1-.29,2.09H901.2q.28,9.25,4.47,13.72,3.89,4.78,11.64,4.78a16.89,16.89,0,0,0,8.65-2.09,4.26,4.26,0,0,0,1.64-1l1.65-1.65a6.43,6.43,0,0,1,2.23-2.38A8.85,8.85,0,0,1,937,174.63Zm-35.8-23.28h30.43q-.6-8.06-4.18-11.93-3.87-4.17-11-4.18a14.58,14.58,0,0,0-10.75,4.18C902.89,142.21,901.39,146.18,901.2,151.35Z"/><path class="cls-1" d="M135.27,60.9,135,95.37c.6,22.14-24.21,36-25.81,36.91l49.07-26.55a44.92,44.92,0,0,0,11.13-8.37c10-10.52,10.39-21.24,10.39-21.24l2.78-63.68-32,17.32C134.6,38.37,135.27,60.9,135.27,60.9Z"/><path class="cls-3" d="M70,176.42l34.26-3.86c21.91-3.27,38.7,19.68,39.76,21.17l-32.28-45.51a44.65,44.65,0,0,0-9.65-10c-11.66-8.71-22.34-7.76-22.34-7.76l-63.55,4.93L37.24,165C47.71,179.8,70,176.42,70,176.42Z"/><path class="cls-4" d="M247.17,127.19l-34.47.69c-22.11,1.23-36.71-23.16-37.63-24.74L203,151.42a44.73,44.73,0,0,0,8.69,10.9c10.8,9.74,21.52,9.77,21.52,9.77l63.74,1-18.23-31.51C269.66,125.88,247.17,127.19,247.17,127.19Z"/><path class="cls-2" d="M184.69,239.56l-1.39-34.45c-1.68-22.08,22.41-37.18,24-38.13l-47.7,28.92a44.8,44.8,0,0,0-10.72,8.91c-9.52,11-9.33,21.72-9.33,21.72l.34,63.74L171,271.4C186.47,262,184.69,239.56,184.69,239.56Z"/><circle class="cls-3" cx="106.92" cy="208.48" r="22.15"/><circle class="cls-1" cx="97.77" cy="91.58" r="22.15"/><circle class="cls-4" cx="218.52" cy="91.47" r="22.15"/><circle class="cls-2" cx="219.76" cy="209.77" r="22.15"/></svg>