<svg width="192" height="37" viewBox="0 0 192 37" fill="none" xmlns="http://www.w3.org/2000/svg">
<path d="M15.7947 17.7833C15.7947 14.5626 13.372 12.2991 10.3961 12.2991C7.42011 12.2991 4.9974 14.6008 4.9974 17.7833C4.9974 20.9277 7.42011 23.2677 10.3961 23.2677C13.375 23.2647 15.7947 21.004 15.7947 17.7833ZM15.8373 27.3692V24.8765C14.369 26.6029 12.1834 27.6745 9.56621 27.6745C4.12802 27.6745 0 23.4555 0 17.7833C0 12.1464 4.28609 7.85405 9.68779 7.85405C12.2291 7.85405 14.3721 8.9286 15.8403 10.6138V8.19755H20.7222V27.3692H15.8373Z" fill="#030303"/>
<path d="M44.4353 23.1121C42.727 23.1121 42.2527 22.4984 42.2527 20.8896V12.3783H45.3898V8.19754H42.2527V3.52062H37.2493V8.19754H30.8049V7.03198C30.8049 5.42016 31.4403 4.80654 33.1882 4.80654H34.2856V1.08673H31.878C27.75 1.08673 25.8045 2.39028 25.8045 6.37727V8.1946H23.0262V12.3754H25.8045V27.3662H30.808V12.3754H37.2523V21.7703C37.2523 25.6809 38.7996 27.3692 42.8486 27.3692H45.4293V23.1121H44.4353Z" fill="#030303"/>
<path d="M62.3794 16.057C62.0237 13.5643 59.9172 12.0699 57.458 12.0699C54.9957 12.0699 52.9713 13.5262 52.4575 16.057H62.3794ZM52.415 19.0487C52.7737 21.8848 54.8772 23.4966 57.537 23.4966C59.6405 23.4966 61.2699 22.5365 62.2213 21.0039H67.3433C66.1517 25.0673 62.3794 27.6744 57.4185 27.6744C51.424 27.6744 47.217 23.611 47.217 17.8214C47.217 12.0318 51.6642 7.85104 57.54 7.85104C63.4555 7.85104 67.7416 12.07 67.7416 17.8214C67.7416 18.2442 67.7021 18.6641 67.623 19.0487H52.415Z" fill="#030303"/>
<path d="M99.5529 17.7833C99.5529 14.6771 97.1302 12.2991 94.1542 12.2991C91.1783 12.2991 88.7555 14.6008 88.7555 17.7833C88.7555 20.9277 91.1783 23.2677 94.1542 23.2677C97.1302 23.2647 99.5529 20.8896 99.5529 17.7833ZM83.8311 8.19755H88.7129V10.6902C90.1812 8.92566 92.3638 7.85405 94.984 7.85405C100.343 7.85405 104.55 12.1111 104.55 17.7452C104.55 23.3821 100.264 27.6774 94.8655 27.6774C92.3638 27.6774 90.2998 26.7174 88.8711 25.1085V35.258H83.8311V8.19755Z" fill="#030303"/>
<path d="M122.148 17.7833C122.148 14.5626 119.728 12.2991 116.749 12.2991C113.773 12.2991 111.35 14.6008 111.35 17.7833C111.35 20.9277 113.773 23.2677 116.749 23.2677C119.728 23.2647 122.148 21.004 122.148 17.7833ZM122.19 27.3692V24.8765C120.722 26.6029 118.536 27.6745 115.919 27.6745C110.481 27.6745 106.353 23.4555 106.353 17.7833C106.353 12.1464 110.639 7.85405 116.038 7.85405C118.579 7.85405 120.722 8.9286 122.19 10.6138V8.19755H127.073V27.3692H122.19Z" fill="#030303"/>
<path d="M75.0308 10.0765C75.0308 10.0765 76.2742 7.85405 79.3169 7.85405C80.618 7.85405 81.4601 8.28562 81.4601 8.28562V13.1769C81.4601 13.1769 79.624 12.0818 77.9369 12.302C76.2498 12.5222 75.1829 14.0195 75.189 16.0218V27.3721H70.149V8.20049H75.0308V10.0765Z" fill="#030303"/>
<path d="M149.873 8.19751L137.547 35.1963H132.349L137.188 24.759L129.006 8.19751H134.897L139.684 19.263L144.597 8.19751H149.873Z" fill="#030303"/>
<path d="M189.221 7.76301L177.001 0.951669C173.414 -1.04769 168.93 1.45078 168.93 5.45244V6.15119C168.93 6.78242 169.279 7.36666 169.845 7.6808L172.152 8.96674C172.83 9.34548 173.675 8.8728 173.675 8.11827V6.3802C173.675 5.51116 174.648 4.96802 175.426 5.40254L186.01 11.3037C186.789 11.7383 186.789 12.8246 186.01 13.2562L175.426 19.1574C174.648 19.5919 173.675 19.0487 173.675 18.1797V17.2548C173.675 13.2532 169.191 10.7518 165.602 12.754L153.382 19.5654C149.795 21.5648 149.795 26.5676 153.382 28.567L165.602 35.3783C169.188 37.3776 173.675 34.8792 173.675 30.8776V30.1788C173.675 29.5475 173.326 28.9662 172.76 28.6491L170.453 27.3603C169.775 26.9816 168.93 27.4542 168.93 28.2088V29.9469C168.93 30.8159 167.958 31.359 167.179 30.9245L156.595 25.0233C155.817 24.5888 155.817 23.5025 156.595 23.068L167.179 17.1667C167.958 16.7322 168.93 17.2754 168.93 18.1444V19.0693C168.93 23.0709 173.414 25.5724 177.001 23.5701L189.221 16.7587C192.808 14.7651 192.808 9.76237 189.221 7.76301Z" fill="#030303"/>
</svg>
