<svg width="200" height="37" viewBox="0 0 200 37" fill="none" xmlns="http://www.w3.org/2000/svg">
<path fill-rule="evenodd" clip-rule="evenodd" d="M33.4233 0.248641H3.7156C2.02241 0.248641 0.650391 1.62081 0.650391 3.31349V33.0176C0.650391 34.7105 2.02273 36.0823 3.7156 36.0823H33.4233C35.1164 36.0823 36.4885 34.7101 36.4885 33.0176V3.31349C36.4885 1.62048 35.1161 0.248641 33.4233 0.248641ZM19.4815 19.9911C16.8024 19.9911 15.5849 17.4024 15.5849 15.0029C15.5849 11.2247 17.6323 9.87942 19.5476 9.87942C21.898 9.87942 23.4772 11.9232 23.4772 14.9676C23.4772 18.4401 21.4682 19.9911 19.4815 19.9911ZM28.525 14.901C28.525 9.23829 25.2951 5.43416 20.4913 5.43416C17.6966 5.43416 16.0789 6.70159 15.2984 7.57618C15.2048 6.82202 14.7127 5.84367 12.7901 5.84367H8.61442V10.2537H10.3258C10.6159 10.2537 10.7096 10.3463 10.7096 10.6391V30.7771H15.6859V23.2189C15.6859 23.0151 15.6822 22.8242 15.6767 22.6537C16.4534 23.3726 17.939 24.3658 20.2582 24.3658C25.1224 24.3658 28.525 20.4746 28.525 14.901Z" fill="#030303"/>
<path fill-rule="evenodd" clip-rule="evenodd" d="M49.6384 9.89806C50.5199 8.91104 52.3473 7.48071 55.5042 7.48071C60.9302 7.48071 64.5788 11.7738 64.5788 18.1643C64.5788 24.4544 60.7352 28.8459 55.2407 28.8459C52.6211 28.8459 50.9431 27.7249 50.0657 26.9136C50.0719 27.106 50.076 27.3214 50.076 27.5514V36.0811H44.455V13.3547C44.455 13.0243 44.3492 12.9198 44.0215 12.9198H42.0884V7.94285H46.805C48.9767 7.94285 49.5326 9.04696 49.6384 9.89806ZM54.438 12.4973C52.2747 12.4973 49.962 14.0155 49.962 18.2793C49.962 20.9873 51.3371 23.9087 54.3633 23.9087C56.6076 23.9087 58.8768 22.1584 58.8768 18.2397C58.8768 14.8039 57.093 12.4973 54.438 12.4973Z" fill="#030303"/>
<path d="M72.1273 23.0121V10.9692C72.1273 8.93456 71.1546 7.94336 69.1613 7.94336H64.1376V12.9202H66.0728C66.3985 12.9202 66.5042 13.0269 66.5042 13.3553V25.3562C66.5042 27.4222 67.4459 28.3821 69.4641 28.3821H74.494V23.4492H72.5587C72.2476 23.4492 72.1273 23.3236 72.1273 23.0121Z" fill="#030303"/>
<path fill-rule="evenodd" clip-rule="evenodd" d="M80.9433 9.89806C81.8289 8.91104 83.6522 7.48071 86.8132 7.48071C92.2372 7.48071 95.8836 11.7738 95.8836 18.1643C95.8836 24.4544 92.0443 28.8459 86.5477 28.8459C83.9302 28.8459 82.2459 27.7249 81.3727 26.9136C81.3788 27.106 81.3851 27.3214 81.3851 27.5514V36.0811H75.7599V13.3547C75.7599 13.0243 75.6541 12.9198 75.3285 12.9198H73.3953V7.94285H78.1141C80.2858 7.94285 80.8396 9.04696 80.9433 9.89806ZM81.2668 18.2793C81.2668 20.9873 82.6483 23.9087 85.6662 23.9087C87.9167 23.9087 90.1838 22.1584 90.1838 18.2397C90.1838 14.8039 88.4 12.4973 85.745 12.4973C83.5796 12.4973 81.2668 14.0155 81.2668 18.2793Z" fill="#030303"/>
<path fill-rule="evenodd" clip-rule="evenodd" d="M96.1705 18.1653C96.1705 11.8752 100.406 7.48168 106.463 7.48168C111.864 7.48168 115.494 11.3879 115.494 17.2013C115.494 17.791 115.384 18.9976 115.373 19.0477L115.342 19.4199H102.011C102.499 22.1385 104.561 23.872 107.377 23.872C110.212 23.872 112.381 21.9469 112.548 21.7982C112.554 21.7929 112.558 21.7899 112.559 21.7892L112.922 21.4421L115.371 25.5387L115.145 25.7645C115.012 25.8948 111.986 28.8468 107.037 28.8468C100.74 28.8468 96.1705 24.353 96.1705 18.1653ZM106.463 12.0717C104.355 12.0717 102.831 13.2093 102.221 15.2148H109.688C109.458 13.3703 108.155 12.0717 106.463 12.0717Z" fill="#030303"/>
<path fill-rule="evenodd" clip-rule="evenodd" d="M135.94 3.2738V23.0121C135.94 23.3236 136.061 23.4491 136.372 23.4491H138.265V28.3821H133.395C131.292 28.3821 130.726 27.2654 130.612 26.3829C129.738 27.3951 127.951 28.8462 124.85 28.8462C119.424 28.8462 115.777 24.5553 115.777 18.1648C115.777 11.8746 119.583 7.48116 125.038 7.48116C127.828 7.48116 129.448 8.47446 130.278 9.22935V5.66187C130.278 5.33147 130.172 5.22692 129.846 5.22692H127.911V0.247925H132.935C134.955 0.247925 135.94 1.23912 135.94 3.2738ZM121.512 18.1648C121.512 21.6527 123.242 23.9091 125.916 23.9091C128.079 23.9091 130.394 22.393 130.394 18.1272C130.394 15.3229 129.031 12.4978 125.992 12.4978C123.313 12.4978 121.512 14.773 121.512 18.1648Z" fill="#030303"/>
<path d="M150.774 7.67332C148.434 7.67332 146.281 9.03465 145.004 11.2032V10.7368C145.004 8.88409 143.99 7.94308 141.998 7.94308H137.165V12.92H139.099C139.424 12.92 139.532 13.0245 139.532 13.3549V28.3819H145.153V20.2034C145.153 19.1265 145.29 18.0893 145.556 17.1294C146.402 14.3085 148.65 13.3047 150.469 13.3047C151.114 13.3047 151.583 13.3738 151.591 13.3758L152.06 13.4469V7.81343L151.718 7.75488C151.701 7.7507 151.224 7.67332 150.774 7.67332Z" fill="#030303"/>
<path d="M160.062 23.0122V10.9693C160.062 8.93459 159.093 7.9434 157.099 7.9434H152.555V12.9203H154.007C154.335 12.9203 154.438 13.027 154.438 13.3553V25.3562C154.438 27.4223 155.382 28.3822 157.405 28.3822H162.43V23.4492H160.493C160.183 23.4492 160.062 23.3237 160.062 23.0122Z" fill="#030303"/>
<path d="M181.284 7.9434H178.284C176.532 7.9434 175.592 8.55611 175.035 10.0596L171.371 20.3794C171.245 20.7621 171.126 21.1907 171.024 21.6027C170.919 21.1907 170.792 20.7558 170.653 20.3732L166.988 10.0575C166.425 8.53728 165.517 7.9434 163.742 7.9434H160.551V12.9203H161.379C161.819 12.9203 161.96 13.0709 162.064 13.347L167.737 28.3822H174.059L179.731 13.347C179.836 13.0709 179.981 12.9203 180.42 12.9203H181.284V7.9434Z" fill="#030303"/>
<path fill-rule="evenodd" clip-rule="evenodd" d="M180.675 18.1653C180.675 11.8752 184.909 7.48168 190.964 7.48168C196.369 7.48168 200.001 11.3879 200.001 17.2013C200.001 17.791 199.886 18.9976 199.881 19.0477L199.849 19.4199H186.514C187.002 22.1385 189.063 23.872 191.882 23.872C194.806 23.872 197.041 21.808 197.06 21.7892L197.433 21.4421L199.876 25.5387L199.648 25.7645C199.521 25.8899 196.493 28.8468 191.538 28.8468C185.241 28.8468 180.675 24.353 180.675 18.1653ZM190.964 12.0717C188.858 12.0717 187.34 13.2093 186.724 15.2148H194.19C193.961 13.3703 192.661 12.0717 190.964 12.0717Z" fill="#030303"/>
<path d="M71.7435 0.249282H66.7323V5.57122H71.7435V0.249282Z" fill="#030303"/>
<path d="M159.68 0.249282H154.667V5.57122H159.68V0.249282Z" fill="#030303"/>
</svg>
