<svg width="204" height="60" viewBox="0 0 204 60" fill="none" xmlns="http://www.w3.org/2000/svg">
<g clip-path="url(#clip0_14_1328)">
<path d="M49.6279 40.2482L50.8817 39.9901C51.9879 39.6951 52.2829 39.5477 52.2829 37.3354V19.9694C52.2829 17.7571 51.9511 17.5728 50.8817 17.3147L49.6279 17.0566V16.0242H69.6143L69.983 23.3615H68.8399C67.918 21.3336 67.328 20.2643 66.7749 19.4532C65.5949 17.7571 64.8205 17.6097 62.2761 17.6097C60.3955 17.6097 59.4736 17.8309 58.9205 17.9784V27.3804H59.9161C62.4974 27.3804 63.0874 27.0854 63.5299 26.2743C64.0461 25.3525 64.3411 24.6519 64.673 23.4721H65.7793V32.9847H64.673C64.3411 31.8417 64.0461 31.1043 63.5299 30.035C63.0874 29.1133 62.608 28.9289 59.9161 28.9289H58.9205V36.0081C58.9205 39.2896 59.0311 39.6583 62.608 39.6583C65.558 39.6583 66.148 39.2896 67.3649 37.4829C68.0287 36.4874 68.7293 34.9388 69.688 32.616H70.8681L70.3518 41.2806H49.6648L49.6279 40.2482ZM73.9656 26.4217C73.1174 24.357 72.7118 23.8408 71.7899 23.5458L71.0893 23.3246V22.366H82.0412V23.3246L81.0456 23.5827C80.2712 23.8039 79.9025 24.1726 79.9025 25.0575C79.9025 25.5737 80.0869 26.2005 80.3819 27.0117L83.4425 35.4182H83.6269L86.5769 27.0117C86.9088 26.1268 87.0563 25.5 87.0563 24.9838C87.0563 24.1726 86.6875 23.7671 85.9131 23.5827L84.9175 23.3246V22.366H91.6657V23.3246L90.965 23.5458C90.0063 23.8777 89.6007 24.4307 88.7157 26.8273L83.0737 41.2806H79.9762L73.9656 26.4217ZM90.8175 31.7311C90.8175 25.3894 95.5007 21.8867 100.331 21.8867C105.346 21.8867 108.481 24.3939 108.591 30.9937H96.5332C96.6438 36.9667 98.8932 38.589 102.654 38.589C104.904 38.589 106.637 37.9254 108.001 37.2248V38.4415C106.711 39.8426 103.945 41.7599 100.294 41.7599C93.9519 41.6862 90.8175 37.9254 90.8175 31.7311ZM96.5332 29.5926L102.765 29.2608C102.765 24.8732 102.175 23.2509 99.9995 23.2509C98.1557 23.2509 96.6807 25.0207 96.5332 29.5926ZM118.179 24.6888C119.211 23.5827 121.313 21.776 123.747 21.776C125.296 21.776 126.586 23.0296 126.586 24.6151C126.586 26.2005 125.333 27.4541 123.747 27.4541C122.604 27.4541 121.571 26.7536 121.166 25.7581C120.945 25.3525 120.465 25.2419 120.133 25.2419C119.47 25.2419 118.695 25.7212 118.216 26.1636V37.9622C118.216 39.6583 118.363 39.8426 119.47 40.027L120.686 40.2851V41.2806H110.177V40.2851L111.136 40.027C112.353 39.6951 112.5 39.5108 112.5 37.9622V26.643C112.5 25.0944 112.316 24.9838 111.283 24.2832L110.066 23.4721V22.7347L117.736 21.8498L118.142 22.1447L118.068 24.6519L118.179 24.6888ZM127.693 40.2851L128.652 40.027C129.868 39.6951 130.016 39.5108 130.016 37.9622V26.643C130.016 25.0944 129.832 24.9838 128.799 24.2832L127.582 23.4721V22.7347L135.252 21.8498L135.658 22.1079L135.584 24.4307H135.732C137.649 23.0665 140.046 21.8498 142.701 21.8498C145.798 21.8498 147.458 23.4352 147.458 26.7167V37.9254C147.458 39.5108 147.605 39.6951 148.785 39.9901L149.744 40.2482V41.2437H139.603V40.2482L140.488 40.027C141.595 39.732 141.705 39.6214 141.705 37.9254V28.1547C141.705 25.9424 140.894 25.2419 139.198 25.2419C137.907 25.2419 136.617 25.5368 135.805 25.7212V37.9622C135.805 39.6951 135.916 39.7689 137.022 40.0638L137.907 40.2851V41.2806H127.767V40.2851H127.693ZM150.445 31.8417C150.445 24.8732 155.386 21.8867 160.29 21.8867C165.564 21.8867 170.173 25.0575 170.173 31.6574C170.173 38.6259 165.305 41.6862 160.29 41.6862C155.017 41.6862 150.445 38.5153 150.445 31.8417ZM164.052 32.0261C164.052 24.6888 162.65 23.2877 160.143 23.2877C157.857 23.2877 156.492 24.9469 156.492 31.2149C156.492 38.6628 157.709 40.2851 160.364 40.2851C162.54 40.2851 164.052 38.9946 164.052 32.0261ZM173.307 36.6718V24.5045H171.021V23.6196C173.861 22.5135 176.036 20.4118 177.069 17.4991H179.134V22.366H183.964L183.485 24.5045H179.134V36.303C179.134 38.1097 179.687 38.8471 181.494 38.8471C182.379 38.8471 183.448 38.6628 184.112 38.5153V39.5477C183.227 40.3588 181.42 41.6862 178.359 41.6862C175.077 41.6862 173.307 40.2482 173.307 36.6718ZM184.849 31.7311C184.849 25.3894 189.532 21.8867 194.363 21.8867C199.378 21.8867 202.513 24.3939 202.623 30.9937H190.602C190.712 36.9667 192.962 38.589 196.723 38.589C198.973 38.589 200.706 37.9254 202.07 37.2248V38.4415C200.779 39.8426 198.014 41.7599 194.363 41.7599C187.984 41.6862 184.849 37.9254 184.849 31.7311ZM190.565 29.5926L196.797 29.2608C196.797 24.8732 196.207 23.2509 194.031 23.2509C192.188 23.2509 190.712 25.0207 190.565 29.5926Z" fill="#030303"/>
<path d="M12.6802 18.8628C12.6802 19.3053 12.6433 20.0427 12.2008 20.522C11.7215 20.9645 10.984 21.0013 10.5415 21.0013H5.82144C4.45705 21.0013 3.6458 21.0013 3.09267 21.0751C2.79767 21.1119 2.42892 21.2594 2.24454 21.3332C2.17079 21.37 2.17079 21.3332 2.20766 21.2963L12.9752 10.3457C13.0121 10.3089 13.049 10.3089 13.0121 10.3826C12.9384 10.567 12.7909 10.9357 12.754 11.2306C12.6802 11.7837 12.6802 12.5948 12.6802 13.9591V18.8628ZM22.7103 51.9726C21.4565 51.1615 20.7928 50.0922 20.5346 49.4285C20.2765 48.8017 20.129 48.1012 20.129 47.4007C20.129 44.3404 22.6365 41.8332 25.734 41.8332C26.6559 41.8332 27.3934 42.5706 27.3934 43.4924C27.3934 44.1192 27.0616 44.6354 26.5453 44.9303C26.3609 45.041 26.1028 45.1147 25.9184 45.1516C25.7341 45.1884 25.0334 45.2622 24.7015 45.5571C24.3328 45.8521 24.0378 46.3314 24.0378 46.8476C24.0378 47.4007 24.259 47.9169 24.6278 48.2856C25.2915 48.9492 26.1766 49.3179 27.1353 49.3179C29.6428 49.3179 31.671 47.2901 31.671 44.7829C31.671 42.5337 30.1591 40.5427 28.1678 39.6578C27.8728 39.5104 27.3934 39.3998 26.9509 39.2891C26.3978 39.1785 25.8816 39.1048 25.8447 39.1048C24.2959 38.9204 20.424 37.7037 20.1659 34.2747C20.1659 34.2747 19.0228 39.4366 16.7365 40.8377C16.5152 40.9483 16.2202 41.0589 15.8884 41.1327C15.5565 41.2064 15.1877 41.2433 15.0771 41.2433C11.3527 41.4645 7.40707 40.2846 4.6783 37.4825C4.6783 37.4825 2.83454 35.9708 1.87579 31.7307C1.65454 30.6983 1.21203 28.8548 0.953907 27.1218C0.843282 26.495 0.806406 26.0157 0.769531 25.5733C0.769531 23.7666 1.87579 22.5499 3.27705 22.3655C3.31392 22.3655 3.42455 22.3655 3.4983 22.3655C4.34643 22.3655 10.7996 22.3655 10.7996 22.3655C12.0902 22.3655 12.8277 22.0337 13.3071 21.5913C13.934 21.0013 14.0815 20.1533 14.0815 19.1578C14.0815 19.1578 14.0815 12.4474 14.0815 11.5993C14.0815 11.5625 14.0815 11.415 14.0815 11.3781C14.2659 10.0139 15.4827 8.87091 17.2896 8.87091C17.2896 8.87091 17.8428 8.87091 18.1746 8.87091C18.5434 8.87091 18.9859 8.90778 19.3915 8.94465C19.6865 8.98152 19.9446 9.05526 20.3871 9.16588C22.6365 9.71893 23.1159 12.0049 23.1159 12.0049C23.1159 12.0049 27.3566 12.7423 29.4953 13.111C31.5235 13.4797 36.5385 13.8116 37.4972 18.8628C39.7466 30.8826 38.3822 42.5337 38.2716 42.5337C36.686 53.8899 27.2459 53.3368 27.2459 53.3368C25.2178 53.3368 23.7059 52.6732 22.7103 51.9726ZM31.1916 27.8224C29.9747 27.7118 28.9422 28.1911 28.5734 29.1129C28.4997 29.2972 28.4259 29.5184 28.4628 29.629C28.4997 29.7397 28.5734 29.7765 28.6472 29.8134C29.0897 30.0346 29.8272 30.1452 30.8966 30.2558C31.966 30.3665 32.7035 30.4402 33.1828 30.3665C33.2566 30.3665 33.3303 30.3296 33.4041 30.219C33.4778 30.1084 33.441 29.8871 33.441 29.7028C33.2935 28.6704 32.4085 27.9699 31.1916 27.8224Z" fill="#030303"/>
</g>
<defs>
<clipPath id="clip0_14_1328">
<rect width="202.674" height="59.3118" fill="white" transform="translate(0.658203)"/>
</clipPath>
</defs>
</svg>
