<svg width="209" height="60" viewBox="0 0 209 60" fill="none" xmlns="http://www.w3.org/2000/svg">
<g clip-path="url(#clip0_14_1330)">
<path d="M206.212 25.1289C207.433 26.4239 208.047 28.1797 208.047 30.4043V42.1069H203.518V31.731C203.518 30.4202 203.148 29.3873 202.407 28.6326C201.667 27.8778 200.667 27.4965 199.399 27.4965C197.902 27.5203 196.713 28.0367 195.838 29.0378C194.964 30.0388 194.523 31.3259 194.523 32.891V42.1069H190.025V16.1036H194.523V26.9324C195.791 24.4775 198.02 23.2301 201.202 23.1825C203.313 23.1825 204.991 23.826 206.212 25.1289ZM180.022 27.2105C178.525 27.2105 177.304 27.7269 176.375 28.7517C175.445 29.7846 174.973 31.1113 174.973 32.748C174.973 34.4323 175.445 35.7829 176.375 36.8157C177.312 37.8406 178.525 38.357 180.029 38.357C182.243 38.357 183.905 37.6181 185.016 36.1483L187.82 38.5C186.993 39.7156 185.858 40.6848 184.535 41.3045C183.172 41.956 181.597 42.2817 179.793 42.2817C177.974 42.2817 176.351 41.8845 174.933 41.09C173.539 40.3194 172.389 39.1515 171.633 37.7452C170.845 36.3072 170.451 34.6547 170.451 32.7877C170.451 30.8968 170.853 29.2205 171.649 27.7745C172.413 26.3524 173.571 25.1925 174.973 24.4139C176.39 23.6194 178.021 23.2222 179.872 23.2222C181.558 23.2222 183.062 23.5161 184.385 24.112C185.709 24.7079 186.788 25.5579 187.623 26.6543L184.889 29.284C183.621 27.9017 182.007 27.2105 180.022 27.2105ZM167.576 23.3572V42.1069H163.079V39.1276C162.441 40.1287 161.551 40.947 160.503 41.4952C159.455 42.0434 158.25 42.3214 156.887 42.3214C155.131 42.3214 153.595 41.9163 152.264 41.1138C150.94 40.3114 149.901 39.1753 149.168 37.7135C148.436 36.2516 148.065 34.5753 148.065 32.6844C148.065 30.8174 148.436 29.1649 149.176 27.7269C149.909 26.2889 150.948 25.1766 152.272 24.3821C153.595 23.5876 155.123 23.1904 156.856 23.1904C158.219 23.1904 159.432 23.4685 160.487 24.0167C161.543 24.5648 162.441 25.3752 163.079 26.3842V23.3731L167.576 23.3572ZM161.448 37.1097C162.393 36.1881 162.937 34.9646 163.079 33.4471V32.1203C162.937 30.5949 162.401 29.3794 161.456 28.4578C160.511 27.5362 159.314 27.0754 157.856 27.0754C156.312 27.0754 155.052 27.6077 154.083 28.6723C153.114 29.7369 152.618 31.1113 152.595 32.7877C152.618 34.472 153.114 35.8385 154.083 36.9031C155.052 37.9677 156.312 38.5 157.856 38.5C159.306 38.5 160.503 38.0392 161.448 37.1097ZM143.536 25.7725C145.025 27.4806 145.765 29.872 145.765 32.9545C145.765 33.5583 145.75 34.0191 145.734 34.321H132.068C132.367 35.6558 132.981 36.6965 133.919 37.4592C134.848 38.2219 135.998 38.5953 137.361 38.5953C138.29 38.5953 139.22 38.4126 140.078 38.0471C140.937 37.6976 141.709 37.1653 142.347 36.49L144.765 39.0482C143.828 40.089 142.678 40.8993 141.386 41.4316C140.063 41.9957 138.59 42.2738 136.975 42.2738C135.084 42.2738 133.415 41.8765 131.973 41.0821C130.563 40.3194 129.397 39.1515 128.633 37.7373C127.846 36.2993 127.46 34.6468 127.46 32.7798C127.46 30.9127 127.854 29.2523 128.657 27.8063C129.429 26.3842 130.587 25.2084 131.997 24.4218C133.43 23.6115 135.053 23.2142 136.873 23.2142C139.826 23.2142 142.048 24.0723 143.536 25.7725ZM141.654 31.2782C141.606 29.8958 141.158 28.7994 140.307 27.9811C139.456 27.1628 138.322 26.7497 136.912 26.7497C135.596 26.7497 134.494 27.1548 133.604 27.9573C132.714 28.7597 132.17 29.864 131.957 31.2702H141.654V31.2782ZM122.568 24.1835C123.639 23.54 124.892 23.2063 126.325 23.1825V27.5998C124.411 27.4806 122.883 27.9334 121.741 28.9504C120.599 29.9673 120.024 31.3417 120.024 33.0658V42.1069H115.526V23.3572H120.024V26.9642C120.654 25.7486 121.497 24.8191 122.568 24.1835ZM112.155 40.947C110.682 41.8606 109.13 42.3135 107.516 42.3135C105.925 42.3135 104.617 41.8368 103.609 40.8914C102.593 39.946 102.089 38.5477 102.089 36.7045V18.9717L106.555 18.4315V24.1199H111.848V27.4488H106.555V35.9021C106.555 36.768 106.712 37.3798 107.035 37.7373C107.358 38.1028 107.839 38.2775 108.485 38.2775C109.178 38.2775 110.052 38.0233 111.115 37.5069L112.155 40.947ZM93.7549 23.3572H98.2211V33.8682C98.2211 40.0016 93.9912 42.2817 89.6984 42.2817C85.4055 42.2817 81.1836 40.0016 81.1836 33.8682V23.3572H85.6497V34.0271C85.6497 36.3787 87.3826 38.2855 89.7063 38.2855C92.0299 38.2855 93.7628 36.3787 93.7628 34.0271L93.7549 23.3572ZM71.9283 18.9082C73.8581 19.9648 75.465 21.5299 76.5835 23.4287C77.7178 25.3434 78.277 27.4726 78.277 29.8084C78.277 32.1442 77.7099 34.2734 76.5835 36.204C75.465 38.1187 73.8581 39.6997 71.9283 40.7802C69.9512 41.9004 67.7694 42.4645 65.367 42.4645C62.9645 42.4645 60.7827 41.9004 58.8135 40.7802C56.8836 39.6997 55.2768 38.1187 54.1583 36.204C53.0319 34.2734 52.4648 32.1442 52.4648 29.8084C52.4648 27.4726 53.0319 25.3434 54.1583 23.4287C55.2768 21.522 56.8836 19.9648 58.8135 18.9082C60.7827 17.8118 62.9724 17.2636 65.367 17.2636C67.7694 17.2556 69.9591 17.8038 71.9283 18.9082ZM61.3261 22.5707C60.0737 23.2857 59.034 24.3265 58.3172 25.5818C57.5768 26.8609 57.2066 28.2671 57.2066 29.8084C57.2066 31.3497 57.5847 32.7639 58.333 34.0509C59.0576 35.3141 60.0974 36.3629 61.3419 37.1017C62.6022 37.8485 63.9649 38.2219 65.4457 38.2219C66.8714 38.2299 68.2735 37.8406 69.4944 37.1017C70.731 36.3629 71.7472 35.3141 72.4561 34.0509C73.1886 32.7559 73.5588 31.2941 73.5431 29.8084C73.5431 28.2671 73.1807 26.8609 72.4561 25.5818C71.755 24.3344 70.731 23.2937 69.4944 22.5707C68.2656 21.8398 66.8714 21.4584 65.4457 21.4664C63.9964 21.4584 62.5786 21.8398 61.3261 22.5707ZM18.5709 6.74469C24.9432 6.74469 34.5687 8.72294 39.0427 13.2594C40.1769 14.4114 41.6657 16.6598 41.6657 19.9648C41.6657 25.8281 36.9947 34.8295 31.8433 40.0572C29.1809 42.7584 24.9432 46.2859 19.2404 46.2859C13.6636 46.2859 9.41018 42.4565 8.1814 41.2012C3.45532 36.4185 0.0761719 29.1569 0.0761719 22.3959C0.0761719 18.1216 1.28132 14.3876 4.3454 11.2812C7.18104 8.4131 12.0725 6.74469 18.5709 6.74469ZM26.4556 30.1421C28.6059 27.9652 29.1888 25.2799 29.1888 23.8021C29.1888 22.7296 28.9131 21.1645 27.5898 19.8218C25.5655 17.7641 23.3127 17.1841 20.8709 17.1841C17.7753 17.1841 15.6959 18.1772 14.3095 19.5755C13.2225 20.6878 12.2852 22.3721 12.2852 24.7794C12.2852 27.1787 13.5534 29.4986 14.9239 30.8968C16.2 32.1839 18.2007 33.1373 20.2093 33.1373C22.2257 33.1373 24.3052 32.319 26.4556 30.1421Z" fill="#030303"/>
</g>
<defs>
<clipPath id="clip0_14_1330">
<rect width="208.853" height="59.3118" fill="white" transform="translate(0.0761719)"/>
</clipPath>
</defs>
</svg>
