<svg width="167" height="55" viewBox="0 0 167 55" fill="none" xmlns="http://www.w3.org/2000/svg">
<path d="M0.674805 0.812134H36.6899V18.8174H18.6823L0.674805 0.812134ZM0.674805 18.8174H18.6823L36.6899 36.8226H0.674805V18.8174ZM0.674805 36.8226H18.6823V54.8279L0.674805 36.8226Z" fill="#030303"/>
<path d="M57.0108 15.0165H71.5687V19.642H62.5209V26.0699H71.5687V30.5933H62.5209V38.8236H57.0108V15.0165ZM74.5619 22.4305H79.7663V25.8656C80.0382 24.6852 80.5944 23.779 81.4331 23.1447C82.2932 22.4865 83.2481 22.1586 84.2903 22.1586C84.8349 22.1586 85.2888 22.2048 85.6505 22.2946V27.1244C85.1315 27.0617 84.6091 27.028 84.0859 27.0222C82.6573 27.0222 81.5814 27.486 80.8547 28.416C80.1305 29.323 79.7663 30.6831 79.7663 32.4978V38.8236H74.5644V22.4305H74.5619ZM93.8662 39.266C92.2794 39.266 90.8953 38.8912 89.7163 38.1432C88.5596 37.3952 87.6402 36.3333 87.0635 35.082C86.4513 33.7681 86.1432 32.2812 86.1432 30.627C86.1432 28.9943 86.4628 27.5198 87.0972 26.2058C87.6921 24.9364 88.6362 23.863 89.8185 23.1109C91.0189 22.3629 92.3915 21.9881 93.9346 21.9881C95.0905 21.9881 96.1237 22.2385 97.0299 22.7369C97.9362 23.237 98.6167 23.9174 99.0707 24.7774V22.4305H104.241V38.8236H99.0707V36.5104C98.6167 37.3268 97.9139 37.9949 96.9615 38.5172C96.0091 39.0221 94.9447 39.2792 93.8662 39.266ZM95.3632 34.9461C96.6097 34.9461 97.5737 34.5383 98.2542 33.722C98.9347 32.9056 99.275 31.8734 99.275 30.627C99.275 29.4029 98.9347 28.3823 98.2542 27.5659C97.5737 26.7495 96.6097 26.3418 95.3632 26.3418C94.1826 26.3418 93.2318 26.738 92.506 27.5321C91.8032 28.3262 91.4514 29.3568 91.4514 30.627C91.4514 31.8973 91.8032 32.9394 92.506 33.7557C93.2318 34.5499 94.1842 34.9461 95.3632 34.9461ZM107.88 22.4305H113.085V24.8112C113.449 23.9709 114.037 23.2905 114.853 22.7707C115.693 22.2509 116.668 21.9881 117.778 21.9881C120.364 21.9881 122.077 22.9964 122.915 25.0155C123.376 24.1003 124.098 23.3432 124.99 22.8391C125.944 22.2649 127.04 21.9708 128.153 21.9881C132.031 21.9881 133.969 24.209 133.969 28.6541V38.8236H128.731V29.6064C128.731 28.4968 128.527 27.6804 128.119 27.1581C127.71 26.6375 127.098 26.3755 126.282 26.3755C125.398 26.3755 124.717 26.682 124.241 27.2941C123.765 27.8839 123.527 28.9144 123.527 30.389V38.8236H118.288V29.5726C118.288 28.4622 118.085 27.6565 117.676 27.1581C117.292 26.6375 116.69 26.3755 115.875 26.3755C114.967 26.3755 114.275 26.682 113.799 27.2941C113.323 27.8839 113.085 28.9144 113.085 30.389V38.8236H107.882V22.4305H107.88ZM153.52 29.7769C153.52 30.4788 153.474 31.2391 153.382 32.0555H141.275C141.321 33.1214 141.683 33.9361 142.363 34.5046C143.044 35.0705 143.964 35.3547 145.118 35.3547C146.729 35.3547 147.75 34.8662 148.18 33.8917H153.282C153.031 35.5021 152.147 36.8045 150.628 37.8029C149.132 38.7775 147.295 39.266 145.118 39.266C142.307 39.266 140.096 38.5056 138.485 36.9866C136.898 35.4667 136.104 33.348 136.104 30.627C136.104 28.8584 136.467 27.3278 137.192 26.0353C137.894 24.7445 138.974 23.6999 140.288 23.0426C141.627 22.3407 143.18 21.9881 144.95 21.9881C146.627 21.9881 148.111 22.3168 149.404 22.975C150.719 23.6332 151.729 24.5509 152.431 25.7297C153.158 26.9102 153.52 28.2587 153.52 29.7769ZM148.382 28.8246C148.359 27.7364 148.054 26.9077 147.463 26.3418C146.875 25.7758 146.023 25.4916 144.912 25.4916C143.802 25.4916 142.918 25.7973 142.259 26.4101C141.625 27 141.296 27.804 141.272 28.8246H148.382ZM155.815 22.4305H161.019V25.8656C161.291 24.6852 161.847 23.779 162.686 23.1447C163.5 22.5038 164.506 22.1562 165.543 22.1586C166.087 22.1586 166.541 22.2048 166.903 22.2946V27.1244C166.384 27.0617 165.862 27.028 165.339 27.0222C163.91 27.0222 162.834 27.486 162.107 28.416C161.381 29.323 161.019 30.6831 161.019 32.4978V38.8236H155.815V22.4305Z" fill="#030303"/>
</svg>
