<svg width="84" height="84" viewBox="0 0 84 84" fill="none" xmlns="http://www.w3.org/2000/svg">
<g clip-path="url(#clip0_16_1483)">
<path d="M41.9994 26.1546C36.0155 26.1546 31.1475 21.2863 31.1475 15.3026C31.1475 9.31892 36.0157 4.45068 41.9994 4.45068C47.9831 4.45068 52.8513 9.31892 52.8513 15.3026C52.8513 21.2863 47.9833 26.1546 41.9994 26.1546Z" fill="#8DC3E9"/>
<path d="M59.4998 52.2925H24.4985C23.0518 52.2925 21.8789 51.1196 21.8789 49.6729C21.8789 38.5785 30.9048 29.5527 41.9991 29.5527C53.0933 29.5527 62.1193 38.5785 62.1193 49.6729C62.1194 51.1198 60.9465 52.2925 59.4998 52.2925Z" fill="#8DC3E9"/>
<path d="M47.0818 79.2439L41.9998 76.5723L36.9178 79.2439C34.9999 80.252 32.7505 78.6191 33.117 76.4824L34.0876 70.8235L29.9763 66.8159C28.4248 65.3034 29.2827 62.6596 31.4281 62.3477L37.1099 61.522L39.6509 56.3735C40.6099 54.4305 43.3896 54.4292 44.349 56.3735L46.8901 61.522L52.5719 62.3477C54.716 62.6593 55.5762 65.3025 54.0237 66.8159L49.9124 70.8235L50.883 76.4824C51.252 78.6354 48.9842 80.2442 47.0818 79.2439Z" fill="#FFE49C"/>
<path d="M17.8969 79.2438L12.8149 76.5721L7.73293 79.2438C5.81503 80.252 3.56557 78.6191 3.93208 76.4823L4.90268 70.8235L0.791757 66.8161C-0.759785 65.3038 0.0980993 62.6597 2.24355 62.348L7.92537 61.5223L10.4662 56.3738C11.4252 54.4308 14.2049 54.4297 15.1643 56.3738L17.7053 61.5223L23.3871 62.348C25.5313 62.6596 26.3913 65.3028 24.8389 66.8163L20.7274 70.8238L21.698 76.4827C22.0648 78.6209 19.8135 80.2515 17.8969 79.2438Z" fill="#FFE49C"/>
<path d="M76.2662 79.2438L71.1842 76.572L66.1022 79.2438C64.1843 80.2519 61.9349 78.619 62.3014 76.4823L63.272 70.8234L59.1609 66.8158C57.6094 65.3035 58.4672 62.6595 60.6127 62.3478L66.2945 61.522L68.8354 56.3736C69.7943 54.4306 72.574 54.4294 73.5335 56.3736L76.0745 61.522L81.7563 62.3478C83.9004 62.6593 84.7604 65.3025 83.2081 66.816L79.0968 70.8236L80.0674 76.4824C80.4339 78.6208 78.1827 80.2514 76.2662 79.2438Z" fill="#FFD155"/>
<path d="M52.8514 15.3026C52.8514 9.31892 47.9835 4.45085 42 4.45068V26.1549C47.9834 26.1542 52.8514 21.2862 52.8514 15.3026Z" fill="#48AEE2"/>
<path d="M42 29.5527V52.2925H59.5001C60.9468 52.2925 62.1197 51.1196 62.1197 49.6729C62.1197 38.579 53.0938 29.5531 42 29.5527Z" fill="#48AEE2"/>
<path d="M52.5719 62.348L46.8901 61.5222L44.3491 56.3738C43.9077 55.4796 42.997 54.9135 42 54.9135V76.572L47.082 79.2436C48.9892 80.2464 51.2517 78.6322 50.8829 76.4821L49.9123 70.8233L54.0235 66.8157C55.5752 65.3035 54.7173 62.6597 52.5719 62.348Z" fill="#FFD155"/>
</g>
<defs>
<clipPath id="clip0_16_1483">
<rect width="84" height="84" fill="white"/>
</clipPath>
</defs>
</svg>
