<svg width="23" height="23" viewBox="0 0 23 23" fill="none" xmlns="http://www.w3.org/2000/svg">
<path d="M11.2068 22.9455C8.26786 22.9455 5.44934 21.7781 3.37119 19.7001C1.29317 17.6219 0.125732 14.8034 0.125732 11.8645C0.125732 8.92562 1.29317 6.10705 3.37119 4.02891C5.44934 1.95089 8.2679 0.783447 11.2068 0.783447C14.1456 0.783447 16.9642 1.95089 19.0423 4.02891C21.1204 6.10705 22.2878 8.92562 22.2878 11.8645C22.2878 13.8096 21.7758 15.7204 20.8033 17.4049C19.8307 19.0895 18.4319 20.4883 16.7473 21.4608C15.0628 22.4334 13.152 22.9454 11.2069 22.9454L11.2068 22.9455ZM11.2068 2.26116C8.65981 2.26116 6.21719 3.27296 4.41597 5.07393C2.61499 6.87491 1.60319 9.31761 1.60319 11.8647C1.60319 14.4119 2.61499 16.8543 4.41597 18.6555C6.21694 20.4565 8.65964 21.4683 11.2068 21.4683C13.7539 21.4683 16.1963 20.4565 17.9976 18.6555C19.7985 16.8546 20.8103 14.4119 20.8103 11.8647C20.8103 9.31761 19.7985 6.87516 17.9976 5.07393C16.1966 3.27296 13.7539 2.26116 11.2068 2.26116V2.26116Z" fill="white"/>
<path d="M10.8596 11.3177C7.50629 11.2435 4.19755 10.5341 1.1084 9.22702L1.70681 7.87523C1.82504 7.92701 13.6522 13.0982 19.6503 6.27954L20.7584 7.25475C18.0104 10.3869 14.3095 11.3177 10.8594 11.3177L10.8596 11.3177Z" fill="white"/>
<path d="M3.49428 18.5794L2.53394 17.4565C2.96974 17.0797 13.3489 8.36251 21.9477 13.7998L21.1572 15.0482C13.482 10.1949 3.59023 18.5129 3.49441 18.5794L3.49428 18.5794Z" fill="white"/>
<path d="M11.4433 22.6721L10.2983 21.7412C18.8304 11.2737 10.3425 2.40895 9.97314 2.03959L11.0294 1.00537C11.1256 1.10876 20.8102 11.1922 11.4433 22.672L11.4433 22.6721Z" fill="white"/>
</svg>
