<svg width="38" height="39" viewBox="0 0 38 39" fill="none" xmlns="http://www.w3.org/2000/svg">
<g clip-path="url(#clip0_2_3894)">
<path d="M37.1436 8.67425C37.1573 8.7246 37.1643 8.77652 37.1644 8.82867V16.9356C37.1644 17.0397 37.1368 17.1419 37.0843 17.2319C37.0318 17.322 36.9563 17.3967 36.8654 17.4484L30.0155 21.366V29.1308C30.0155 29.3421 29.9024 29.5372 29.7179 29.6436L15.4193 37.82C15.3865 37.8385 15.3508 37.8503 15.3151 37.8629C15.3017 37.8673 15.2891 37.8754 15.275 37.8791C15.175 37.9053 15.0699 37.9053 14.97 37.8791C14.9536 37.8747 14.9387 37.8658 14.9231 37.8599C14.8904 37.8481 14.8562 37.8378 14.8249 37.82L0.529245 29.6436C0.438428 29.5918 0.362969 29.5171 0.310473 29.4271C0.257976 29.337 0.230297 29.2349 0.230225 29.1308L0.230225 4.80992C0.230225 4.75672 0.237663 4.705 0.251052 4.65475C0.255515 4.63776 0.265929 4.62224 0.271879 4.60525C0.283037 4.57421 0.29345 4.54244 0.309815 4.51363C0.320972 4.49442 0.337336 4.4789 0.350725 4.46117C0.367833 4.43752 0.383454 4.41314 0.403537 4.39245C0.420645 4.37546 0.44296 4.3629 0.4623 4.34812C0.483871 4.33038 0.503211 4.31117 0.527757 4.29714H0.528501L7.67672 0.208924C7.76723 0.157188 7.86983 0.129959 7.97425 0.129959C8.07868 0.129959 8.18127 0.157188 8.27178 0.208924L15.42 4.29714H15.4215C15.4453 4.31191 15.4654 4.33038 15.4869 4.34738C15.5063 4.36216 15.5279 4.37546 15.545 4.39171C15.5658 4.41314 15.5807 4.43752 15.5985 4.46117C15.6112 4.4789 15.6283 4.49442 15.6387 4.51363C15.6558 4.54318 15.6655 4.57421 15.6774 4.60525C15.6833 4.62224 15.6937 4.63776 15.6982 4.65549C15.7119 4.70584 15.7189 4.75776 15.719 4.80992V20.0005L21.6756 16.5935V8.82794C21.6756 8.77621 21.6831 8.72375 21.6965 8.67425C21.7017 8.65652 21.7113 8.641 21.7173 8.624C21.7292 8.59297 21.7396 8.5612 21.756 8.53238C21.7671 8.51317 21.7835 8.49766 21.7961 8.47992C21.814 8.45628 21.8289 8.4319 21.8497 8.41121C21.8668 8.39421 21.8884 8.38165 21.9077 8.36687C21.93 8.34914 21.9494 8.32993 21.9732 8.31589H21.9739L29.1229 4.22768C29.2134 4.17587 29.316 4.1486 29.4204 4.1486C29.5248 4.1486 29.6274 4.17587 29.7179 4.22768L36.8661 8.31589C36.8914 8.33067 36.9108 8.34914 36.9331 8.36614C36.9517 8.38091 36.9733 8.39421 36.9904 8.41047C37.0112 8.4319 37.0261 8.45628 37.0439 8.47992C37.0573 8.49766 37.0737 8.51317 37.0841 8.53238C37.1012 8.5612 37.1109 8.59297 37.1228 8.624C37.1295 8.641 37.1391 8.65652 37.1436 8.67425ZM35.9728 16.5935V9.85202L33.4713 11.2825L30.0155 13.259V20.0005L35.9736 16.5935H35.9728ZM28.8246 28.7887V22.0428L25.4253 23.9712L15.7183 29.4744V36.2839L28.8246 28.7887ZM1.42184 5.83326V28.7887L14.5267 36.2832V29.4751L7.68044 25.6263L7.67821 25.6248L7.67523 25.6234C7.65217 25.6101 7.63283 25.5909 7.61126 25.5746C7.59267 25.5598 7.5711 25.548 7.55473 25.5317L7.55324 25.5295C7.5339 25.5111 7.52052 25.4882 7.50415 25.4675C7.48927 25.4475 7.47142 25.4305 7.45952 25.4098L7.45878 25.4076C7.44539 25.3854 7.43721 25.3588 7.42754 25.3337C7.41787 25.3116 7.40522 25.2909 7.39927 25.2672V25.2665C7.39183 25.2384 7.39035 25.2089 7.38737 25.18C7.38439 25.1579 7.37844 25.1357 7.37844 25.1135V9.24023L3.92335 7.26299L1.42184 5.834V5.83326ZM7.975 1.40443L2.01914 4.80992L7.97351 8.2154L13.9286 4.80918L7.97351 1.40443H7.975ZM11.0723 22.6575L14.5274 20.6818V5.83326L12.0259 7.26373L8.57006 9.24023V24.0887L11.0723 22.6575ZM29.4204 5.42319L23.4653 8.82867L29.4204 12.2342L35.3748 8.82794L29.4204 5.42319ZM28.8246 13.259L25.3687 11.2825L22.8672 9.85202V16.5935L26.3223 18.5693L28.8246 20.0005V13.259ZM15.1217 28.4511L23.8565 23.4976L28.2228 21.0224L22.2722 17.6191L15.4207 21.5374L9.17628 25.1084L15.1217 28.4511Z" fill="#FF2D20"/>
</g>
<defs>
<clipPath id="clip0_2_3894">
<rect width="37" height="38" fill="white" transform="translate(0.230225 0.00427246)"/>
</clipPath>
</defs>
</svg>
