<svg xmlns="http://www.w3.org/2000/svg" viewBox="0 0 2057.88 266.51"><defs><style>.cls-1{fill:#010133;}.cls-2{fill:#d20cdb;}.cls-3{fill:#ff11e6;}.cls-4{fill:#1bb4fa;}.cls-5{fill:#5630f7;}</style></defs><title>Asset 16</title><g id="Layer_2" data-name="Layer 2"><g id="Layer_1-2" data-name="Layer 1"><path class="cls-1" d="M486.5,33.48c44.1,0,80,23.61,93.32,64.3H534c-9.39-19.07-26.46-28.46-47.8-28.46-34.71,0-59.46,25.33-59.46,65.73,0,40.11,24.75,65.72,59.46,65.72,21.34,0,38.41-9.39,47.8-28.73h45.81c-13.37,41-49.22,64.3-93.32,64.3-57.19,0-100.72-41.83-100.72-101.29S429.31,33.48,486.5,33.48Z"/><path class="cls-1" d="M670.58,237.19c-45.52,0-80-31.87-80-81.37,0-49.79,35.57-81.37,81.09-81.37S752.8,106,752.8,155.82C752.8,205.32,716.39,237.19,670.58,237.19Zm0-34.71c21,0,41.25-15.37,41.25-46.66,0-31.58-19.63-46.66-40.68-46.66S631,124.24,631,155.82C631,187.11,649.24,202.48,670.58,202.48Z"/><path class="cls-1" d="M879.13,147.57c0-25.33-13.94-39-35-39-21.62,0-35.56,13.65-35.56,39v87.06H768.74V77h39.83V96.64c10.24-13.37,27.31-21.91,47.51-21.91,36.71,0,62.88,23.9,62.88,67.43v92.47H879.13Z"/><path class="cls-1" d="M1013.42,237.19c-45.52,0-79.95-31.87-79.95-81.37,0-49.79,35.57-81.37,81.09-81.37s81.09,31.58,81.09,81.37C1095.65,205.32,1059.23,237.19,1013.42,237.19Zm0-34.71c21.06,0,41.26-15.37,41.26-46.66,0-31.58-19.64-46.66-40.69-46.66s-40.11,15.08-40.11,46.66C973.88,187.11,992.08,202.48,1013.42,202.48Z"/><path class="cls-1" d="M1137.47,77l39.83,120.92L1217.13,77h42.4L1201.2,234.63h-48.37L1094.79,77Z"/><path class="cls-1" d="M1338.63,237.19c-45.53,0-80-31.87-80-81.37,0-49.79,35.56-81.37,81.08-81.37s81.09,31.58,81.09,81.37C1420.85,205.32,1384.43,237.19,1338.63,237.19Zm0-34.71c21,0,41.25-15.37,41.25-46.66,0-31.58-19.63-46.66-40.69-46.66s-40.11,15.08-40.11,46.66C1299.08,187.11,1317.29,202.48,1338.63,202.48Z"/><path class="cls-1" d="M1426.25,36h145.68V68.19H1519V234.63h-39.84V68.19h-52.92Z"/><path class="cls-1" d="M1656.43,237.19c-45.81,0-79.1-31.87-79.1-81.37,0-49.79,32.44-81.37,79.1-81.37,45.52,0,77.67,31,77.67,78a92.48,92.48,0,0,1-1.14,15.37H1617.74c2,23.33,17.92,36.42,37.84,36.42,17.07,0,26.46-8.54,31.58-19.07h43C1721.58,214.14,1695.41,237.19,1656.43,237.19ZM1618,141h74.83c-.57-20.77-17.07-33.85-37.56-33.85C1636.23,107.17,1621.15,119.4,1618,141Z"/><path class="cls-1" d="M1817.47,74.45c39.26,0,65.72,20.48,74.25,55.76h-43c-4.55-13.37-15.08-21.91-31.58-21.91-22.19,0-37,16.79-37,47.52s14.8,47.23,37,47.23c16.5,0,26.75-7.4,31.58-21.63h43c-8.53,33.58-35,55.77-74.25,55.77-45.53,0-78-31.87-78-81.37S1771.94,74.45,1817.47,74.45Z"/><path class="cls-1" d="M1907.66,24.09h39.83V96.64c10.24-13.37,27.88-21.91,48.94-21.91,35.56,0,61.45,23.9,61.45,67.43v92.47h-39.83V147.57c0-25.33-13.94-39-35-39-21.62,0-35.56,13.65-35.56,39v87.06h-39.83Z"/><polygon class="cls-2" points="335.15 133.26 227.75 250.58 182.17 200.79 244 133.26 335.15 133.26"/><polygon class="cls-3" points="335.15 133.26 244 133.26 182.17 65.72 227.75 15.93 335.15 133.26"/><polygon class="cls-4" points="213.15 0 91.15 133.25 0 133.25 122 0 213.15 0"/><polygon class="cls-5" points="213.15 266.51 91.15 133.25 0 133.25 122 266.51 213.15 266.51"/></g></g></svg>