<svg width="78" height="78" viewBox="0 0 78 78" fill="none" xmlns="http://www.w3.org/2000/svg">
<g clip-path="url(#clip0_2_3795)">
<path d="M45.5676 15.613H5.82568V42.9356H45.5676V15.613Z" fill="#F9BA48"/>
<path d="M0.85791 0.709717V77.7097H77.8579V0.709717H0.85791ZM75.374 3.19364V10.6451H3.34183V3.19364H75.374ZM3.34183 75.2258V13.1291H75.374V75.2258H3.34183Z" fill="#333333"/>
<path d="M7.06764 8.16141C7.75356 8.16141 8.30961 7.60537 8.30961 6.91945C8.30961 6.23353 7.75356 5.67749 7.06764 5.67749C6.38173 5.67749 5.82568 6.23353 5.82568 6.91945C5.82568 7.60537 6.38173 8.16141 7.06764 8.16141Z" fill="#333333"/>
<path d="M10.7932 8.16141C11.4791 8.16141 12.0352 7.60537 12.0352 6.91945C12.0352 6.23353 11.4791 5.67749 10.7932 5.67749C10.1073 5.67749 9.55127 6.23353 9.55127 6.91945C9.55127 7.60537 10.1073 8.16141 10.7932 8.16141Z" fill="#333333"/>
<path d="M14.5193 8.16141C15.2052 8.16141 15.7613 7.60537 15.7613 6.91945C15.7613 6.23353 15.2052 5.67749 14.5193 5.67749C13.8334 5.67749 13.2773 6.23353 13.2773 6.91945C13.2773 7.60537 13.8334 8.16141 14.5193 8.16141Z" fill="#333333"/>
<path d="M20.7288 22.1655V36.3821L33.1679 29.2746L20.7288 22.1655ZM23.2127 26.4477L28.1604 29.2743L23.2127 32.101V26.4477Z" fill="#333333"/>
<path d="M72.89 15.613H48.0513V18.097H72.89V15.613Z" fill="#333333"/>
<path d="M72.89 21.8225H48.0513V24.3064H72.89V21.8225Z" fill="#333333"/>
<path d="M72.89 28.0325H48.0513V30.5164H72.89V28.0325Z" fill="#333333"/>
<path d="M72.89 34.2419H48.0513V36.7259H72.89V34.2419Z" fill="#333333"/>
<path d="M72.89 40.4519H48.0513V42.9358H72.89V40.4519Z" fill="#333333"/>
<path d="M72.8903 46.6611H5.82568V49.1451H72.8903V46.6611Z" fill="#333333"/>
<path d="M25.6965 52.8708H5.82568V66.5322H25.6965V52.8708ZM23.2126 64.0482H8.30934V55.3548H23.2126V64.0482Z" fill="#333333"/>
<path d="M72.8903 70.2583H5.82568V72.7422H72.8903V70.2583Z" fill="#333333"/>
<path d="M29.4229 52.8708V66.5322H49.2937V52.8708H29.4229ZM46.8098 64.0482H31.9065V55.3548H46.8098V64.0482Z" fill="#333333"/>
<path d="M53.019 66.5322H72.8899V52.8708H53.019V66.5322ZM55.503 55.3548H70.4062V64.0482H55.503V55.3548Z" fill="#333333"/>
</g>
<defs>
<clipPath id="clip0_2_3795">
<rect width="77" height="77" fill="white" transform="translate(0.85791 0.709717)"/>
</clipPath>
</defs>
</svg>
