<svg width="90" height="90" viewBox="0 0 90 90" fill="none" xmlns="http://www.w3.org/2000/svg">
<g clip-path="url(#clip0_2_3768)">
<path d="M69.4735 0.495606L2.198 0.495605L2.198 89.7435L69.4735 89.7435L69.4735 0.495606Z" fill="#EDEEF0"/>
<path opacity="0.4" d="M37.9345 8.34912L11.022 8.34912L11.022 10.2893L37.9345 10.2893L37.9345 8.34912Z" fill="#5B5B5F"/>
<path opacity="0.4" d="M60.6497 17.2993L11.022 17.2993L11.022 19.2395L60.6497 19.2395L60.6497 17.2993Z" fill="#5B5B5F"/>
<path opacity="0.4" d="M60.6497 26.2495L11.022 26.2495L11.022 28.1897L60.6497 28.1897L60.6497 26.2495Z" fill="#5B5B5F"/>
<path opacity="0.4" d="M60.6497 35.1995L11.022 35.1995L11.022 37.1396L60.6497 37.1396L60.6497 35.1995Z" fill="#5B5B5F"/>
<path opacity="0.4" d="M60.6497 44.1494L11.022 44.1494L11.022 46.0896L60.6497 46.0896L60.6497 44.1494Z" fill="#5B5B5F"/>
<path opacity="0.4" d="M60.6497 53.0996L11.022 53.0996L11.022 55.0398L60.6497 55.0398L60.6497 53.0996Z" fill="#5B5B5F"/>
<path opacity="0.4" d="M60.6497 62.0496L11.022 62.0496L11.022 63.9897L60.6497 63.9897L60.6497 62.0496Z" fill="#5B5B5F"/>
<path opacity="0.4" d="M60.6497 70.9998L11.022 70.9998L11.022 72.9399L60.6497 72.9399L60.6497 70.9998Z" fill="#5B5B5F"/>
<path opacity="0.4" d="M60.6497 79.9497L11.022 79.9497L11.022 81.8899L60.6497 81.8899L60.6497 79.9497Z" fill="#5B5B5F"/>
<path d="M55.3395 69.2928C63.3987 69.2928 69.9319 62.7595 69.9319 54.7003C69.9319 46.6412 63.3987 40.1079 55.3395 40.1079C47.2803 40.1079 40.7471 46.6412 40.7471 54.7003C40.7471 62.7595 47.2803 69.2928 55.3395 69.2928Z" fill="#90C5FF"/>
<path d="M81.6703 85.6173L86.2561 81.0315L72.9885 67.7639L68.4027 72.3497L81.6703 85.6173Z" fill="#59595A"/>
<path d="M68.4027 72.3495L72.9885 67.7637L71.7371 66.5122L67.1512 71.0981L68.4027 72.3495Z" fill="#ABCB57"/>
<path d="M82.922 86.8688L87.5078 82.283L86.2564 81.0315L81.6705 85.6174L82.922 86.8688Z" fill="#ABCB57"/>
<path opacity="0.2" d="M80.4762 60.3518L79.2265 63.5668L38.4023 47.7172L39.6499 44.5017L80.4762 60.3518Z" fill="white"/>
<path opacity="0.2" d="M84.3677 55.7499L83.1173 58.9659L42.293 43.1162L43.5389 39.9023L84.3677 55.7499Z" fill="white"/>
<path d="M71.6125 54.7003C71.6125 50.3537 69.9199 46.2671 66.8463 43.1935C63.7727 40.1201 59.6863 38.4273 55.3397 38.4275C50.9931 38.4275 46.9065 40.1201 43.8331 43.1935C40.7595 46.2671 39.0669 50.3535 39.0669 54.7003C39.0669 59.0469 40.7595 63.1335 43.8331 66.2069C46.9067 69.2805 50.9931 70.9731 55.3397 70.9731C59.1157 70.9731 62.6943 69.6943 65.584 67.344L68.2446 70.0046L70.644 67.6052L67.9834 64.9446C70.3337 62.0549 71.6125 58.4763 71.6125 54.7003ZM55.3397 67.6123C51.8909 67.6123 48.6482 66.2694 46.2096 63.8306C43.7708 61.392 42.4279 58.1493 42.4279 54.7005C42.4279 51.2516 43.771 48.009 46.2096 45.5704C48.6484 43.1316 51.8909 41.7886 55.3397 41.7885C58.7886 41.7885 62.0312 43.1316 64.4698 45.5704C66.9086 48.009 68.2516 51.2516 68.2516 54.7005C68.2516 58.1493 66.9084 61.392 64.4698 63.8306C62.031 66.2692 58.7886 67.6123 55.3397 67.6123Z" fill="#59595A"/>
<path opacity="0.4" d="M71.6124 54.7003C71.6124 50.3537 69.9198 46.2671 66.8462 43.1937C63.7725 40.1201 59.6862 38.4275 55.3396 38.4275C50.993 38.4275 46.9064 40.1201 43.833 43.1937L46.2095 45.5702C48.6483 43.1314 51.8907 41.7885 55.3396 41.7885C58.7886 41.7885 62.031 43.1316 64.4697 45.5702C66.9084 48.009 68.2514 51.2515 68.2514 54.7003C68.2514 58.1493 66.9083 61.3918 64.4697 63.8304L66.6729 66.0336L66.8462 66.2069L69.4443 68.805L70.07 69.4307L85.2149 84.5757L87.5078 82.2828L86.2564 81.0314L72.9886 67.7635L71.7372 66.5121L70.6439 67.6054L67.9839 64.9454C70.3342 62.0555 71.6124 58.4763 71.6124 54.7003Z" fill="#5B5B5F"/>
</g>
<defs>
<clipPath id="clip0_2_3768">
<rect width="89.2479" height="89.2479" fill="white" transform="translate(0.229004 0.495605)"/>
</clipPath>
</defs>
</svg>
