<svg width="19" height="16" viewBox="0 0 19 16" fill="none" xmlns="http://www.w3.org/2000/svg">
<path d="M16.1899 4.10493C16.2013 4.26652 16.2013 4.42815 16.2013 4.58974C16.2013 9.51841 12.4861 15.1974 5.69585 15.1974C3.6039 15.1974 1.66057 14.5856 0.0258789 13.5237C0.323106 13.5583 0.608862 13.5699 0.917524 13.5699C2.64364 13.5699 4.23262 12.9812 5.50151 11.977C3.87825 11.9424 2.51791 10.8689 2.04922 9.39146C2.27786 9.42607 2.50648 9.44916 2.74656 9.44916C3.07806 9.44916 3.40959 9.40298 3.71822 9.32222C2.02638 8.97591 0.757458 7.47538 0.757458 5.66319V5.61704C1.24899 5.89406 1.82061 6.0672 2.42643 6.09026C1.43189 5.42077 0.780329 4.27807 0.780329 2.98529C0.780329 2.29274 0.963198 1.6579 1.2833 1.10385C3.1009 3.3662 5.83301 4.84363 8.89659 5.00525C8.83945 4.72823 8.80514 4.43969 8.80514 4.15112C8.80514 2.09651 10.4513 0.422852 12.4975 0.422852C13.5606 0.422852 14.5208 0.873012 15.1953 1.6002C16.0298 1.43861 16.83 1.12694 17.5387 0.699876C17.2643 1.56559 16.6814 2.29278 15.9155 2.75445C16.6585 2.67369 17.3787 2.46588 18.0417 2.17734C17.5388 2.91604 16.91 3.57394 16.1899 4.10493Z" fill="white"/>
</svg>
