<svg width="63" height="63" viewBox="0 0 63 63" fill="none" xmlns="http://www.w3.org/2000/svg">
<g clip-path="url(#clip0_16_1504)">
<path d="M63 53.1562H0V5.90625C0 2.64403 2.64403 0 5.90625 0H57.0938C60.356 0 63 2.64403 63 5.90625V53.1562Z" fill="#65C3AB"/>
<path d="M57.0938 63H5.90625C2.64403 63 0 60.356 0 57.0938V53.1562H63V57.0938C63 60.356 60.356 63 57.0938 63Z" fill="#98D3BC"/>
<path d="M59.0625 53.1562H0V5.90625C0 2.64403 2.64403 0 5.90625 0H53.1562C56.4185 0 59.0625 2.64403 59.0625 5.90625V53.1562Z" fill="#98D3BC"/>
<path d="M53.1562 63H5.90625C2.64403 63 0 60.356 0 57.0938V53.1562H59.0625V57.0938C59.0625 60.356 56.4185 63 53.1562 63Z" fill="#CCE2CD"/>
<path d="M49.2188 45.2812H9.84375C8.757 45.2812 7.875 44.3992 7.875 43.3125V9.84375C7.875 8.757 8.757 7.875 9.84375 7.875H49.2188C50.3055 7.875 51.1875 8.757 51.1875 9.84375V43.3125C51.1875 44.3992 50.3055 45.2812 49.2188 45.2812Z" fill="#FFF2DF"/>
<path d="M33.4688 57.0938H25.5938C24.507 57.0938 23.625 56.2117 23.625 55.125V53.1562H35.4375V55.125C35.4375 56.2117 34.5555 57.0938 33.4688 57.0938Z" fill="#65C3AB"/>
<path d="M17.7188 17.7188C17.7188 16.632 18.6008 15.75 19.6875 15.75H39.375C40.4617 15.75 41.3438 16.632 41.3438 17.7188C41.3438 18.8055 40.4617 19.6875 39.375 19.6875H19.6875C18.6008 19.6875 17.7188 18.8055 17.7188 17.7188ZM39.375 23.625H19.6875C18.6008 23.625 17.7188 24.507 17.7188 25.5938C17.7188 26.6805 18.6008 27.5625 19.6875 27.5625H39.375C40.4617 27.5625 41.3438 26.6805 41.3438 25.5938C41.3438 24.507 40.4617 23.625 39.375 23.625ZM39.375 31.5H19.6875C18.6008 31.5 17.7188 32.382 17.7188 33.4688C17.7188 34.5555 18.6008 35.4375 19.6875 35.4375H39.375C40.4617 35.4375 41.3438 34.5555 41.3438 33.4688C41.3438 32.382 40.4617 31.5 39.375 31.5Z" fill="#67625D"/>
</g>
<defs>
<clipPath id="clip0_16_1504">
<rect width="63" height="63" fill="white"/>
</clipPath>
</defs>
</svg>
